<svg width="444" height="136" viewBox="0 0 444 136" fill="none" xmlns="http://www.w3.org/2000/svg">
<g clip-path="url(#clip0_7_645)">
<rect width="444" height="136" fill="white"/>
<rect x="145" y="6" width="176" height="30" fill="#DDF9E1"/>
<path d="M161.922 27V14.6364H163.787V20.0092H169.951V14.6364H171.822V27H169.951V21.609H163.787V27H161.922ZM178.391 27.1871C177.477 27.1871 176.69 26.992 176.03 26.6016C175.374 26.2071 174.867 25.6538 174.509 24.9414C174.155 24.225 173.978 23.3859 173.978 22.424C173.978 21.4742 174.155 20.6371 174.509 19.9126C174.867 19.1882 175.366 18.6228 176.006 18.2163C176.65 17.8098 177.402 17.6065 178.264 17.6065C178.787 17.6065 179.294 17.6931 179.785 17.8661C180.276 18.0392 180.717 18.3108 181.107 18.6811C181.498 19.0514 181.805 19.5323 182.031 20.1239C182.256 20.7115 182.369 21.4259 182.369 22.267V22.907H174.998V21.5547H180.6C180.6 21.0798 180.503 20.6592 180.31 20.293C180.117 19.9227 179.845 19.6309 179.495 19.4176C179.149 19.2043 178.743 19.0977 178.276 19.0977C177.769 19.0977 177.326 19.2224 176.948 19.4719C176.573 19.7174 176.284 20.0394 176.078 20.4379C175.877 20.8323 175.777 21.2609 175.777 21.7237V22.7802C175.777 23.4 175.885 23.9272 176.103 24.3619C176.324 24.7965 176.632 25.1286 177.026 25.358C177.421 25.5833 177.881 25.696 178.409 25.696C178.751 25.696 179.063 25.6477 179.344 25.5511C179.626 25.4505 179.87 25.3016 180.075 25.1044C180.28 24.9072 180.437 24.6637 180.546 24.3739L182.254 24.6818C182.117 25.1849 181.872 25.6256 181.518 26.0039C181.168 26.3782 180.727 26.67 180.196 26.8793C179.668 27.0845 179.067 27.1871 178.391 27.1871ZM186.177 14.6364V27H184.372V14.6364H186.177ZM190.41 14.6364V27H188.605V14.6364H190.41ZM196.744 27.1871C195.875 27.1871 195.116 26.9879 194.468 26.5895C193.82 26.1911 193.317 25.6336 192.959 24.9173C192.601 24.2009 192.422 23.3638 192.422 22.4059C192.422 21.444 192.601 20.6029 192.959 19.8825C193.317 19.162 193.82 18.6026 194.468 18.2042C195.116 17.8058 195.875 17.6065 196.744 17.6065C197.614 17.6065 198.372 17.8058 199.02 18.2042C199.668 18.6026 200.171 19.162 200.529 19.8825C200.888 20.6029 201.067 21.444 201.067 22.4059C201.067 23.3638 200.888 24.2009 200.529 24.9173C200.171 25.6336 199.668 26.1911 199.02 26.5895C198.372 26.9879 197.614 27.1871 196.744 27.1871ZM196.75 25.6719C197.314 25.6719 197.781 25.523 198.151 25.2251C198.521 24.9273 198.795 24.5309 198.972 24.0359C199.153 23.5408 199.244 22.9955 199.244 22.3999C199.244 21.8082 199.153 21.2649 198.972 20.7699C198.795 20.2708 198.521 19.8704 198.151 19.5685C197.781 19.2667 197.314 19.1158 196.75 19.1158C196.183 19.1158 195.712 19.2667 195.338 19.5685C194.967 19.8704 194.692 20.2708 194.511 20.7699C194.334 21.2649 194.245 21.8082 194.245 22.3999C194.245 22.9955 194.334 23.5408 194.511 24.0359C194.692 24.5309 194.967 24.9273 195.338 25.2251C195.712 25.523 196.183 25.6719 196.75 25.6719ZM205.358 14.6364L205.201 23.4442H203.528L203.371 14.6364H205.358ZM204.367 27.1147C204.033 27.1147 203.748 26.998 203.51 26.7646C203.273 26.5271 203.156 26.2414 203.16 25.9073C203.156 25.5773 203.273 25.2956 203.51 25.0621C203.748 24.8247 204.033 24.706 204.367 24.706C204.693 24.706 204.975 24.8247 205.213 25.0621C205.45 25.2956 205.571 25.5773 205.575 25.9073C205.571 26.1287 205.512 26.3319 205.4 26.517C205.291 26.6982 205.146 26.843 204.965 26.9517C204.784 27.0604 204.585 27.1147 204.367 27.1147ZM212.723 14.6364H214.986L218.922 24.2472H219.067L223.003 14.6364H225.267V27H223.492V18.0533H223.378L219.731 26.9819H218.258L214.612 18.0472H214.497V27H212.723V14.6364ZM228.975 30.4773C228.706 30.4773 228.46 30.4551 228.239 30.4109C228.018 30.3706 227.853 30.3263 227.744 30.2781L228.179 28.799C228.509 28.8875 228.802 28.9258 229.06 28.9137C229.318 28.9016 229.545 28.805 229.742 28.6239C229.943 28.4428 230.121 28.147 230.273 27.7365L230.497 27.1207L227.104 17.7273H229.036L231.384 24.9233H231.481L233.829 17.7273H235.767L231.946 28.2376C231.769 28.7205 231.543 29.129 231.27 29.4631C230.996 29.8011 230.67 30.0547 230.292 30.2237C229.913 30.3928 229.475 30.4773 228.975 30.4773ZM243.767 21.4943V27H241.962V17.7273H243.695V19.2365H243.81C244.023 18.7455 244.357 18.3511 244.812 18.0533C245.271 17.7554 245.848 17.6065 246.544 17.6065C247.176 17.6065 247.73 17.7393 248.205 18.005C248.68 18.2666 249.048 18.657 249.309 19.1761C249.571 19.6953 249.702 20.3372 249.702 21.1019V27H247.897V21.3192C247.897 20.6471 247.722 20.1219 247.372 19.7436C247.021 19.3613 246.54 19.1701 245.929 19.1701C245.51 19.1701 245.138 19.2607 244.812 19.4418C244.49 19.6229 244.234 19.8885 244.045 20.2386C243.86 20.5848 243.767 21.0033 243.767 21.4943ZM254.821 27.2053C254.234 27.2053 253.702 27.0966 253.227 26.8793C252.752 26.6579 252.376 26.3379 252.098 25.9194C251.825 25.5008 251.688 24.9877 251.688 24.38C251.688 23.8568 251.789 23.4261 251.99 23.0881C252.191 22.75 252.463 22.4824 252.805 22.2852C253.147 22.0879 253.529 21.939 253.952 21.8384C254.374 21.7378 254.805 21.6613 255.244 21.609C255.799 21.5446 256.25 21.4923 256.596 21.4521C256.942 21.4078 257.194 21.3374 257.351 21.2408C257.508 21.1442 257.586 20.9872 257.586 20.7699V20.7276C257.586 20.2004 257.437 19.7919 257.139 19.5021C256.845 19.2124 256.407 19.0675 255.823 19.0675C255.216 19.0675 254.737 19.2023 254.386 19.4719C254.04 19.7376 253.801 20.0334 253.668 20.3594L251.972 19.973C252.173 19.4096 252.467 18.9548 252.853 18.6087C253.243 18.2585 253.692 18.005 254.199 17.848C254.706 17.687 255.24 17.6065 255.799 17.6065C256.169 17.6065 256.562 17.6508 256.976 17.7393C257.395 17.8239 257.785 17.9808 258.147 18.2102C258.514 18.4396 258.814 18.7676 259.047 19.1942C259.28 19.6168 259.397 20.1662 259.397 20.8423V27H257.634V25.7322H257.562C257.445 25.9657 257.27 26.1951 257.037 26.4205C256.803 26.6458 256.503 26.833 256.137 26.9819C255.771 27.1308 255.332 27.2053 254.821 27.2053ZM255.214 25.7564C255.713 25.7564 256.139 25.6578 256.493 25.4606C256.852 25.2634 257.123 25.0058 257.308 24.6879C257.497 24.3659 257.592 24.0218 257.592 23.6555V22.4602C257.528 22.5246 257.403 22.585 257.218 22.6413C257.037 22.6937 256.829 22.7399 256.596 22.7802C256.363 22.8164 256.135 22.8506 255.914 22.8828C255.692 22.911 255.507 22.9351 255.358 22.9553C255.008 22.9995 254.688 23.074 254.399 23.1786C254.113 23.2833 253.883 23.4342 253.71 23.6314C253.541 23.8246 253.457 24.0821 253.457 24.4041C253.457 24.8509 253.622 25.1889 253.952 25.4183C254.282 25.6437 254.702 25.7564 255.214 25.7564ZM261.801 27V17.7273H263.534V19.2365H263.649C263.842 18.7254 264.158 18.3269 264.596 18.0412C265.035 17.7514 265.56 17.6065 266.172 17.6065C266.792 17.6065 267.311 17.7514 267.73 18.0412C268.152 18.331 268.464 18.7294 268.665 19.2365H268.762C268.983 18.7415 269.335 18.3471 269.818 18.0533C270.301 17.7554 270.877 17.6065 271.545 17.6065C272.386 17.6065 273.072 17.8701 273.604 18.3974C274.139 18.9246 274.406 19.7195 274.406 20.782V27H272.601V20.951C272.601 20.3232 272.43 19.8684 272.088 19.5866C271.746 19.3049 271.338 19.1641 270.863 19.1641C270.275 19.1641 269.818 19.3452 269.492 19.7074C269.166 20.0656 269.003 20.5264 269.003 21.0898V27H267.204V20.8363C267.204 20.3332 267.047 19.9287 266.733 19.6229C266.42 19.317 266.011 19.1641 265.508 19.1641C265.166 19.1641 264.85 19.2546 264.56 19.4357C264.274 19.6128 264.043 19.8603 263.866 20.1783C263.693 20.4962 263.606 20.8645 263.606 21.283V27H261.801ZM280.822 27.1871C279.909 27.1871 279.122 26.992 278.462 26.6016C277.806 26.2071 277.299 25.6538 276.94 24.9414C276.586 24.225 276.409 23.3859 276.409 22.424C276.409 21.4742 276.586 20.6371 276.94 19.9126C277.299 19.1882 277.798 18.6228 278.438 18.2163C279.082 17.8098 279.834 17.6065 280.695 17.6065C281.219 17.6065 281.726 17.6931 282.217 17.8661C282.708 18.0392 283.148 18.3108 283.539 18.6811C283.929 19.0514 284.237 19.5323 284.462 20.1239C284.688 20.7115 284.801 21.4259 284.801 22.267V22.907H277.429V21.5547H283.032C283.032 21.0798 282.935 20.6592 282.742 20.293C282.549 19.9227 282.277 19.6309 281.927 19.4176C281.581 19.2043 281.174 19.0977 280.707 19.0977C280.2 19.0977 279.758 19.2224 279.379 19.4719C279.005 19.7174 278.715 20.0394 278.51 20.4379C278.309 20.8323 278.208 21.2609 278.208 21.7237V22.7802C278.208 23.4 278.317 23.9272 278.534 24.3619C278.756 24.7965 279.063 25.1286 279.458 25.358C279.852 25.5833 280.313 25.696 280.84 25.696C281.182 25.696 281.494 25.6477 281.776 25.5511C282.058 25.4505 282.301 25.3016 282.506 25.1044C282.712 24.9072 282.869 24.6637 282.977 24.3739L284.686 24.6818C284.549 25.1849 284.303 25.6256 283.949 26.0039C283.599 26.3782 283.158 26.67 282.627 26.8793C282.1 27.0845 281.498 27.1871 280.822 27.1871ZM291.302 27V17.7273H293.107V27H291.302ZM292.214 16.2965C291.9 16.2965 291.63 16.1919 291.405 15.9826C291.184 15.7693 291.073 15.5157 291.073 15.2219C291.073 14.9241 291.184 14.6706 291.405 14.4613C291.63 14.248 291.9 14.1413 292.214 14.1413C292.528 14.1413 292.795 14.248 293.017 14.4613C293.242 14.6706 293.355 14.9241 293.355 15.2219C293.355 15.5157 293.242 15.7693 293.017 15.9826C292.795 16.1919 292.528 16.2965 292.214 16.2965ZM302.484 19.9911L300.848 20.2809C300.78 20.0716 300.671 19.8724 300.522 19.6832C300.377 19.4941 300.18 19.3391 299.931 19.2184C299.681 19.0977 299.369 19.0373 298.995 19.0373C298.484 19.0373 298.057 19.152 297.715 19.3814C297.373 19.6068 297.202 19.8986 297.202 20.2567C297.202 20.5666 297.317 20.8162 297.546 21.0053C297.775 21.1945 298.146 21.3494 298.657 21.4702L300.13 21.8082C300.983 22.0054 301.619 22.3093 302.037 22.7198C302.456 23.1303 302.665 23.6636 302.665 24.3196C302.665 24.875 302.504 25.37 302.182 25.8047C301.864 26.2353 301.42 26.5734 300.848 26.8189C300.281 27.0644 299.623 27.1871 298.874 27.1871C297.836 27.1871 296.989 26.9658 296.333 26.5231C295.677 26.0763 295.274 25.4425 295.125 24.6214L296.87 24.3558C296.979 24.8106 297.202 25.1547 297.54 25.3881C297.878 25.6175 298.319 25.7322 298.862 25.7322C299.454 25.7322 299.927 25.6095 300.281 25.364C300.635 25.1145 300.812 24.8106 300.812 24.4524C300.812 24.1626 300.703 23.9192 300.486 23.7219C300.273 23.5247 299.945 23.3758 299.502 23.2752L297.932 22.9311C297.067 22.7339 296.427 22.42 296.013 21.9893C295.602 21.5587 295.397 21.0134 295.397 20.3533C295.397 19.806 295.55 19.3271 295.856 18.9165C296.162 18.506 296.584 18.1861 297.123 17.9567C297.663 17.7232 298.28 17.6065 298.977 17.6065C299.979 17.6065 300.768 17.8239 301.343 18.2585C301.919 18.6892 302.299 19.2667 302.484 19.9911Z" fill="#272727"/>
<path d="M321 71H375V106H321V71Z" fill="#E3E2E2"/>
<path d="M342.595 96V86.7273H344.4V96H342.595ZM343.506 85.2965C343.192 85.2965 342.923 85.1919 342.697 84.9826C342.476 84.7693 342.365 84.5157 342.365 84.2219C342.365 83.9241 342.476 83.6706 342.697 83.4613C342.923 83.248 343.192 83.1413 343.506 83.1413C343.82 83.1413 344.088 83.248 344.309 83.4613C344.535 83.6706 344.647 83.9241 344.647 84.2219C344.647 84.5157 344.535 84.7693 344.309 84.9826C344.088 85.1919 343.82 85.2965 343.506 85.2965ZM353.777 88.9911L352.141 89.2809C352.072 89.0716 351.964 88.8724 351.815 88.6832C351.67 88.4941 351.473 88.3391 351.223 88.2184C350.973 88.0977 350.662 88.0373 350.287 88.0373C349.776 88.0373 349.35 88.152 349.007 88.3814C348.665 88.6068 348.494 88.8986 348.494 89.2567C348.494 89.5666 348.609 89.8162 348.838 90.0053C349.068 90.1945 349.438 90.3494 349.949 90.4702L351.422 90.8082C352.275 91.0054 352.911 91.3093 353.33 91.7198C353.748 92.1303 353.958 92.6636 353.958 93.3196C353.958 93.875 353.797 94.37 353.475 94.8047C353.157 95.2353 352.712 95.5734 352.141 95.8189C351.573 96.0644 350.915 96.1871 350.167 96.1871C349.128 96.1871 348.281 95.9658 347.625 95.5231C346.969 95.0763 346.567 94.4425 346.418 93.6214L348.162 93.3558C348.271 93.8106 348.494 94.1547 348.832 94.3881C349.17 94.6175 349.611 94.7322 350.154 94.7322C350.746 94.7322 351.219 94.6095 351.573 94.364C351.927 94.1145 352.104 93.8106 352.104 93.4524C352.104 93.1626 351.996 92.9192 351.778 92.7219C351.565 92.5247 351.237 92.3758 350.794 92.2752L349.225 91.9311C348.359 91.7339 347.72 91.42 347.305 90.9893C346.895 90.5587 346.689 90.0134 346.689 89.3533C346.689 88.806 346.842 88.3271 347.148 87.9165C347.454 87.506 347.877 87.1861 348.416 86.9567C348.955 86.7232 349.573 86.6065 350.269 86.6065C351.271 86.6065 352.06 86.8239 352.636 87.2585C353.211 87.6892 353.591 88.2667 353.777 88.9911Z" fill="#272727"/>
<path d="M85 71H139V106H85V71Z" fill="#E3E2E2"/>
<path d="M90.706 96V83.6364H92.5714V89.0092H98.7351V83.6364H100.607V96H98.7351V90.609H92.5714V96H90.706ZM107.175 96.1871C106.261 96.1871 105.474 95.992 104.814 95.6016C104.158 95.2071 103.651 94.6538 103.293 93.9414C102.939 93.225 102.762 92.3859 102.762 91.424C102.762 90.4742 102.939 89.6371 103.293 88.9126C103.651 88.1882 104.15 87.6228 104.79 87.2163C105.434 86.8098 106.187 86.6065 107.048 86.6065C107.571 86.6065 108.078 86.6931 108.569 86.8661C109.06 87.0392 109.501 87.3108 109.891 87.6811C110.282 88.0514 110.59 88.5323 110.815 89.1239C111.04 89.7115 111.153 90.4259 111.153 91.267V91.907H103.782V90.5547H109.384C109.384 90.0798 109.288 89.6592 109.094 89.293C108.901 88.9227 108.63 88.6309 108.279 88.4176C107.933 88.2043 107.527 88.0977 107.06 88.0977C106.553 88.0977 106.11 88.2224 105.732 88.4719C105.358 88.7174 105.068 89.0394 104.863 89.4379C104.661 89.8323 104.561 90.2609 104.561 90.7237V91.7802C104.561 92.4 104.669 92.9272 104.887 93.3619C105.108 93.7965 105.416 94.1286 105.81 94.358C106.205 94.5833 106.666 94.696 107.193 94.696C107.535 94.696 107.847 94.6477 108.129 94.5511C108.41 94.4505 108.654 94.3016 108.859 94.1044C109.064 93.9072 109.221 93.6637 109.33 93.3739L111.038 93.6818C110.902 94.1849 110.656 94.6256 110.302 95.0039C109.952 95.3782 109.511 95.67 108.98 95.8793C108.453 96.0845 107.851 96.1871 107.175 96.1871ZM114.961 83.6364V96H113.156V83.6364H114.961ZM119.194 83.6364V96H117.389V83.6364H119.194ZM125.528 96.1871C124.659 96.1871 123.901 95.9879 123.253 95.5895C122.605 95.1911 122.102 94.6336 121.743 93.9173C121.385 93.2009 121.206 92.3638 121.206 91.4059C121.206 90.444 121.385 89.6029 121.743 88.8825C122.102 88.162 122.605 87.6026 123.253 87.2042C123.901 86.8058 124.659 86.6065 125.528 86.6065C126.398 86.6065 127.156 86.8058 127.804 87.2042C128.452 87.6026 128.955 88.162 129.314 88.8825C129.672 89.6029 129.851 90.444 129.851 91.4059C129.851 92.3638 129.672 93.2009 129.314 93.9173C128.955 94.6336 128.452 95.1911 127.804 95.5895C127.156 95.9879 126.398 96.1871 125.528 96.1871ZM125.535 94.6719C126.098 94.6719 126.565 94.523 126.935 94.2251C127.305 93.9273 127.579 93.5309 127.756 93.0359C127.937 92.5408 128.028 91.9955 128.028 91.3999C128.028 90.8082 127.937 90.2649 127.756 89.7699C127.579 89.2708 127.305 88.8704 126.935 88.5685C126.565 88.2667 126.098 88.1158 125.535 88.1158C124.967 88.1158 124.496 88.2667 124.122 88.5685C123.752 88.8704 123.476 89.2708 123.295 89.7699C123.118 90.2649 123.029 90.8082 123.029 91.3999C123.029 91.9955 123.118 92.5408 123.295 93.0359C123.476 93.5309 123.752 93.9273 124.122 94.2251C124.496 94.523 124.967 94.6719 125.535 94.6719Z" fill="#272727"/>
<rect x="85" y="106" width="54" height="21" fill="#F6F5F5"/>
<path d="M113.183 112.273V121H112.126V113.381H112.075L109.944 114.795V113.722L112.126 112.273H113.183Z" fill="#8E8E8E"/>
<rect x="144" y="106" width="54" height="21" fill="#F6F5F5"/>
<path d="M168.271 121V120.233L171.151 117.08C171.489 116.71 171.768 116.389 171.987 116.116C172.205 115.841 172.367 115.582 172.472 115.341C172.58 115.097 172.634 114.841 172.634 114.574C172.634 114.267 172.56 114.001 172.413 113.777C172.268 113.553 172.069 113.379 171.816 113.257C171.563 113.135 171.279 113.074 170.964 113.074C170.629 113.074 170.336 113.143 170.086 113.283C169.839 113.419 169.647 113.611 169.511 113.858C169.377 114.105 169.31 114.395 169.31 114.727H168.305C168.305 114.216 168.423 113.767 168.658 113.381C168.894 112.994 169.215 112.693 169.621 112.477C170.031 112.261 170.489 112.153 170.998 112.153C171.509 112.153 171.962 112.261 172.357 112.477C172.752 112.693 173.062 112.984 173.286 113.351C173.511 113.717 173.623 114.125 173.623 114.574C173.623 114.895 173.565 115.209 173.448 115.516C173.335 115.82 173.136 116.159 172.852 116.534C172.57 116.906 172.18 117.361 171.68 117.898L169.719 119.994V120.062H173.776V121H168.271Z" fill="#8E8E8E"/>
<rect x="203" y="106" width="54" height="21" fill="#F6F5F5"/>
<path d="M230.032 121.119C229.469 121.119 228.968 121.023 228.528 120.83C228.09 120.636 227.742 120.368 227.484 120.024C227.228 119.678 227.089 119.276 227.066 118.818H228.14C228.163 119.099 228.259 119.342 228.43 119.547C228.6 119.749 228.823 119.905 229.099 120.016C229.374 120.126 229.68 120.182 230.015 120.182C230.39 120.182 230.722 120.116 231.012 119.986C231.302 119.855 231.529 119.673 231.694 119.44C231.859 119.207 231.941 118.938 231.941 118.631C231.941 118.31 231.862 118.027 231.702 117.783C231.543 117.536 231.31 117.342 231.004 117.203C230.697 117.064 230.322 116.994 229.879 116.994H229.18V116.057H229.879C230.225 116.057 230.529 115.994 230.79 115.869C231.055 115.744 231.261 115.568 231.408 115.341C231.559 115.114 231.634 114.847 231.634 114.54C231.634 114.244 231.569 113.987 231.438 113.768C231.308 113.55 231.123 113.379 230.884 113.257C230.648 113.135 230.37 113.074 230.049 113.074C229.748 113.074 229.464 113.129 229.197 113.24C228.933 113.348 228.717 113.506 228.549 113.713C228.381 113.918 228.29 114.165 228.276 114.455H227.254C227.271 113.997 227.408 113.597 227.667 113.253C227.925 112.906 228.263 112.636 228.681 112.443C229.102 112.25 229.563 112.153 230.066 112.153C230.606 112.153 231.069 112.263 231.455 112.482C231.842 112.697 232.138 112.983 232.346 113.338C232.553 113.693 232.657 114.077 232.657 114.489C232.657 114.98 232.528 115.399 232.269 115.746C232.013 116.092 231.665 116.332 231.225 116.466V116.534C231.776 116.625 232.207 116.859 232.516 117.237C232.826 117.612 232.981 118.077 232.981 118.631C232.981 119.105 232.852 119.531 232.593 119.909C232.337 120.284 231.988 120.58 231.545 120.795C231.102 121.011 230.597 121.119 230.032 121.119Z" fill="#8E8E8E"/>
<rect x="262" y="106" width="54" height="21" fill="#F6F5F5"/>
<path d="M285.849 119.21V118.341L289.684 112.273H290.315V113.619H289.889L286.991 118.205V118.273H292.156V119.21H285.849ZM289.957 121V118.946V118.541V112.273H290.963V121H289.957Z" fill="#8E8E8E"/>
<rect x="321" y="106" width="54" height="21" fill="#F6F5F5"/>
<path d="M347.98 121.119C347.48 121.119 347.03 121.02 346.629 120.821C346.229 120.622 345.908 120.349 345.666 120.003C345.425 119.656 345.293 119.261 345.27 118.818H346.293C346.333 119.213 346.512 119.54 346.83 119.798C347.151 120.054 347.534 120.182 347.98 120.182C348.338 120.182 348.656 120.098 348.935 119.93C349.216 119.763 349.436 119.533 349.595 119.24C349.757 118.945 349.838 118.611 349.838 118.239C349.838 117.858 349.754 117.518 349.587 117.22C349.422 116.919 349.195 116.682 348.905 116.509C348.615 116.335 348.284 116.247 347.912 116.244C347.645 116.241 347.371 116.283 347.09 116.368C346.808 116.45 346.577 116.557 346.395 116.688L345.406 116.568L345.935 112.273H350.469V113.21H346.821L346.514 115.784H346.566C346.744 115.642 346.969 115.524 347.239 115.43C347.509 115.337 347.79 115.29 348.083 115.29C348.617 115.29 349.093 115.418 349.51 115.673C349.931 115.926 350.26 116.273 350.499 116.713C350.74 117.153 350.861 117.656 350.861 118.222C350.861 118.778 350.736 119.276 350.486 119.713C350.239 120.148 349.898 120.491 349.463 120.744C349.029 120.994 348.534 121.119 347.98 121.119Z" fill="#8E8E8E"/>
<path d="M144 71H198V106H144V71Z" fill="#E3E2E2"/>
<path d="M171.991 83.6364L171.834 92.4442H170.162L170.005 83.6364H171.991ZM171.001 96.1147C170.667 96.1147 170.381 95.998 170.143 95.7646C169.906 95.5271 169.789 95.2414 169.793 94.9073C169.789 94.5773 169.906 94.2956 170.143 94.0621C170.381 93.8247 170.667 93.706 171.001 93.706C171.327 93.706 171.608 93.8247 171.846 94.0621C172.083 94.2956 172.204 94.5773 172.208 94.9073C172.204 95.1287 172.146 95.3319 172.033 95.517C171.924 95.6982 171.779 95.843 171.598 95.9517C171.417 96.0604 171.218 96.1147 171.001 96.1147Z" fill="#272727"/>
<path d="M203 71H257V106H203V71Z" fill="#E3E2E2"/>
<path d="M218.916 83.6364H221.179L225.116 93.2472H225.26L229.196 83.6364H231.46V96H229.685V87.0533H229.571L225.924 95.9819H224.451L220.805 87.0472H220.69V96H218.916V83.6364ZM235.169 99.4773C234.899 99.4773 234.653 99.4551 234.432 99.4109C234.211 99.3706 234.046 99.3263 233.937 99.2781L234.372 97.799C234.702 97.8875 234.995 97.9258 235.253 97.9137C235.511 97.9016 235.738 97.805 235.935 97.6239C236.136 97.4428 236.314 97.147 236.466 96.7365L236.69 96.1207L233.297 86.7273H235.229L237.577 93.9233H237.674L240.022 86.7273H241.96L238.139 97.2376C237.962 97.7205 237.736 98.129 237.463 98.4631C237.189 98.8011 236.863 99.0547 236.485 99.2237C236.106 99.3928 235.668 99.4773 235.169 99.4773Z" fill="#272727"/>
<path d="M262 71H316V106H262V71Z" fill="#E3E2E2"/>
<path d="M269.598 90.4943V96H267.793V86.7273H269.526V88.2365H269.64C269.854 87.7455 270.188 87.3511 270.642 87.0533C271.101 86.7554 271.679 86.6065 272.375 86.6065C273.007 86.6065 273.56 86.7393 274.035 87.005C274.51 87.2666 274.878 87.657 275.14 88.1761C275.401 88.6953 275.532 89.3372 275.532 90.1019V96H273.727V90.3192C273.727 89.6471 273.552 89.1219 273.202 88.7436C272.852 88.3613 272.371 88.1701 271.759 88.1701C271.341 88.1701 270.968 88.2607 270.642 88.4418C270.32 88.6229 270.065 88.8885 269.876 89.2386C269.691 89.5848 269.598 90.0033 269.598 90.4943ZM280.652 96.2053C280.064 96.2053 279.533 96.0966 279.058 95.8793C278.583 95.6579 278.207 95.3379 277.929 94.9194C277.655 94.5008 277.518 93.9877 277.518 93.38C277.518 92.8568 277.619 92.4261 277.82 92.0881C278.022 91.75 278.293 91.4824 278.635 91.2852C278.977 91.0879 279.36 90.939 279.782 90.8384C280.205 90.7378 280.635 90.6613 281.074 90.609C281.63 90.5446 282.08 90.4923 282.426 90.4521C282.773 90.4078 283.024 90.3374 283.181 90.2408C283.338 90.1442 283.417 89.9872 283.417 89.7699V89.7276C283.417 89.2004 283.268 88.7919 282.97 88.5021C282.676 88.2124 282.237 88.0675 281.654 88.0675C281.046 88.0675 280.567 88.2023 280.217 88.4719C279.871 88.7376 279.631 89.0334 279.499 89.3594L277.802 88.973C278.003 88.4096 278.297 87.9548 278.684 87.6087C279.074 87.2585 279.523 87.005 280.03 86.848C280.537 86.687 281.07 86.6065 281.63 86.6065C282 86.6065 282.392 86.6508 282.807 86.7393C283.225 86.8239 283.616 86.9808 283.978 87.2102C284.344 87.4396 284.644 87.7676 284.877 88.1942C285.111 88.6168 285.228 89.1662 285.228 89.8423V96H283.465V94.7322H283.392C283.276 94.9657 283.101 95.1951 282.867 95.4205C282.634 95.6458 282.334 95.833 281.968 95.9819C281.601 96.1308 281.163 96.2053 280.652 96.2053ZM281.044 94.7564C281.543 94.7564 281.97 94.6578 282.324 94.4606C282.682 94.2634 282.954 94.0058 283.139 93.6879C283.328 93.3659 283.423 93.0218 283.423 92.6555V91.4602C283.358 91.5246 283.233 91.585 283.048 91.6413C282.867 91.6937 282.66 91.7399 282.426 91.7802C282.193 91.8164 281.966 91.8506 281.744 91.8828C281.523 91.911 281.338 91.9351 281.189 91.9553C280.839 91.9995 280.519 92.074 280.229 92.1786C279.943 92.2833 279.714 92.4342 279.541 92.6314C279.372 92.8246 279.287 93.0821 279.287 93.4041C279.287 93.8509 279.452 94.1889 279.782 94.4183C280.112 94.6437 280.533 94.7564 281.044 94.7564ZM287.632 96V86.7273H289.364V88.2365H289.479C289.672 87.7254 289.988 87.3269 290.427 87.0412C290.866 86.7514 291.391 86.6065 292.003 86.6065C292.622 86.6065 293.141 86.7514 293.56 87.0412C293.983 87.331 294.295 87.7294 294.496 88.2365H294.592C294.814 87.7415 295.166 87.3471 295.649 87.0533C296.132 86.7554 296.707 86.6065 297.375 86.6065C298.217 86.6065 298.903 86.8701 299.434 87.3974C299.969 87.9246 300.237 88.7195 300.237 89.782V96H298.432V89.951C298.432 89.3232 298.261 88.8684 297.919 88.5866C297.577 88.3049 297.168 88.1641 296.693 88.1641C296.106 88.1641 295.649 88.3452 295.323 88.7074C294.997 89.0656 294.834 89.5264 294.834 90.0898V96H293.035V89.8363C293.035 89.3332 292.878 88.9287 292.564 88.6229C292.25 88.317 291.842 88.1641 291.338 88.1641C290.996 88.1641 290.68 88.2546 290.391 88.4357C290.105 88.6128 289.874 88.8603 289.696 89.1783C289.523 89.4962 289.437 89.8645 289.437 90.283V96H287.632ZM306.653 96.1871C305.739 96.1871 304.952 95.992 304.292 95.6016C303.636 95.2071 303.129 94.6538 302.771 93.9414C302.417 93.225 302.24 92.3859 302.24 91.424C302.24 90.4742 302.417 89.6371 302.771 88.9126C303.129 88.1882 303.628 87.6228 304.268 87.2163C304.912 86.8098 305.665 86.6065 306.526 86.6065C307.049 86.6065 307.556 86.6931 308.047 86.8661C308.538 87.0392 308.979 87.3108 309.369 87.6811C309.76 88.0514 310.068 88.5323 310.293 89.1239C310.518 89.7115 310.631 90.4259 310.631 91.267V91.907H303.26V90.5547H308.862C308.862 90.0798 308.766 89.6592 308.572 89.293C308.379 88.9227 308.108 88.6309 307.757 88.4176C307.411 88.2043 307.005 88.0977 306.538 88.0977C306.031 88.0977 305.588 88.2224 305.21 88.4719C304.836 88.7174 304.546 89.0394 304.341 89.4379C304.139 89.8323 304.039 90.2609 304.039 90.7237V91.7802C304.039 92.4 304.147 92.9272 304.365 93.3619C304.586 93.7965 304.894 94.1286 305.288 94.358C305.683 94.5833 306.144 94.696 306.671 94.696C307.013 94.696 307.325 94.6477 307.606 94.5511C307.888 94.4505 308.132 94.3016 308.337 94.1044C308.542 93.9072 308.699 93.6637 308.808 93.3739L310.516 93.6818C310.379 94.1849 310.134 94.6256 309.78 95.0039C309.43 95.3782 308.989 95.67 308.458 95.8793C307.93 96.0845 307.329 96.1871 306.653 96.1871Z" fill="#272727"/>
<path d="M29.2163 87.4545C29.1651 87.0227 28.9577 86.6875 28.5941 86.4489C28.2305 86.2102 27.7844 86.0909 27.256 86.0909C26.8697 86.0909 26.5316 86.1534 26.2418 86.2784C25.9549 86.4034 25.7305 86.5753 25.5685 86.794C25.4094 87.0128 25.3299 87.2614 25.3299 87.5398C25.3299 87.7727 25.3853 87.973 25.4961 88.1406C25.6097 88.3054 25.7546 88.4432 25.9308 88.554C26.1069 88.6619 26.2915 88.7514 26.4847 88.8224C26.6779 88.8906 26.8555 88.946 27.0174 88.9886L27.9038 89.2273C28.131 89.2869 28.3839 89.3693 28.6623 89.4744C28.9435 89.5795 29.212 89.723 29.4677 89.9048C29.7262 90.0838 29.9393 90.3139 30.1069 90.5952C30.2745 90.8764 30.3583 91.2216 30.3583 91.6307C30.3583 92.1023 30.2347 92.5284 29.9876 92.9091C29.7433 93.2898 29.3853 93.5923 28.9137 93.8168C28.445 94.0412 27.8754 94.1534 27.2049 94.1534C26.5799 94.1534 26.0387 94.0526 25.5813 93.8509C25.1268 93.6491 24.7688 93.3679 24.5075 93.0071C24.2489 92.6463 24.1026 92.2273 24.0685 91.75H25.1594C25.1879 92.0795 25.2987 92.3523 25.4918 92.5682C25.6879 92.7812 25.935 92.9403 26.2333 93.0455C26.5344 93.1477 26.8583 93.1989 27.2049 93.1989C27.6083 93.1989 27.9705 93.1335 28.2915 93.0028C28.6126 92.8693 28.8668 92.6847 29.0543 92.4489C29.2418 92.2102 29.3356 91.9318 29.3356 91.6136C29.3356 91.3239 29.2546 91.0881 29.0927 90.9062C28.9308 90.7244 28.7177 90.5767 28.4535 90.4631C28.1893 90.3494 27.9038 90.25 27.5969 90.1648L26.5231 89.858C25.8413 89.6619 25.3015 89.3821 24.9038 89.0185C24.506 88.6548 24.3072 88.179 24.3072 87.5909C24.3072 87.1023 24.4393 86.6761 24.7035 86.3125C24.9705 85.946 25.3285 85.6619 25.7773 85.4602C26.229 85.2557 26.7333 85.1534 27.2901 85.1534C27.8526 85.1534 28.3526 85.2543 28.7901 85.456C29.2276 85.6548 29.5742 85.9276 29.8299 86.2741C30.0884 86.6207 30.2248 87.0142 30.239 87.4545H29.2163ZM34.7038 94.1364C34.0732 94.1364 33.5291 93.9972 33.0717 93.7188C32.6172 93.4375 32.2663 93.0455 32.0192 92.5426C31.7749 92.0369 31.6527 91.4489 31.6527 90.7784C31.6527 90.108 31.7749 89.517 32.0192 89.0057C32.2663 88.4915 32.6101 88.0909 33.0504 87.804C33.4936 87.5142 34.0107 87.3693 34.6016 87.3693C34.9425 87.3693 35.2791 87.4261 35.6115 87.5398C35.9439 87.6534 36.2464 87.8381 36.5192 88.0938C36.7919 88.3466 37.0092 88.6818 37.1712 89.0994C37.3331 89.517 37.4141 90.0312 37.4141 90.642V91.0682H32.3686V90.1989H36.3913C36.3913 89.8295 36.3175 89.5 36.1697 89.2102C36.0249 88.9205 35.8175 88.6918 35.5476 88.5241C35.2805 88.3565 34.9652 88.2727 34.6016 88.2727C34.201 88.2727 33.8544 88.3722 33.5618 88.571C33.272 88.767 33.049 89.0227 32.8928 89.3381C32.7365 89.6534 32.6584 89.9915 32.6584 90.3523V90.9318C32.6584 91.4261 32.7436 91.8452 32.9141 92.1889C33.0874 92.5298 33.3274 92.7898 33.6342 92.9688C33.9411 93.1449 34.2976 93.233 34.7038 93.233C34.968 93.233 35.2067 93.196 35.4197 93.1222C35.6357 93.0455 35.8217 92.9318 35.978 92.7812C36.1342 92.6278 36.255 92.4375 36.3402 92.2102L37.3118 92.483C37.2095 92.8125 37.0376 93.1023 36.7962 93.3523C36.5547 93.5994 36.2564 93.7926 35.9013 93.9318C35.5462 94.0682 35.147 94.1364 34.7038 94.1364ZM43.4098 96.4545V92.9943H43.3246C43.2507 93.1136 43.1456 93.2642 43.0092 93.446C42.8729 93.625 42.6783 93.7855 42.4254 93.9276C42.1726 94.0668 41.8359 94.1364 41.4155 94.1364C40.87 94.1364 40.3885 93.9986 39.9709 93.723C39.5533 93.4446 39.2266 93.0526 38.9908 92.5469C38.755 92.0384 38.6371 91.4375 38.6371 90.7443C38.6371 90.0568 38.755 89.4602 38.9908 88.9545C39.2266 88.4489 39.5547 88.0582 39.9751 87.7827C40.3956 87.5071 40.8814 87.3693 41.4325 87.3693C41.8587 87.3693 42.1953 87.4403 42.4425 87.5824C42.6925 87.7216 42.8828 87.8807 43.0135 88.0597C43.147 88.2358 43.2507 88.3807 43.3246 88.4943H43.4439V87.4545H44.4155V96.4545H43.4098ZM41.5518 93.233C41.9553 93.233 42.2962 93.1278 42.5746 92.9176C42.853 92.7045 43.0646 92.4105 43.2095 92.0355C43.3544 91.6577 43.4268 91.2216 43.4268 90.7273C43.4268 90.2386 43.3558 89.8111 43.2138 89.4446C43.0717 89.0753 42.8615 88.7884 42.5831 88.5838C42.3047 88.3764 41.9609 88.2727 41.5518 88.2727C41.1257 88.2727 40.7706 88.3821 40.4865 88.6009C40.2053 88.8168 39.9936 89.1108 39.8516 89.483C39.7124 89.8523 39.6428 90.267 39.6428 90.7273C39.6428 91.1932 39.7138 91.6165 39.8558 91.9972C40.0007 92.375 40.2138 92.6761 40.495 92.9006C40.7791 93.1222 41.1314 93.233 41.5518 93.233ZM50.3814 91.3239V87.4545H51.3871V94H50.3814V92.892H50.3132C50.1598 93.2244 49.9212 93.5071 49.5973 93.7401C49.2734 93.9702 48.8643 94.0852 48.37 94.0852C47.9609 94.0852 47.5973 93.9957 47.2791 93.8168C46.9609 93.6349 46.7109 93.3622 46.5291 92.9986C46.3473 92.6321 46.2564 92.1705 46.2564 91.6136V87.4545H47.2621V91.5455C47.2621 92.0227 47.3956 92.4034 47.6626 92.6875C47.9325 92.9716 48.2763 93.1136 48.6939 93.1136C48.9439 93.1136 49.1982 93.0497 49.4567 92.9219C49.718 92.794 49.9368 92.598 50.1129 92.3338C50.2919 92.0696 50.3814 91.733 50.3814 91.3239ZM55.9734 94.1364C55.3427 94.1364 54.7987 93.9972 54.3413 93.7188C53.8867 93.4375 53.5359 93.0455 53.2887 92.5426C53.0444 92.0369 52.9222 91.4489 52.9222 90.7784C52.9222 90.108 53.0444 89.517 53.2887 89.0057C53.5359 88.4915 53.8796 88.0909 54.32 87.804C54.7631 87.5142 55.2802 87.3693 55.8711 87.3693C56.212 87.3693 56.5487 87.4261 56.881 87.5398C57.2134 87.6534 57.516 87.8381 57.7887 88.0938C58.0614 88.3466 58.2788 88.6818 58.4407 89.0994C58.6026 89.517 58.6836 90.0312 58.6836 90.642V91.0682H53.6381V90.1989H57.6609C57.6609 89.8295 57.587 89.5 57.4393 89.2102C57.2944 88.9205 57.087 88.6918 56.8171 88.5241C56.5501 88.3565 56.2347 88.2727 55.8711 88.2727C55.4705 88.2727 55.1239 88.3722 54.8313 88.571C54.5415 88.767 54.3185 89.0227 54.1623 89.3381C54.006 89.6534 53.9279 89.9915 53.9279 90.3523V90.9318C53.9279 91.4261 54.0131 91.8452 54.1836 92.1889C54.3569 92.5298 54.5969 92.7898 54.9038 92.9688C55.2106 93.1449 55.5671 93.233 55.9734 93.233C56.2376 93.233 56.4762 93.196 56.6893 93.1222C56.9052 93.0455 57.0913 92.9318 57.2475 92.7812C57.4038 92.6278 57.5245 92.4375 57.6097 92.2102L58.5813 92.483C58.479 92.8125 58.3072 93.1023 58.0657 93.3523C57.8242 93.5994 57.5259 93.7926 57.1708 93.9318C56.8157 94.0682 56.4165 94.1364 55.9734 94.1364ZM61.2191 90.0625V94H60.2134V87.4545H61.185V88.4773H61.2702C61.4237 88.1449 61.6566 87.8778 61.9691 87.6761C62.2816 87.4716 62.685 87.3693 63.1793 87.3693C63.6225 87.3693 64.0103 87.4602 64.3427 87.642C64.6751 87.821 64.9336 88.0938 65.1183 88.4602C65.3029 88.8239 65.3952 89.2841 65.3952 89.8409V94H64.3896V89.9091C64.3896 89.3949 64.256 88.9943 63.989 88.7074C63.7219 88.4176 63.3555 88.2727 62.8896 88.2727C62.5685 88.2727 62.2816 88.3423 62.0288 88.4815C61.7788 88.6207 61.5813 88.8239 61.4364 89.0909C61.2915 89.358 61.2191 89.6818 61.2191 90.0625ZM69.892 94.1364C69.2784 94.1364 68.75 93.9915 68.3068 93.7017C67.8636 93.4119 67.5227 93.0128 67.2841 92.5043C67.0455 91.9957 66.9261 91.4148 66.9261 90.7614C66.9261 90.0966 67.0483 89.5099 67.2926 89.0014C67.5398 88.4901 67.8835 88.0909 68.3239 87.804C68.767 87.5142 69.2841 87.3693 69.875 87.3693C70.3352 87.3693 70.75 87.4545 71.1193 87.625C71.4886 87.7955 71.7912 88.0341 72.027 88.3409C72.2628 88.6477 72.4091 89.0057 72.4659 89.4148H71.4602C71.3835 89.1165 71.2131 88.8523 70.9489 88.6222C70.6875 88.3892 70.3352 88.2727 69.892 88.2727C69.5 88.2727 69.1563 88.375 68.8608 88.5795C68.5682 88.7812 68.3395 89.0668 68.1747 89.4361C68.0128 89.8026 67.9318 90.233 67.9318 90.7273C67.9318 91.233 68.0114 91.6733 68.1705 92.0483C68.3324 92.4233 68.5597 92.7145 68.8523 92.9219C69.1477 93.1293 69.4943 93.233 69.892 93.233C70.1534 93.233 70.3906 93.1875 70.6037 93.0966C70.8168 93.0057 70.9972 92.875 71.1449 92.7045C71.2926 92.5341 71.3977 92.3295 71.4602 92.0909H72.4659C72.4091 92.4773 72.2685 92.8253 72.044 93.1349C71.8224 93.4418 71.5284 93.6861 71.1619 93.8679C70.7983 94.0469 70.375 94.1364 69.892 94.1364ZM76.6804 94.1364C76.0497 94.1364 75.5057 93.9972 75.0483 93.7188C74.5938 93.4375 74.2429 93.0455 73.9957 92.5426C73.7514 92.0369 73.6293 91.4489 73.6293 90.7784C73.6293 90.108 73.7514 89.517 73.9957 89.0057C74.2429 88.4915 74.5866 88.0909 75.027 87.804C75.4702 87.5142 75.9872 87.3693 76.5781 87.3693C76.919 87.3693 77.2557 87.4261 77.5881 87.5398C77.9205 87.6534 78.223 87.8381 78.4957 88.0938C78.7685 88.3466 78.9858 88.6818 79.1477 89.0994C79.3097 89.517 79.3906 90.0312 79.3906 90.642V91.0682H74.3452V90.1989H78.3679C78.3679 89.8295 78.294 89.5 78.1463 89.2102C78.0014 88.9205 77.794 88.6918 77.5241 88.5241C77.2571 88.3565 76.9418 88.2727 76.5781 88.2727C76.1776 88.2727 75.831 88.3722 75.5384 88.571C75.2486 88.767 75.0256 89.0227 74.8693 89.3381C74.7131 89.6534 74.6349 89.9915 74.6349 90.3523V90.9318C74.6349 91.4261 74.7202 91.8452 74.8906 92.1889C75.0639 92.5298 75.304 92.7898 75.6108 92.9688C75.9176 93.1449 76.2741 93.233 76.6804 93.233C76.9446 93.233 77.1832 93.196 77.3963 93.1222C77.6122 93.0455 77.7983 92.9318 77.9545 92.7812C78.1108 92.6278 78.2315 92.4375 78.3168 92.2102L79.2884 92.483C79.1861 92.8125 79.0142 93.1023 78.7727 93.3523C78.5313 93.5994 78.233 93.7926 77.8778 93.9318C77.5227 94.0682 77.1236 94.1364 76.6804 94.1364Z" fill="#505050"/>
<path d="M112.274 16.2727V25H111.217V16.2727H112.274ZM115.262 21.0625V25H114.256V18.4545H115.228V19.4773H115.313C115.467 19.1449 115.7 18.8778 116.012 18.6761C116.325 18.4716 116.728 18.3693 117.222 18.3693C117.665 18.3693 118.053 18.4602 118.386 18.642C118.718 18.821 118.977 19.0938 119.161 19.4602C119.346 19.8239 119.438 20.2841 119.438 20.8409V25H118.433V20.9091C118.433 20.3949 118.299 19.9943 118.032 19.7074C117.765 19.4176 117.398 19.2727 116.933 19.2727C116.612 19.2727 116.325 19.3423 116.072 19.4815C115.822 19.6207 115.624 19.8239 115.479 20.0909C115.335 20.358 115.262 20.6818 115.262 21.0625ZM121.276 27.4545V18.4545H122.248V19.4943H122.367C122.441 19.3807 122.543 19.2358 122.674 19.0597C122.807 18.8807 122.998 18.7216 123.245 18.5824C123.495 18.4403 123.833 18.3693 124.259 18.3693C124.81 18.3693 125.296 18.5071 125.716 18.7827C126.137 19.0582 126.465 19.4489 126.701 19.9545C126.936 20.4602 127.054 21.0568 127.054 21.7443C127.054 22.4375 126.936 23.0384 126.701 23.5469C126.465 24.0526 126.138 24.4446 125.721 24.723C125.303 24.9986 124.821 25.1364 124.276 25.1364C123.855 25.1364 123.519 25.0668 123.266 24.9276C123.013 24.7855 122.819 24.625 122.682 24.446C122.546 24.2642 122.441 24.1136 122.367 23.9943H122.282V27.4545H121.276ZM122.265 21.7273C122.265 22.2216 122.337 22.6577 122.482 23.0355C122.627 23.4105 122.838 23.7045 123.117 23.9176C123.395 24.1278 123.736 24.233 124.14 24.233C124.56 24.233 124.911 24.1222 125.192 23.9006C125.476 23.6761 125.689 23.375 125.831 22.9972C125.976 22.6165 126.049 22.1932 126.049 21.7273C126.049 21.267 125.978 20.8523 125.836 20.483C125.696 20.1108 125.485 19.8168 125.201 19.6009C124.919 19.3821 124.566 19.2727 124.14 19.2727C123.73 19.2727 123.387 19.3764 123.108 19.5838C122.83 19.7884 122.62 20.0753 122.478 20.4446C122.336 20.8111 122.265 21.2386 122.265 21.7273ZM132.713 22.3239V18.4545H133.719V25H132.713V23.892H132.645C132.492 24.2244 132.253 24.5071 131.929 24.7401C131.605 24.9702 131.196 25.0852 130.702 25.0852C130.293 25.0852 129.929 24.9957 129.611 24.8168C129.293 24.6349 129.043 24.3622 128.861 23.9986C128.679 23.6321 128.588 23.1705 128.588 22.6136V18.4545H129.594V22.5455C129.594 23.0227 129.728 23.4034 129.995 23.6875C130.265 23.9716 130.608 24.1136 131.026 24.1136C131.276 24.1136 131.53 24.0497 131.789 23.9219C132.05 23.794 132.269 23.598 132.445 23.3338C132.624 23.0696 132.713 22.733 132.713 22.3239ZM138.408 18.4545V19.3068H135.016V18.4545H138.408ZM136.004 16.8864H137.01V23.125C137.01 23.4091 137.051 23.6222 137.134 23.7642C137.219 23.9034 137.327 23.9972 137.457 24.0455C137.591 24.0909 137.732 24.1136 137.879 24.1136C137.99 24.1136 138.081 24.108 138.152 24.0966C138.223 24.0824 138.28 24.071 138.322 24.0625L138.527 24.9659C138.459 24.9915 138.364 25.017 138.241 25.0426C138.119 25.071 137.964 25.0852 137.777 25.0852C137.493 25.0852 137.214 25.0241 136.942 24.902C136.672 24.7798 136.447 24.5938 136.268 24.3438C136.092 24.0938 136.004 23.7784 136.004 23.3977V16.8864Z" fill="#505050"/>
<path d="M229 64L234.774 54L223.226 54L229 64ZM228 40L228 55L230 55L230 40L228 40Z" fill="#DDDDDD"/>
<path d="M351.649 28.794V27.2727H358.816V28.794H356.145V36H354.321V28.794H351.649ZM361.971 36.1278C361.309 36.1278 360.737 35.9872 360.254 35.706C359.773 35.4219 359.403 35.027 359.141 34.5213C358.88 34.0128 358.749 33.4233 358.749 32.7528C358.749 32.0767 358.88 31.4858 359.141 30.9801C359.403 30.4716 359.773 30.0767 360.254 29.7955C360.737 29.5114 361.309 29.3693 361.971 29.3693C362.633 29.3693 363.204 29.5114 363.684 29.7955C364.167 30.0767 364.539 30.4716 364.8 30.9801C365.062 31.4858 365.192 32.0767 365.192 32.7528C365.192 33.4233 365.062 34.0128 364.8 34.5213C364.539 35.027 364.167 35.4219 363.684 35.706C363.204 35.9872 362.633 36.1278 361.971 36.1278ZM361.979 34.7216C362.281 34.7216 362.532 34.6364 362.734 34.4659C362.935 34.2926 363.087 34.0568 363.19 33.7585C363.295 33.4602 363.347 33.1207 363.347 32.7401C363.347 32.3594 363.295 32.0199 363.19 31.7216C363.087 31.4233 362.935 31.1875 362.734 31.0142C362.532 30.8409 362.281 30.7543 361.979 30.7543C361.675 30.7543 361.42 30.8409 361.212 31.0142C361.008 31.1875 360.853 31.4233 360.748 31.7216C360.646 32.0199 360.594 32.3594 360.594 32.7401C360.594 33.1207 360.646 33.4602 360.748 33.7585C360.853 34.0568 361.008 34.2926 361.212 34.4659C361.42 34.6364 361.675 34.7216 361.979 34.7216ZM368.018 34.1165L368.022 31.9389H368.286L370.383 29.4545H372.467L369.65 32.7443H369.219L368.018 34.1165ZM366.373 36V27.2727H368.188V36H366.373ZM370.464 36L368.538 33.1491L369.748 31.8665L372.59 36H370.464ZM376.071 36.1278C375.397 36.1278 374.818 35.9915 374.332 35.7188C373.849 35.4432 373.477 35.054 373.216 34.5511C372.954 34.0455 372.824 33.4474 372.824 32.7571C372.824 32.0838 372.954 31.4929 373.216 30.9844C373.477 30.4759 373.845 30.0795 374.319 29.7955C374.797 29.5114 375.356 29.3693 375.998 29.3693C376.43 29.3693 376.832 29.4389 377.204 29.5781C377.579 29.7145 377.906 29.9205 378.184 30.196C378.466 30.4716 378.684 30.8182 378.841 31.2358C378.997 31.6506 379.075 32.1364 379.075 32.6932V33.1918H373.548V32.0668H377.366C377.366 31.8054 377.309 31.5739 377.196 31.3722C377.082 31.1705 376.924 31.0128 376.723 30.8991C376.524 30.7827 376.292 30.7244 376.028 30.7244C375.752 30.7244 375.508 30.7884 375.295 30.9162C375.085 31.0412 374.92 31.2102 374.801 31.4233C374.681 31.6335 374.62 31.8679 374.618 32.1264V33.196C374.618 33.5199 374.677 33.7997 374.797 34.0355C374.919 34.2713 375.091 34.4531 375.312 34.581C375.534 34.7088 375.797 34.7727 376.1 34.7727C376.302 34.7727 376.487 34.7443 376.654 34.6875C376.822 34.6307 376.966 34.5455 377.085 34.4318C377.204 34.3182 377.295 34.179 377.358 34.0142L379.037 34.125C378.951 34.5284 378.777 34.8807 378.512 35.1818C378.251 35.4801 377.913 35.7131 377.498 35.8807C377.086 36.0455 376.61 36.1278 376.071 36.1278ZM382.075 32.2159V36H380.26V29.4545H381.99V30.6094H382.066C382.211 30.2287 382.454 29.9276 382.795 29.706C383.136 29.4815 383.549 29.3693 384.035 29.3693C384.49 29.3693 384.886 29.4688 385.224 29.6676C385.562 29.8665 385.825 30.1506 386.012 30.5199C386.2 30.8864 386.294 31.3239 386.294 31.8324V36H384.478V32.1562C384.481 31.7557 384.379 31.4432 384.172 31.2188C383.964 30.9915 383.679 30.8778 383.315 30.8778C383.071 30.8778 382.855 30.9304 382.667 31.0355C382.483 31.1406 382.338 31.294 382.233 31.4957C382.13 31.6946 382.078 31.9347 382.075 32.2159Z" fill="#505050"/>
<path d="M353 64L362.636 57.6377L352.308 52.4737L353 64ZM364.106 39.5528L356.13 55.5029L357.919 56.3974L365.894 40.4472L364.106 39.5528Z" fill="#DDDDDD"/>
</g>
<defs>
<clipPath id="clip0_7_645">
<rect width="444" height="136" fill="white"/>
</clipPath>
</defs>
</svg>
