<svg width="1550" height="294" viewBox="0 0 1550 294" fill="none" xmlns="http://www.w3.org/2000/svg">
<g clip-path="url(#clip0_137_582)">
<rect width="1550" height="294" fill="white"/>
<path d="M558.604 273V214.818H581.899C586.179 214.818 589.75 215.453 592.609 216.722C595.469 217.991 597.619 219.752 599.058 222.006C600.498 224.241 601.217 226.816 601.217 229.733C601.217 232.006 600.763 234.004 599.854 235.727C598.945 237.432 597.695 238.833 596.104 239.932C594.532 241.011 592.732 241.778 590.706 242.233V242.801C592.922 242.896 594.996 243.521 596.928 244.676C598.878 245.831 600.46 247.451 601.672 249.534C602.884 251.598 603.49 254.061 603.49 256.92C603.49 260.008 602.723 262.763 601.189 265.188C599.674 267.593 597.429 269.496 594.456 270.898C591.482 272.299 587.818 273 583.462 273H558.604ZM570.905 262.943H580.933C584.361 262.943 586.861 262.29 588.433 260.983C590.005 259.657 590.791 257.896 590.791 255.699C590.791 254.089 590.403 252.669 589.626 251.438C588.85 250.206 587.742 249.241 586.303 248.54C584.882 247.839 583.187 247.489 581.217 247.489H570.905V262.943ZM570.905 239.165H580.024C581.71 239.165 583.206 238.871 584.513 238.284C585.839 237.678 586.88 236.826 587.638 235.727C588.414 234.629 588.803 233.312 588.803 231.778C588.803 229.676 588.054 227.981 586.558 226.693C585.081 225.405 582.979 224.761 580.251 224.761H570.905V239.165ZM1459.62 273V214.818H1482.91C1487.2 214.818 1490.77 215.453 1493.62 216.722C1496.48 217.991 1498.63 219.752 1500.07 222.006C1501.51 224.241 1502.23 226.816 1502.23 229.733C1502.23 232.006 1501.78 234.004 1500.87 235.727C1499.96 237.432 1498.71 238.833 1497.12 239.932C1495.55 241.011 1493.75 241.778 1491.72 242.233V242.801C1493.94 242.896 1496.01 243.521 1497.94 244.676C1499.89 245.831 1501.48 247.451 1502.69 249.534C1503.9 251.598 1504.51 254.061 1504.51 256.92C1504.51 260.008 1503.74 262.763 1502.2 265.188C1500.69 267.593 1498.45 269.496 1495.47 270.898C1492.5 272.299 1488.83 273 1484.48 273H1459.62ZM1471.92 262.943H1481.95C1485.38 262.943 1487.88 262.29 1489.45 260.983C1491.02 259.657 1491.81 257.896 1491.81 255.699C1491.81 254.089 1491.42 252.669 1490.64 251.438C1489.87 250.206 1488.76 249.241 1487.32 248.54C1485.9 247.839 1484.2 247.489 1482.23 247.489H1471.92V262.943ZM1471.92 239.165H1481.04C1482.73 239.165 1484.22 238.871 1485.53 238.284C1486.85 237.678 1487.9 236.826 1488.65 235.727C1489.43 234.629 1489.82 233.312 1489.82 231.778C1489.82 229.676 1489.07 227.981 1487.57 226.693C1486.1 225.405 1483.99 224.761 1481.27 224.761H1471.92V239.165Z" fill="#4B9745"/>
<path d="M633.817 244.932V238.795H668.817V244.932H633.817ZM633.817 261.75V255.614H668.817V261.75H633.817ZM704.726 243.909C704.726 236.75 705.654 230.169 707.51 224.165C709.385 218.142 712.055 212.602 715.521 207.545H721.43C720.067 209.42 718.788 211.731 717.595 214.477C716.421 217.205 715.389 220.206 714.499 223.483C713.608 226.741 712.908 230.112 712.396 233.597C711.904 237.081 711.658 240.519 711.658 243.909C711.658 248.417 712.093 252.991 712.964 257.631C713.836 262.271 715.01 266.58 716.487 270.557C717.964 274.534 719.612 277.773 721.43 280.273H715.521C712.055 275.216 709.385 269.686 707.51 263.682C705.654 257.659 704.726 251.068 704.726 243.909ZM727.233 273L748.597 214.818H755.869L777.233 273H727.233ZM736.892 266.75H767.574L752.46 224.023H752.006L736.892 266.75ZM859.548 248.455C859.548 255.614 858.611 262.205 856.736 268.227C854.88 274.231 852.219 279.761 848.753 284.818H842.844C844.207 282.943 845.476 280.633 846.651 277.886C847.844 275.159 848.885 272.167 849.776 268.909C850.666 265.633 851.357 262.252 851.849 258.767C852.361 255.263 852.616 251.826 852.616 248.455C852.616 243.947 852.181 239.373 851.31 234.733C850.438 230.093 849.264 225.784 847.787 221.807C846.31 217.83 844.662 214.591 842.844 212.091H848.753C852.219 217.148 854.88 222.687 856.736 228.71C858.611 234.714 859.548 241.295 859.548 248.455ZM913.632 248.455C913.632 241.295 914.56 234.714 916.416 228.71C918.291 222.687 920.962 217.148 924.428 212.091H930.337C928.973 213.966 927.695 216.277 926.501 219.023C925.327 221.75 924.295 224.752 923.405 228.028C922.515 231.286 921.814 234.657 921.303 238.142C920.81 241.627 920.564 245.064 920.564 248.455C920.564 252.962 921 257.536 921.871 262.176C922.742 266.816 923.916 271.125 925.393 275.102C926.871 279.08 928.518 282.318 930.337 284.818H924.428C920.962 279.761 918.291 274.231 916.416 268.227C914.56 262.205 913.632 255.614 913.632 248.455ZM957.588 273.909C953.384 273.909 949.757 272.981 946.707 271.125C943.677 269.25 941.338 266.636 939.69 263.284C938.062 259.913 937.247 255.992 937.247 251.523C937.247 247.053 938.062 243.114 939.69 239.705C941.338 236.277 943.63 233.606 946.565 231.693C949.52 229.761 952.967 228.795 956.906 228.795C959.179 228.795 961.423 229.174 963.639 229.932C965.855 230.689 967.872 231.92 969.69 233.625C971.509 235.311 972.957 237.545 974.037 240.33C975.116 243.114 975.656 246.542 975.656 250.614V253.455H942.02V247.659H968.838C968.838 245.197 968.346 243 967.361 241.068C966.395 239.136 965.012 237.612 963.213 236.494C961.433 235.377 959.33 234.818 956.906 234.818C954.236 234.818 951.925 235.481 949.974 236.807C948.043 238.114 946.556 239.818 945.514 241.92C944.473 244.023 943.952 246.277 943.952 248.682V252.545C943.952 255.841 944.52 258.634 945.656 260.926C946.812 263.199 948.412 264.932 950.457 266.125C952.503 267.299 954.88 267.886 957.588 267.886C959.349 267.886 960.94 267.64 962.361 267.148C963.8 266.636 965.041 265.879 966.082 264.875C967.124 263.852 967.929 262.583 968.497 261.068L974.974 262.886C974.293 265.083 973.147 267.015 971.537 268.682C969.927 270.33 967.938 271.617 965.571 272.545C963.204 273.455 960.543 273.909 957.588 273.909ZM989.683 229.364L1000.14 247.205L1010.59 229.364H1018.32L1004.23 251.182L1018.32 273H1010.59L1000.14 256.068L989.683 273H981.956L995.82 251.182L981.956 229.364H989.683ZM1027.89 289.364V229.364H1034.36V236.295H1035.16C1035.65 235.538 1036.33 234.572 1037.2 233.398C1038.09 232.205 1039.36 231.144 1041.01 230.216C1042.68 229.269 1044.93 228.795 1047.77 228.795C1051.45 228.795 1054.69 229.714 1057.49 231.551C1060.29 233.388 1062.48 235.992 1064.05 239.364C1065.62 242.735 1066.41 246.712 1066.41 251.295C1066.41 255.917 1065.62 259.922 1064.05 263.312C1062.48 266.684 1060.3 269.297 1057.52 271.153C1054.73 272.991 1051.52 273.909 1047.89 273.909C1045.08 273.909 1042.84 273.445 1041.15 272.517C1039.47 271.57 1038.17 270.5 1037.26 269.307C1036.35 268.095 1035.65 267.091 1035.16 266.295H1034.59V289.364H1027.89ZM1034.48 251.182C1034.48 254.477 1034.96 257.384 1035.93 259.903C1036.89 262.403 1038.3 264.364 1040.16 265.784C1042.02 267.186 1044.29 267.886 1046.98 267.886C1049.78 267.886 1052.12 267.148 1053.99 265.67C1055.89 264.174 1057.31 262.167 1058.26 259.648C1059.22 257.11 1059.7 254.288 1059.7 251.182C1059.7 248.114 1059.23 245.348 1058.28 242.886C1057.36 240.405 1055.95 238.445 1054.05 237.006C1052.18 235.547 1049.82 234.818 1046.98 234.818C1044.25 234.818 1041.96 235.509 1040.1 236.892C1038.25 238.256 1036.84 240.169 1035.9 242.631C1034.95 245.074 1034.48 247.924 1034.48 251.182ZM1079.02 248.455C1079.02 241.295 1079.95 234.714 1081.81 228.71C1083.68 222.687 1086.35 217.148 1089.82 212.091H1095.73C1094.36 213.966 1093.09 216.277 1091.89 219.023C1090.72 221.75 1089.69 224.752 1088.8 228.028C1087.91 231.286 1087.2 234.657 1086.69 238.142C1086.2 241.627 1085.95 245.064 1085.95 248.455C1085.95 252.962 1086.39 257.536 1087.26 262.176C1088.13 266.816 1089.31 271.125 1090.78 275.102C1092.26 279.08 1093.91 282.318 1095.73 284.818H1089.82C1086.35 279.761 1083.68 274.231 1081.81 268.227C1079.95 262.205 1079.02 255.614 1079.02 248.455ZM1101.53 273L1122.89 214.818H1130.17L1151.53 273H1101.53ZM1111.19 266.75H1141.87L1126.76 224.023H1126.3L1111.19 266.75ZM1233.85 248.455C1233.85 255.614 1232.91 262.205 1231.03 268.227C1229.18 274.231 1226.52 279.761 1223.05 284.818H1217.14C1218.5 282.943 1219.77 280.633 1220.95 277.886C1222.14 275.159 1223.18 272.167 1224.07 268.909C1224.96 265.633 1225.65 262.252 1226.15 258.767C1226.66 255.263 1226.91 251.826 1226.91 248.455C1226.91 243.947 1226.48 239.373 1225.61 234.733C1224.74 230.093 1223.56 225.784 1222.08 221.807C1220.61 217.83 1218.96 214.591 1217.14 212.091H1223.05C1226.52 217.148 1229.18 222.687 1231.03 228.71C1232.91 234.714 1233.85 241.295 1233.85 248.455ZM1273.51 244.932V251.182H1248.06V244.932H1273.51ZM1310.71 220.84L1311.11 218.6H1333.03L1332.63 220.84L1328.15 221.4C1327.3 221.507 1326.74 221.747 1326.47 222.12C1326.26 222.44 1325.99 223.507 1325.67 225.32L1318.47 266.28C1318.15 268.093 1318.05 269.187 1318.15 269.56C1318.26 269.88 1318.71 270.093 1319.51 270.2L1323.83 270.76L1323.43 273H1301.51L1301.91 270.76L1306.39 270.2C1307.3 270.093 1307.86 269.88 1308.07 269.56C1308.29 269.187 1308.55 268.093 1308.87 266.28L1316.07 225.32C1316.39 223.507 1316.5 222.44 1316.39 222.12C1316.29 221.747 1315.83 221.507 1315.03 221.4L1310.71 220.84ZM1351.41 248.455C1350.22 255.614 1348.19 262.205 1345.33 268.227C1342.49 274.231 1338.91 279.761 1334.59 284.818H1328.68C1330.37 282.943 1332.02 280.633 1333.65 277.886C1335.28 275.159 1336.81 272.167 1338.23 268.909C1339.67 265.633 1340.93 262.252 1342.01 258.767C1343.09 255.263 1343.91 251.826 1344.48 248.455C1345.23 243.947 1345.56 239.373 1345.44 234.733C1345.35 230.093 1344.88 225.784 1344.05 221.807C1343.24 217.83 1342.13 214.591 1340.73 212.091H1346.64C1349.25 217.148 1350.99 222.687 1351.86 228.71C1352.75 234.714 1352.6 241.295 1351.41 248.455ZM1402.55 273L1423.91 214.818H1431.18L1452.55 273H1402.55ZM1412.2 266.75H1442.89L1427.77 224.023H1427.32L1412.2 266.75Z" fill="#555555"/>
<path d="M794.335 273H781.153L801.239 214.818H817.091L837.148 273H823.966L809.392 228.114H808.938L794.335 273ZM793.511 250.131H824.648V259.733H793.511V250.131ZM1168.63 273H1155.45L1175.54 214.818H1191.39L1211.44 273H1198.26L1183.69 228.114H1183.23L1168.63 273ZM1167.81 250.131H1198.94V259.733H1167.81V250.131Z" fill="#978545"/>
<path d="M879.572 205.892V209.017H866.845V205.892H879.572ZM895.641 192.909V222H892.118V196.602H891.948L884.846 201.318V197.739L892.118 192.909H895.641Z" fill="#555555"/>
<line x1="558" y1="198" x2="601" y2="198" stroke="#4B9745" stroke-width="4"/>
<circle cx="1374" cy="245" r="5" fill="#555555"/>
<path d="M560.171 86H546.989L567.075 27.8182H582.927L602.984 86H589.802L575.228 41.1136H574.773L560.171 86ZM559.347 63.1307H590.484V72.733H559.347V63.1307ZM930.171 86H916.989L937.075 27.8182H952.927L972.984 86H959.802L945.228 41.1136H944.773L930.171 86ZM929.347 63.1307H960.484V72.733H929.347V63.1307Z" fill="#978545"/>
<path d="M632.309 57.9318V51.7955H667.309V57.9318H632.309ZM632.309 74.75V68.6136H667.309V74.75H632.309ZM719.127 86.9091C714.923 86.9091 711.296 85.9811 708.246 84.125C705.216 82.25 702.877 79.6364 701.229 76.2841C699.601 72.9129 698.786 68.9924 698.786 64.5227C698.786 60.053 699.601 56.1136 701.229 52.7045C702.877 49.2765 705.169 46.6061 708.104 44.6932C711.059 42.7614 714.506 41.7955 718.445 41.7955C720.718 41.7955 722.962 42.1742 725.178 42.9318C727.394 43.6894 729.411 44.9205 731.229 46.625C733.048 48.3106 734.496 50.5455 735.576 53.3295C736.656 56.1136 737.195 59.5417 737.195 63.6136V66.4545H703.559V60.6591H730.377C730.377 58.197 729.885 56 728.9 54.0682C727.934 52.1364 726.551 50.6117 724.752 49.4943C722.972 48.3769 720.87 47.8182 718.445 47.8182C715.775 47.8182 713.464 48.4811 711.513 49.8068C709.582 51.1136 708.095 52.8182 707.053 54.9205C706.012 57.0227 705.491 59.2765 705.491 61.6818V65.5455C705.491 68.8409 706.059 71.6345 707.195 73.9261C708.351 76.1989 709.951 77.9318 711.996 79.125C714.042 80.2992 716.419 80.8864 719.127 80.8864C720.888 80.8864 722.479 80.6402 723.9 80.1477C725.339 79.6364 726.58 78.8788 727.621 77.875C728.663 76.8523 729.468 75.5833 730.036 74.0682L736.513 75.8864C735.832 78.0833 734.686 80.0152 733.076 81.6818C731.466 83.3295 729.478 84.6174 727.11 85.5455C724.743 86.4545 722.082 86.9091 719.127 86.9091ZM751.222 42.3636L761.677 60.2045L772.131 42.3636H779.859L765.768 64.1818L779.859 86H772.131L761.677 69.0682L751.222 86H743.495L757.359 64.1818L743.495 42.3636H751.222ZM789.425 102.364V42.3636H795.903V49.2955H796.698C797.191 48.5379 797.872 47.572 798.744 46.3977C799.634 45.2045 800.903 44.1439 802.55 43.2159C804.217 42.2689 806.471 41.7955 809.312 41.7955C812.986 41.7955 816.225 42.714 819.028 44.5511C821.831 46.3883 824.018 48.9924 825.59 52.3636C827.162 55.7348 827.948 59.7121 827.948 64.2955C827.948 68.9167 827.162 72.9223 825.59 76.3125C824.018 79.6837 821.84 82.2973 819.056 84.1534C816.272 85.9905 813.062 86.9091 809.425 86.9091C806.622 86.9091 804.378 86.4451 802.692 85.517C801.007 84.5701 799.71 83.5 798.8 82.3068C797.891 81.0947 797.191 80.0909 796.698 79.2955H796.13V102.364H789.425ZM796.016 64.1818C796.016 67.4773 796.499 70.3845 797.465 72.9034C798.431 75.4034 799.842 77.3636 801.698 78.7841C803.554 80.1856 805.827 80.8864 808.516 80.8864C811.319 80.8864 813.658 80.1477 815.533 78.6705C817.427 77.1742 818.848 75.1667 819.795 72.6477C820.761 70.1098 821.244 67.2879 821.244 64.1818C821.244 61.1136 820.77 58.3485 819.823 55.8864C818.895 53.4053 817.484 51.4451 815.59 50.0057C813.715 48.5473 811.357 47.8182 808.516 47.8182C805.789 47.8182 803.497 48.5095 801.641 49.892C799.785 51.2557 798.384 53.1686 797.437 55.6307C796.49 58.0739 796.016 60.9242 796.016 64.1818ZM840.562 61.4545C840.562 54.2955 841.49 47.714 843.346 41.7102C845.221 35.6875 847.891 30.1477 851.357 25.0909H857.266C855.903 26.9659 854.624 29.2765 853.431 32.0227C852.257 34.75 851.225 37.7519 850.335 41.0284C849.444 44.286 848.744 47.6572 848.232 51.142C847.74 54.6269 847.494 58.0644 847.494 61.4545C847.494 65.9621 847.929 70.536 848.8 75.1761C849.672 79.8163 850.846 84.125 852.323 88.1023C853.8 92.0795 855.448 95.3182 857.266 97.8182H851.357C847.891 92.7614 845.221 87.2311 843.346 81.2273C841.49 75.2045 840.562 68.6136 840.562 61.4545ZM863.069 86L884.433 27.8182H891.705L913.069 86H863.069ZM872.728 79.75H903.41L888.296 37.0227H887.842L872.728 79.75ZM995.384 61.4545C995.384 68.6136 994.447 75.2045 992.572 81.2273C990.716 87.2311 988.055 92.7614 984.589 97.8182H978.68C980.043 95.9432 981.312 93.6326 982.487 90.8864C983.68 88.1591 984.721 85.1667 985.612 81.9091C986.502 78.6326 987.193 75.2519 987.685 71.767C988.197 68.2633 988.452 64.8258 988.452 61.4545C988.452 56.947 988.017 52.3731 987.146 47.733C986.274 43.0928 985.1 38.7841 983.623 34.8068C982.146 30.8295 980.498 27.5909 978.68 25.0909H984.589C988.055 30.1477 990.716 35.6875 992.572 41.7102C994.447 47.714 995.384 54.2955 995.384 61.4545Z" fill="#555555"/>
<line x1="549" y1="12" x2="597" y2="12" stroke="#978545" stroke-width="4"/>
<path d="M36.1777 70H28.0982V43.8182H36.5357C39.0755 43.8182 41.2488 44.3423 43.0556 45.3906C44.8624 46.4304 46.2473 47.9261 47.2104 49.8778C48.1735 51.821 48.655 54.1477 48.655 56.858C48.655 59.5852 48.1692 61.9332 47.1976 63.902C46.226 65.8622 44.8113 67.3707 42.9533 68.4276C41.0953 69.4759 38.8368 70 36.1777 70ZM31.2686 67.1875H35.9732C38.138 67.1875 39.932 66.7699 41.3553 65.9347C42.7786 65.0994 43.8397 63.9105 44.5385 62.3679C45.2374 60.8253 45.5868 58.9886 45.5868 56.858C45.5868 54.7443 45.2417 52.9247 44.5513 51.3991C43.861 49.8651 42.8297 48.6889 41.4576 47.8707C40.0854 47.044 38.3766 46.6307 36.3311 46.6307H31.2686V67.1875ZM53.5641 70V50.3636H56.5811V70H53.5641ZM55.0982 47.0909C54.5101 47.0909 54.003 46.8906 53.5769 46.4901C53.1593 46.0895 52.9505 45.608 52.9505 45.0455C52.9505 44.483 53.1593 44.0014 53.5769 43.6009C54.003 43.2003 54.5101 43 55.0982 43C55.6863 43 56.1891 43.2003 56.6067 43.6009C57.0328 44.0014 57.2459 44.483 57.2459 45.0455C57.2459 45.608 57.0328 46.0895 56.6067 46.4901C56.1891 46.8906 55.6863 47.0909 55.0982 47.0909ZM76.0162 54.7614L73.3059 55.5284C73.1355 55.0767 72.8841 54.6378 72.5517 54.2116C72.2278 53.777 71.7846 53.419 71.2221 53.1378C70.6596 52.8565 69.9395 52.7159 69.0616 52.7159C67.8599 52.7159 66.8585 52.9929 66.0574 53.5469C65.2647 54.0923 64.8684 54.7869 64.8684 55.6307C64.8684 56.3807 65.1412 56.973 65.6866 57.4077C66.2321 57.8423 67.0843 58.2045 68.2434 58.4943L71.1582 59.2102C72.9139 59.6364 74.2221 60.2884 75.0829 61.1662C75.9437 62.0355 76.3741 63.1562 76.3741 64.5284C76.3741 65.6534 76.0502 66.6591 75.4025 67.5455C74.7633 68.4318 73.8684 69.1307 72.7179 69.642C71.5673 70.1534 70.2292 70.4091 68.7037 70.4091C66.7008 70.4091 65.0431 69.9744 63.7306 69.1051C62.4181 68.2358 61.5872 66.9659 61.2377 65.2955L64.1014 64.5795C64.3741 65.6364 64.8897 66.429 65.6483 66.9574C66.4153 67.4858 67.4167 67.75 68.6525 67.75C70.0588 67.75 71.1752 67.4517 72.002 66.8551C72.8372 66.25 73.2548 65.5256 73.2548 64.6818C73.2548 64 73.0162 63.429 72.5389 62.9688C72.0616 62.5 71.3287 62.1506 70.34 61.9205L67.0673 61.1534C65.269 60.7273 63.948 60.0668 63.1042 59.1719C62.269 58.2685 61.8514 57.1392 61.8514 55.7841C61.8514 54.6761 62.1625 53.696 62.7846 52.8438C63.4153 51.9915 64.2718 51.3224 65.3542 50.8366C66.4451 50.3509 67.6809 50.108 69.0616 50.108C71.0048 50.108 72.5304 50.5341 73.6383 51.3864C74.7548 52.2386 75.5474 53.3636 76.0162 54.7614ZM88.8929 70.4091C87.052 70.4091 85.4668 69.9744 84.1373 69.1051C82.8077 68.2358 81.785 67.0384 81.0691 65.5128C80.3532 63.9872 79.9952 62.2443 79.9952 60.2841C79.9952 58.2898 80.3617 56.5298 81.0946 55.0043C81.8361 53.4702 82.8674 52.2727 84.1884 51.4119C85.5179 50.5426 87.0691 50.108 88.8418 50.108C90.2225 50.108 91.4668 50.3636 92.5748 50.875C93.6827 51.3864 94.5904 52.1023 95.2978 53.0227C96.0051 53.9432 96.4441 55.017 96.6145 56.2443H93.5975C93.3674 55.3494 92.856 54.5568 92.0634 53.8665C91.2793 53.1676 90.2225 52.8182 88.8929 52.8182C87.7168 52.8182 86.6855 53.125 85.7992 53.7386C84.9213 54.3437 84.2353 55.2003 83.7409 56.3082C83.2551 57.4077 83.0123 58.6989 83.0123 60.1818C83.0123 61.6989 83.2509 63.0199 83.7282 64.1449C84.214 65.2699 84.8958 66.1435 85.7736 66.7656C86.66 67.3878 87.6998 67.6989 88.8929 67.6989C89.677 67.6989 90.3887 67.5625 91.0279 67.2898C91.6671 67.017 92.2083 66.625 92.6515 66.1136C93.0946 65.6023 93.41 64.9886 93.5975 64.2727H96.6145C96.4441 65.4318 96.0222 66.4759 95.3489 67.4048C94.6841 68.3253 93.802 69.0582 92.7026 69.6037C91.6117 70.1406 90.3418 70.4091 88.8929 70.4091ZM101.025 70V50.3636H103.94V53.3295H104.144C104.502 52.358 105.15 51.5696 106.088 50.9645C107.025 50.3594 108.082 50.0568 109.258 50.0568C109.48 50.0568 109.757 50.0611 110.089 50.0696C110.421 50.0781 110.673 50.0909 110.843 50.108V53.1761C110.741 53.1506 110.507 53.1122 110.14 53.0611C109.782 53.0014 109.403 52.9716 109.002 52.9716C108.048 52.9716 107.195 53.1719 106.445 53.5724C105.704 53.9645 105.116 54.5099 104.681 55.2088C104.255 55.8991 104.042 56.6875 104.042 57.5739V70H101.025ZM122.055 70.4091C120.163 70.4091 118.531 69.9915 117.159 69.1562C115.795 68.3125 114.742 67.1364 114.001 65.6278C113.268 64.1108 112.901 62.3466 112.901 60.3352C112.901 58.3239 113.268 56.5511 114.001 55.017C114.742 53.4744 115.774 52.2727 117.095 51.4119C118.424 50.5426 119.975 50.108 121.748 50.108C122.771 50.108 123.781 50.2784 124.778 50.6193C125.775 50.9602 126.683 51.5142 127.501 52.2812C128.319 53.0398 128.971 54.0455 129.457 55.2983C129.943 56.5511 130.186 58.0937 130.186 59.9261V61.2045H115.049V58.5966H127.117C127.117 57.4886 126.896 56.5 126.453 55.6307C126.018 54.7614 125.396 54.0753 124.586 53.5724C123.785 53.0696 122.839 52.8182 121.748 52.8182C120.546 52.8182 119.507 53.1165 118.629 53.7131C117.759 54.3011 117.09 55.0682 116.622 56.0142C116.153 56.9602 115.919 57.9744 115.919 59.0568V60.7955C115.919 62.2784 116.174 63.5355 116.686 64.5668C117.205 65.5895 117.926 66.3693 118.846 66.9062C119.767 67.4347 120.836 67.6989 122.055 67.6989C122.847 67.6989 123.563 67.5881 124.203 67.3665C124.85 67.1364 125.409 66.7955 125.877 66.3438C126.346 65.8835 126.708 65.3125 126.964 64.6307L129.879 65.4489C129.572 66.4375 129.056 67.3068 128.332 68.0568C127.607 68.7983 126.713 69.3778 125.647 69.7955C124.582 70.2045 123.384 70.4091 122.055 70.4091ZM143.315 50.3636V52.9205H133.139V50.3636H143.315ZM136.105 45.6591H139.122V64.375C139.122 65.2273 139.245 65.8665 139.492 66.2926C139.748 66.7102 140.072 66.9915 140.464 67.1364C140.865 67.2727 141.286 67.3409 141.73 67.3409C142.062 67.3409 142.335 67.3239 142.548 67.2898C142.761 67.2472 142.931 67.2131 143.059 67.1875L143.673 69.8977C143.468 69.9744 143.183 70.0511 142.816 70.1278C142.45 70.2131 141.985 70.2557 141.423 70.2557C140.57 70.2557 139.735 70.0724 138.917 69.706C138.107 69.3395 137.434 68.7812 136.897 68.0312C136.369 67.2812 136.105 66.3352 136.105 65.1932V45.6591ZM147.853 70V50.3636H150.87V70H147.853ZM149.387 47.0909C148.799 47.0909 148.292 46.8906 147.866 46.4901C147.448 46.0895 147.24 45.608 147.24 45.0455C147.24 44.483 147.448 44.0014 147.866 43.6009C148.292 43.2003 148.799 43 149.387 43C149.975 43 150.478 43.2003 150.896 43.6009C151.322 44.0014 151.535 44.483 151.535 45.0455C151.535 45.608 151.322 46.0895 150.896 46.4901C150.478 46.8906 149.975 47.0909 149.387 47.0909ZM155.834 70V67.6989L166.981 53.3807V53.1761H156.192V50.3636H170.868V52.767L160.027 66.983V67.1875H171.226V70H155.834ZM183.543 70.4091C181.651 70.4091 180.019 69.9915 178.647 69.1562C177.283 68.3125 176.231 67.1364 175.489 65.6278C174.756 64.1108 174.39 62.3466 174.39 60.3352C174.39 58.3239 174.756 56.5511 175.489 55.017C176.231 53.4744 177.262 52.2727 178.583 51.4119C179.912 50.5426 181.464 50.108 183.236 50.108C184.259 50.108 185.269 50.2784 186.266 50.6193C187.263 50.9602 188.171 51.5142 188.989 52.2812C189.807 53.0398 190.459 54.0455 190.945 55.2983C191.431 56.5511 191.674 58.0937 191.674 59.9261V61.2045H176.537V58.5966H188.606C188.606 57.4886 188.384 56.5 187.941 55.6307C187.506 54.7614 186.884 54.0753 186.074 53.5724C185.273 53.0696 184.327 52.8182 183.236 52.8182C182.035 52.8182 180.995 53.1165 180.117 53.7131C179.248 54.3011 178.579 55.0682 178.11 56.0142C177.641 56.9602 177.407 57.9744 177.407 59.0568V60.7955C177.407 62.2784 177.662 63.5355 178.174 64.5668C178.694 65.5895 179.414 66.3693 180.334 66.9062C181.255 67.4347 182.324 67.6989 183.543 67.6989C184.336 67.6989 185.052 67.5881 185.691 67.3665C186.339 67.1364 186.897 66.7955 187.366 66.3438C187.834 65.8835 188.197 65.3125 188.452 64.6307L191.367 65.4489C191.06 66.4375 190.545 67.3068 189.82 68.0568C189.096 68.7983 188.201 69.3778 187.135 69.7955C186.07 70.2045 184.873 70.4091 183.543 70.4091ZM203.678 70.4091C202.042 70.4091 200.597 69.9957 199.344 69.169C198.091 68.3338 197.111 67.1577 196.404 65.6406C195.697 64.1151 195.343 62.3125 195.343 60.233C195.343 58.1705 195.697 56.3807 196.404 54.8636C197.111 53.3466 198.096 52.1747 199.357 51.348C200.618 50.5213 202.076 50.108 203.729 50.108C205.008 50.108 206.018 50.321 206.759 50.7472C207.509 51.1648 208.08 51.642 208.472 52.179C208.873 52.7074 209.184 53.142 209.405 53.483H209.661V43.8182H212.678V70H209.763V66.983H209.405C209.184 67.3409 208.868 67.7926 208.459 68.3381C208.05 68.875 207.466 69.3565 206.708 69.7827C205.949 70.2003 204.939 70.4091 203.678 70.4091ZM204.087 67.6989C205.297 67.6989 206.32 67.3835 207.155 66.7528C207.991 66.1136 208.626 65.2315 209.06 64.1065C209.495 62.973 209.712 61.6648 209.712 60.1818C209.712 58.7159 209.499 57.4332 209.073 56.3338C208.647 55.2259 208.016 54.3651 207.181 53.7514C206.346 53.1293 205.314 52.8182 204.087 52.8182C202.809 52.8182 201.743 53.1463 200.891 53.8026C200.047 54.4503 199.412 55.3324 198.986 56.4489C198.569 57.5568 198.36 58.8011 198.36 60.1818C198.36 61.5795 198.573 62.8494 198.999 63.9915C199.434 65.125 200.073 66.0284 200.917 66.7017C201.769 67.3665 202.826 67.6989 204.087 67.6989ZM228.748 70V50.3636H231.662V53.4318H231.918C232.327 52.3835 232.988 51.5696 233.9 50.9901C234.812 50.402 235.907 50.108 237.185 50.108C238.481 50.108 239.559 50.402 240.42 50.9901C241.289 51.5696 241.966 52.3835 242.452 53.4318H242.657C243.16 52.4176 243.914 51.6122 244.92 51.0156C245.925 50.4105 247.131 50.108 248.537 50.108C250.293 50.108 251.729 50.6577 252.846 51.7571C253.962 52.848 254.52 54.5483 254.52 56.858V70H251.503V56.858C251.503 55.4091 251.107 54.3736 250.314 53.7514C249.522 53.1293 248.589 52.8182 247.515 52.8182C246.134 52.8182 245.064 53.2358 244.306 54.071C243.547 54.8977 243.168 55.946 243.168 57.2159V70H240.1V56.5511C240.1 55.4347 239.738 54.5355 239.013 53.8537C238.289 53.1634 237.356 52.8182 236.214 52.8182C235.43 52.8182 234.697 53.027 234.015 53.4446C233.341 53.8622 232.796 54.4418 232.378 55.1832C231.969 55.9162 231.765 56.7642 231.765 57.7273V70H228.748ZM265.815 70.4602C264.571 70.4602 263.442 70.2259 262.427 69.7571C261.413 69.2798 260.608 68.5938 260.011 67.6989C259.415 66.7955 259.116 65.7045 259.116 64.4261C259.116 63.3011 259.338 62.3892 259.781 61.6903C260.224 60.983 260.817 60.429 261.558 60.0284C262.3 59.6278 263.118 59.3295 264.013 59.1335C264.916 58.929 265.824 58.767 266.736 58.6477C267.929 58.4943 268.896 58.3793 269.638 58.3026C270.388 58.2173 270.933 58.0767 271.274 57.8807C271.623 57.6847 271.798 57.3437 271.798 56.858V56.7557C271.798 55.4943 271.453 54.5142 270.763 53.8153C270.081 53.1165 269.045 52.767 267.656 52.767C266.216 52.767 265.086 53.0824 264.268 53.7131C263.45 54.3437 262.875 55.017 262.542 55.733L259.679 54.7102C260.19 53.517 260.872 52.5881 261.724 51.9233C262.585 51.25 263.523 50.7812 264.537 50.517C265.559 50.2443 266.565 50.108 267.554 50.108C268.184 50.108 268.909 50.1847 269.727 50.3381C270.554 50.483 271.351 50.7855 272.118 51.2457C272.893 51.706 273.537 52.4006 274.048 53.3295C274.559 54.2585 274.815 55.5028 274.815 57.0625V70H271.798V67.3409H271.645C271.44 67.767 271.099 68.223 270.622 68.7088C270.145 69.1946 269.51 69.608 268.717 69.9489C267.925 70.2898 266.957 70.4602 265.815 70.4602ZM266.275 67.75C267.469 67.75 268.474 67.5156 269.292 67.0469C270.119 66.5781 270.741 65.973 271.159 65.2315C271.585 64.4901 271.798 63.7102 271.798 62.892V60.1307C271.67 60.2841 271.389 60.4247 270.954 60.5526C270.528 60.6719 270.034 60.7784 269.471 60.8722C268.917 60.9574 268.376 61.0341 267.848 61.1023C267.328 61.1619 266.906 61.2131 266.582 61.2557C265.798 61.358 265.065 61.5241 264.383 61.7543C263.71 61.9759 263.165 62.3125 262.747 62.7642C262.338 63.2074 262.133 63.8125 262.133 64.5795C262.133 65.6278 262.521 66.4205 263.297 66.9574C264.081 67.4858 265.074 67.75 266.275 67.75ZM288.862 50.3636V52.9205H278.686V50.3636H288.862ZM281.651 45.6591H284.669V64.375C284.669 65.2273 284.792 65.8665 285.039 66.2926C285.295 66.7102 285.619 66.9915 286.011 67.1364C286.411 67.2727 286.833 67.3409 287.276 67.3409C287.609 67.3409 287.882 67.3239 288.095 67.2898C288.308 67.2472 288.478 67.2131 288.606 67.1875L289.22 69.8977C289.015 69.9744 288.73 70.0511 288.363 70.1278C287.997 70.2131 287.532 70.2557 286.97 70.2557C286.117 70.2557 285.282 70.0724 284.464 69.706C283.654 69.3395 282.981 68.7812 282.444 68.0312C281.916 67.2812 281.651 66.3352 281.651 65.1932V45.6591ZM293.4 70V50.3636H296.315V53.3295H296.519C296.877 52.358 297.525 51.5696 298.463 50.9645C299.4 50.3594 300.457 50.0568 301.633 50.0568C301.855 50.0568 302.132 50.0611 302.464 50.0696C302.796 50.0781 303.048 50.0909 303.218 50.108V53.1761C303.116 53.1506 302.882 53.1122 302.515 53.0611C302.157 53.0014 301.778 52.9716 301.377 52.9716C300.423 52.9716 299.57 53.1719 298.82 53.5724C298.079 53.9645 297.491 54.5099 297.056 55.2088C296.63 55.8991 296.417 56.6875 296.417 57.5739V70H293.4ZM306.795 70V50.3636H309.812V70H306.795ZM308.329 47.0909C307.741 47.0909 307.233 46.8906 306.807 46.4901C306.39 46.0895 306.181 45.608 306.181 45.0455C306.181 44.483 306.39 44.0014 306.807 43.6009C307.233 43.2003 307.741 43 308.329 43C308.917 43 309.42 43.2003 309.837 43.6009C310.263 44.0014 310.476 44.483 310.476 45.0455C310.476 45.608 310.263 46.0895 309.837 46.4901C309.42 46.8906 308.917 47.0909 308.329 47.0909ZM317.588 50.3636L322.292 58.392L326.997 50.3636H330.474L324.133 60.1818L330.474 70H326.997L322.292 62.3807L317.588 70H314.11L320.349 60.1818L314.11 50.3636H317.588Z" fill="black" fill-opacity="0.5"/>
<path d="M348.931 70H342.999L352.037 43.8182H359.171L368.197 70H362.265L355.706 49.8011H355.502L348.931 70ZM348.56 59.7088H362.572V64.0298H348.56V59.7088Z" fill="#978545"/>
<path d="M37.2422 259H29.1626V232.818H37.6001C40.1399 232.818 42.3132 233.342 44.12 234.391C45.9268 235.43 47.3118 236.926 48.2749 238.878C49.2379 240.821 49.7195 243.148 49.7195 245.858C49.7195 248.585 49.2337 250.933 48.2621 252.902C47.2905 254.862 45.8757 256.371 44.0178 257.428C42.1598 258.476 39.9013 259 37.2422 259ZM32.3331 256.188H37.0376C39.2024 256.188 40.9964 255.77 42.4197 254.935C43.843 254.099 44.9041 252.911 45.603 251.368C46.3018 249.825 46.6513 247.989 46.6513 245.858C46.6513 243.744 46.3061 241.925 45.6158 240.399C44.9254 238.865 43.8942 237.689 42.522 236.871C41.1499 236.044 39.4411 235.631 37.3956 235.631H32.3331V256.188ZM54.6286 259V239.364H57.6456V259H54.6286ZM56.1626 236.091C55.5746 236.091 55.0675 235.891 54.6413 235.49C54.2237 235.089 54.0149 234.608 54.0149 234.045C54.0149 233.483 54.2237 233.001 54.6413 232.601C55.0675 232.2 55.5746 232 56.1626 232C56.7507 232 57.2536 232.2 57.6712 232.601C58.0973 233.001 58.3104 233.483 58.3104 234.045C58.3104 234.608 58.0973 235.089 57.6712 235.49C57.2536 235.891 56.7507 236.091 56.1626 236.091ZM77.0806 243.761L74.3704 244.528C74.1999 244.077 73.9485 243.638 73.6161 243.212C73.2923 242.777 72.8491 242.419 72.2866 242.138C71.7241 241.857 71.0039 241.716 70.1261 241.716C68.9244 241.716 67.9229 241.993 67.1218 242.547C66.3292 243.092 65.9329 243.787 65.9329 244.631C65.9329 245.381 66.2056 245.973 66.7511 246.408C67.2965 246.842 68.1488 247.205 69.3079 247.494L72.2227 248.21C73.9783 248.636 75.2866 249.288 76.1474 250.166C77.0082 251.036 77.4386 252.156 77.4386 253.528C77.4386 254.653 77.1147 255.659 76.467 256.545C75.8278 257.432 74.9329 258.131 73.7823 258.642C72.6317 259.153 71.2937 259.409 69.7681 259.409C67.7653 259.409 66.1076 258.974 64.7951 258.105C63.4826 257.236 62.6516 255.966 62.3022 254.295L65.1658 253.58C65.4386 254.636 65.9542 255.429 66.7127 255.957C67.4798 256.486 68.4812 256.75 69.717 256.75C71.1232 256.75 72.2397 256.452 73.0664 255.855C73.9016 255.25 74.3192 254.526 74.3192 253.682C74.3192 253 74.0806 252.429 73.6033 251.969C73.1261 251.5 72.3931 251.151 71.4045 250.92L68.1317 250.153C66.3335 249.727 65.0124 249.067 64.1687 248.172C63.3335 247.268 62.9158 246.139 62.9158 244.784C62.9158 243.676 63.2269 242.696 63.8491 241.844C64.4798 240.991 65.3363 240.322 66.4187 239.837C67.5096 239.351 68.7454 239.108 70.1261 239.108C72.0692 239.108 73.5948 239.534 74.7028 240.386C75.8192 241.239 76.6119 242.364 77.0806 243.761ZM89.9574 259.409C88.1165 259.409 86.5313 258.974 85.2017 258.105C83.8722 257.236 82.8494 256.038 82.1335 254.513C81.4176 252.987 81.0597 251.244 81.0597 249.284C81.0597 247.29 81.4261 245.53 82.1591 244.004C82.9006 242.47 83.9318 241.273 85.2528 240.412C86.5824 239.543 88.1335 239.108 89.9062 239.108C91.2869 239.108 92.5312 239.364 93.6392 239.875C94.7472 240.386 95.6548 241.102 96.3622 242.023C97.0696 242.943 97.5085 244.017 97.679 245.244H94.6619C94.4318 244.349 93.9205 243.557 93.1278 242.866C92.3438 242.168 91.2869 241.818 89.9574 241.818C88.7813 241.818 87.75 242.125 86.8636 242.739C85.9858 243.344 85.2997 244.2 84.8054 245.308C84.3196 246.408 84.0767 247.699 84.0767 249.182C84.0767 250.699 84.3153 252.02 84.7926 253.145C85.2784 254.27 85.9602 255.143 86.8381 255.766C87.7244 256.388 88.7642 256.699 89.9574 256.699C90.7415 256.699 91.4531 256.562 92.0923 256.29C92.7315 256.017 93.2727 255.625 93.7159 255.114C94.1591 254.602 94.4744 253.989 94.6619 253.273H97.679C97.5085 254.432 97.0866 255.476 96.4134 256.405C95.7486 257.325 94.8665 258.058 93.767 258.604C92.6761 259.141 91.4063 259.409 89.9574 259.409ZM102.089 259V239.364H105.004V242.33H105.209C105.567 241.358 106.214 240.57 107.152 239.964C108.089 239.359 109.146 239.057 110.322 239.057C110.544 239.057 110.821 239.061 111.153 239.07C111.486 239.078 111.737 239.091 111.908 239.108V242.176C111.805 242.151 111.571 242.112 111.205 242.061C110.847 242.001 110.467 241.972 110.067 241.972C109.112 241.972 108.26 242.172 107.51 242.572C106.768 242.964 106.18 243.51 105.746 244.209C105.32 244.899 105.107 245.687 105.107 246.574V259H102.089ZM123.119 259.409C121.227 259.409 119.595 258.991 118.223 258.156C116.859 257.312 115.807 256.136 115.065 254.628C114.332 253.111 113.966 251.347 113.966 249.335C113.966 247.324 114.332 245.551 115.065 244.017C115.807 242.474 116.838 241.273 118.159 240.412C119.489 239.543 121.04 239.108 122.812 239.108C123.835 239.108 124.845 239.278 125.842 239.619C126.839 239.96 127.747 240.514 128.565 241.281C129.384 242.04 130.036 243.045 130.521 244.298C131.007 245.551 131.25 247.094 131.25 248.926V250.205H116.114V247.597H128.182C128.182 246.489 127.96 245.5 127.517 244.631C127.082 243.761 126.46 243.075 125.651 242.572C124.849 242.07 123.903 241.818 122.812 241.818C121.611 241.818 120.571 242.116 119.693 242.713C118.824 243.301 118.155 244.068 117.686 245.014C117.217 245.96 116.983 246.974 116.983 248.057V249.795C116.983 251.278 117.239 252.536 117.75 253.567C118.27 254.589 118.99 255.369 119.911 255.906C120.831 256.435 121.901 256.699 123.119 256.699C123.912 256.699 124.628 256.588 125.267 256.366C125.915 256.136 126.473 255.795 126.942 255.344C127.411 254.884 127.773 254.312 128.028 253.631L130.943 254.449C130.636 255.438 130.121 256.307 129.396 257.057C128.672 257.798 127.777 258.378 126.712 258.795C125.646 259.205 124.449 259.409 123.119 259.409ZM144.379 239.364V241.92H134.203V239.364H144.379ZM137.169 234.659H140.186V253.375C140.186 254.227 140.31 254.866 140.557 255.293C140.813 255.71 141.136 255.991 141.528 256.136C141.929 256.273 142.351 256.341 142.794 256.341C143.126 256.341 143.399 256.324 143.612 256.29C143.825 256.247 143.996 256.213 144.124 256.188L144.737 258.898C144.533 258.974 144.247 259.051 143.881 259.128C143.514 259.213 143.05 259.256 142.487 259.256C141.635 259.256 140.8 259.072 139.982 258.706C139.172 258.339 138.499 257.781 137.962 257.031C137.433 256.281 137.169 255.335 137.169 254.193V234.659ZM148.918 259V239.364H151.935V259H148.918ZM150.452 236.091C149.864 236.091 149.357 235.891 148.93 235.49C148.513 235.089 148.304 234.608 148.304 234.045C148.304 233.483 148.513 233.001 148.93 232.601C149.357 232.2 149.864 232 150.452 232C151.04 232 151.543 232.2 151.96 232.601C152.386 233.001 152.599 233.483 152.599 234.045C152.599 234.608 152.386 235.089 151.96 235.49C151.543 235.891 151.04 236.091 150.452 236.091ZM156.898 259V256.699L168.046 242.381V242.176H157.256V239.364H171.932V241.767L161.091 255.983V256.188H172.29V259H156.898ZM184.608 259.409C182.716 259.409 181.083 258.991 179.711 258.156C178.348 257.312 177.295 256.136 176.554 254.628C175.821 253.111 175.454 251.347 175.454 249.335C175.454 247.324 175.821 245.551 176.554 244.017C177.295 242.474 178.326 241.273 179.647 240.412C180.977 239.543 182.528 239.108 184.301 239.108C185.324 239.108 186.333 239.278 187.331 239.619C188.328 239.96 189.235 240.514 190.054 241.281C190.872 242.04 191.524 243.045 192.01 244.298C192.495 245.551 192.738 247.094 192.738 248.926V250.205H177.602V247.597H189.67C189.67 246.489 189.449 245.5 189.005 244.631C188.571 243.761 187.949 243.075 187.139 242.572C186.338 242.07 185.392 241.818 184.301 241.818C183.099 241.818 182.059 242.116 181.181 242.713C180.312 243.301 179.643 244.068 179.174 245.014C178.706 245.96 178.471 246.974 178.471 248.057V249.795C178.471 251.278 178.727 252.536 179.238 253.567C179.758 254.589 180.478 255.369 181.399 255.906C182.319 256.435 183.389 256.699 184.608 256.699C185.4 256.699 186.116 256.588 186.755 256.366C187.403 256.136 187.961 255.795 188.43 255.344C188.899 254.884 189.261 254.312 189.517 253.631L192.431 254.449C192.125 255.438 191.609 256.307 190.885 257.057C190.16 257.798 189.265 258.378 188.2 258.795C187.135 259.205 185.937 259.409 184.608 259.409ZM204.743 259.409C203.106 259.409 201.662 258.996 200.409 258.169C199.156 257.334 198.176 256.158 197.468 254.641C196.761 253.115 196.407 251.312 196.407 249.233C196.407 247.17 196.761 245.381 197.468 243.864C198.176 242.347 199.16 241.175 200.422 240.348C201.683 239.521 203.14 239.108 204.794 239.108C206.072 239.108 207.082 239.321 207.824 239.747C208.574 240.165 209.145 240.642 209.537 241.179C209.937 241.707 210.248 242.142 210.47 242.483H210.725V232.818H213.743V259H210.828V255.983H210.47C210.248 256.341 209.933 256.793 209.524 257.338C209.115 257.875 208.531 258.357 207.772 258.783C207.014 259.2 206.004 259.409 204.743 259.409ZM205.152 256.699C206.362 256.699 207.385 256.384 208.22 255.753C209.055 255.114 209.69 254.232 210.125 253.107C210.559 251.973 210.777 250.665 210.777 249.182C210.777 247.716 210.564 246.433 210.137 245.334C209.711 244.226 209.081 243.365 208.245 242.751C207.41 242.129 206.379 241.818 205.152 241.818C203.873 241.818 202.808 242.146 201.956 242.803C201.112 243.45 200.477 244.332 200.051 245.449C199.633 246.557 199.424 247.801 199.424 249.182C199.424 250.58 199.637 251.849 200.064 252.991C200.498 254.125 201.137 255.028 201.981 255.702C202.833 256.366 203.89 256.699 205.152 256.699ZM229.812 259V239.364H232.727V242.432H232.983C233.392 241.384 234.052 240.57 234.964 239.99C235.876 239.402 236.971 239.108 238.25 239.108C239.545 239.108 240.623 239.402 241.484 239.99C242.353 240.57 243.031 241.384 243.517 242.432H243.721C244.224 241.418 244.978 240.612 245.984 240.016C246.99 239.411 248.196 239.108 249.602 239.108C251.358 239.108 252.794 239.658 253.91 240.757C255.027 241.848 255.585 243.548 255.585 245.858V259H252.568V245.858C252.568 244.409 252.172 243.374 251.379 242.751C250.586 242.129 249.653 241.818 248.579 241.818C247.199 241.818 246.129 242.236 245.37 243.071C244.612 243.898 244.233 244.946 244.233 246.216V259H241.164V245.551C241.164 244.435 240.802 243.536 240.078 242.854C239.353 242.163 238.42 241.818 237.278 241.818C236.494 241.818 235.761 242.027 235.079 242.445C234.406 242.862 233.86 243.442 233.443 244.183C233.034 244.916 232.829 245.764 232.829 246.727V259H229.812ZM266.88 259.46C265.635 259.46 264.506 259.226 263.492 258.757C262.478 258.28 261.672 257.594 261.076 256.699C260.479 255.795 260.181 254.705 260.181 253.426C260.181 252.301 260.402 251.389 260.846 250.69C261.289 249.983 261.881 249.429 262.623 249.028C263.364 248.628 264.182 248.33 265.077 248.134C265.98 247.929 266.888 247.767 267.8 247.648C268.993 247.494 269.961 247.379 270.702 247.303C271.452 247.217 271.998 247.077 272.338 246.881C272.688 246.685 272.863 246.344 272.863 245.858V245.756C272.863 244.494 272.517 243.514 271.827 242.815C271.145 242.116 270.11 241.767 268.721 241.767C267.28 241.767 266.151 242.082 265.333 242.713C264.515 243.344 263.939 244.017 263.607 244.733L260.743 243.71C261.255 242.517 261.936 241.588 262.789 240.923C263.65 240.25 264.587 239.781 265.601 239.517C266.624 239.244 267.63 239.108 268.618 239.108C269.249 239.108 269.973 239.185 270.792 239.338C271.618 239.483 272.415 239.786 273.182 240.246C273.958 240.706 274.601 241.401 275.113 242.33C275.624 243.259 275.88 244.503 275.88 246.062V259H272.863V256.341H272.709C272.505 256.767 272.164 257.223 271.686 257.709C271.209 258.195 270.574 258.608 269.782 258.949C268.989 259.29 268.022 259.46 266.88 259.46ZM267.34 256.75C268.533 256.75 269.539 256.516 270.357 256.047C271.184 255.578 271.806 254.973 272.223 254.232C272.65 253.49 272.863 252.71 272.863 251.892V249.131C272.735 249.284 272.453 249.425 272.019 249.553C271.593 249.672 271.098 249.778 270.536 249.872C269.982 249.957 269.441 250.034 268.912 250.102C268.392 250.162 267.971 250.213 267.647 250.256C266.863 250.358 266.13 250.524 265.448 250.754C264.775 250.976 264.229 251.312 263.811 251.764C263.402 252.207 263.198 252.812 263.198 253.58C263.198 254.628 263.586 255.42 264.361 255.957C265.145 256.486 266.138 256.75 267.34 256.75ZM289.926 239.364V241.92H279.75V239.364H289.926ZM282.716 234.659H285.733V253.375C285.733 254.227 285.857 254.866 286.104 255.293C286.359 255.71 286.683 255.991 287.075 256.136C287.476 256.273 287.898 256.341 288.341 256.341C288.673 256.341 288.946 256.324 289.159 256.29C289.372 256.247 289.543 256.213 289.67 256.188L290.284 258.898C290.08 258.974 289.794 259.051 289.428 259.128C289.061 259.213 288.597 259.256 288.034 259.256C287.182 259.256 286.347 259.072 285.528 258.706C284.719 258.339 284.045 257.781 283.509 257.031C282.98 256.281 282.716 255.335 282.716 254.193V234.659ZM294.464 259V239.364H297.379V242.33H297.584C297.942 241.358 298.589 240.57 299.527 239.964C300.464 239.359 301.521 239.057 302.697 239.057C302.919 239.057 303.196 239.061 303.528 239.07C303.861 239.078 304.112 239.091 304.283 239.108V242.176C304.18 242.151 303.946 242.112 303.58 242.061C303.222 242.001 302.842 241.972 302.442 241.972C301.487 241.972 300.635 242.172 299.885 242.572C299.143 242.964 298.555 243.51 298.121 244.209C297.695 244.899 297.482 245.687 297.482 246.574V259H294.464ZM307.859 259V239.364H310.876V259H307.859ZM309.393 236.091C308.805 236.091 308.298 235.891 307.872 235.49C307.454 235.089 307.245 234.608 307.245 234.045C307.245 233.483 307.454 233.001 307.872 232.601C308.298 232.2 308.805 232 309.393 232C309.981 232 310.484 232.2 310.902 232.601C311.328 233.001 311.541 233.483 311.541 234.045C311.541 234.608 311.328 235.089 310.902 235.49C310.484 235.891 309.981 236.091 309.393 236.091ZM318.652 239.364L323.357 247.392L328.061 239.364H331.538L325.197 249.182L331.538 259H328.061L323.357 251.381L318.652 259H315.175L321.413 249.182L315.175 239.364H318.652Z" fill="black" fill-opacity="0.5"/>
<path d="M345.483 259V232.818H355.966C357.892 232.818 359.498 233.104 360.785 233.675C362.072 234.246 363.039 235.038 363.687 236.053C364.335 237.058 364.659 238.217 364.659 239.53C364.659 240.553 364.454 241.452 364.045 242.227C363.636 242.994 363.074 243.625 362.358 244.119C361.65 244.605 360.841 244.95 359.929 245.155V245.411C360.926 245.453 361.859 245.734 362.728 246.254C363.606 246.774 364.318 247.503 364.863 248.44C365.409 249.369 365.681 250.477 365.681 251.764C365.681 253.153 365.336 254.393 364.646 255.484C363.964 256.567 362.954 257.423 361.616 258.054C360.278 258.685 358.629 259 356.669 259H345.483ZM351.018 254.474H355.531C357.074 254.474 358.199 254.18 358.906 253.592C359.613 252.996 359.967 252.203 359.967 251.214C359.967 250.49 359.792 249.851 359.443 249.297C359.093 248.743 358.595 248.308 357.947 247.993C357.308 247.678 356.545 247.52 355.659 247.52H351.018V254.474ZM351.018 243.774H355.122C355.88 243.774 356.554 243.642 357.142 243.378C357.738 243.105 358.207 242.722 358.548 242.227C358.897 241.733 359.072 241.141 359.072 240.45C359.072 239.504 358.735 238.741 358.062 238.162C357.397 237.582 356.451 237.293 355.224 237.293H351.018V243.774Z" fill="#4B9745"/>
</g>
<defs>
<clipPath id="clip0_137_582">
<rect width="1550" height="294" fill="white"/>
</clipPath>
</defs>
</svg>
