<svg width="385" height="134" viewBox="0 0 385 134" fill="none" xmlns="http://www.w3.org/2000/svg">
<rect width="385" height="134" fill="white"/>
<rect x="35.8066" y="6" width="48.1185" height="31.2732" rx="15.6366" fill="#F6ECEC" stroke="#BE3B3B" stroke-width="2"/>
<path d="M54.9052 17.2727L56.8271 20.4688H56.8952L58.8256 17.2727H60.6282L57.9393 21.6364L60.6708 26H58.8384L56.8952 22.8253H56.8271L54.8839 26H53.06L55.8171 21.6364L53.0941 17.2727H54.9052Z" fill="#BE3B3B"/>
<path d="M63.8828 31.1393C63.3478 31.1393 62.892 30.9937 62.5156 30.7025C62.1392 30.4089 61.8516 29.984 61.6527 29.4276C61.4538 28.8689 61.3544 28.1942 61.3544 27.4035C61.3544 26.6175 61.4538 25.9463 61.6527 25.39C61.8539 24.8313 62.1428 24.4051 62.5192 24.1116C62.898 23.8157 63.3525 23.6677 63.8828 23.6677C64.4131 23.6677 64.8665 23.8157 65.2429 24.1116C65.6217 24.4051 65.9105 24.8313 66.1094 25.39C66.3106 25.9463 66.4112 26.6175 66.4112 27.4035C66.4112 28.1942 66.3118 28.8689 66.1129 29.4276C65.9141 29.984 65.6264 30.4089 65.25 30.7025C64.8736 30.9937 64.4179 31.1393 63.8828 31.1393ZM63.8828 30.358C64.4131 30.358 64.825 30.1024 65.1186 29.591C65.4122 29.0796 65.5589 28.3505 65.5589 27.4035C65.5589 26.7738 65.4915 26.2375 65.3565 25.7948C65.224 25.3521 65.0322 25.0148 64.7812 24.7828C64.5327 24.5507 64.2332 24.4347 63.8828 24.4347C63.3572 24.4347 62.9465 24.694 62.6506 25.2124C62.3546 25.7285 62.2067 26.4589 62.2067 27.4035C62.2067 28.0332 62.273 28.5683 62.4055 29.0086C62.5381 29.4489 62.7287 29.7839 62.9773 30.0136C63.2282 30.2432 63.5301 30.358 63.8828 30.358Z" fill="#828282"/>
<path d="M97.6397 83H95.9522L99.0247 74.2727H100.976L104.053 83H102.366L100.035 76.0625H99.9664L97.6397 83ZM97.6951 79.5781H102.297V80.848H97.6951V79.5781Z" fill="#828282"/>
<line x1="97" y1="72.5399" x2="103" y2="72.5399" stroke="#828282"/>
<path d="M189.64 83H187.952L191.025 74.2727H192.976L196.053 83H194.366L192.035 76.0625H191.966L189.64 83ZM189.695 79.5781H194.297V80.848H189.695V79.5781Z" fill="#828282"/>
<line x1="189" y1="72.5399" x2="195" y2="72.5399" stroke="#828282"/>
<path d="M279.64 83H277.952L281.025 74.2727H282.976L286.053 83H284.366L282.035 76.0625H281.966L279.64 83ZM279.695 79.5781H284.297V80.848H279.695V79.5781Z" fill="#828282"/>
<line x1="279" y1="72.5399" x2="285" y2="72.5399" stroke="#828282"/>
<path d="M64.9174 53V44.2727H68.2583C68.889 44.2727 69.4132 44.3722 69.8308 44.571C70.2512 44.767 70.5652 45.0355 70.7726 45.3764C70.9828 45.7173 71.0879 46.1037 71.0879 46.5355C71.0879 46.8906 71.0197 47.1946 70.8833 47.4474C70.747 47.6974 70.5637 47.9006 70.3336 48.0568C70.1035 48.2131 69.8464 48.3253 69.5623 48.3935V48.4787C69.872 48.4957 70.1689 48.5909 70.4529 48.7642C70.7399 48.9347 70.9743 49.1761 71.1561 49.4886C71.3379 49.8011 71.4288 50.179 71.4288 50.6222C71.4288 51.0739 71.3194 51.4801 71.1007 51.8409C70.8819 52.1989 70.5524 52.4815 70.112 52.6889C69.6717 52.8963 69.1177 53 68.4501 53H64.9174ZM66.4984 51.679H68.1987C68.7725 51.679 69.1859 51.5696 69.4387 51.3509C69.6944 51.1293 69.8223 50.8452 69.8223 50.4986C69.8223 50.2401 69.7583 50.0071 69.6305 49.7997C69.5027 49.5895 69.3208 49.4247 69.085 49.3054C68.8493 49.1832 68.568 49.1222 68.2413 49.1222H66.4984V51.679ZM66.4984 47.9844H68.0623C68.335 47.9844 68.5808 47.9347 68.7995 47.8352C69.0183 47.733 69.1902 47.5895 69.3152 47.4048C69.443 47.2173 69.5069 46.9957 69.5069 46.7401C69.5069 46.402 69.3876 46.1236 69.149 45.9048C68.9132 45.6861 68.5623 45.5767 68.0964 45.5767H66.4984V47.9844Z" fill="#828282"/>
<path d="M124.705 120.455C124.653 120.023 124.446 119.688 124.082 119.449C123.719 119.21 123.273 119.091 122.744 119.091C122.358 119.091 122.02 119.153 121.73 119.278C121.443 119.403 121.219 119.575 121.057 119.794C120.898 120.013 120.818 120.261 120.818 120.54C120.818 120.773 120.874 120.973 120.984 121.141C121.098 121.305 121.243 121.443 121.419 121.554C121.595 121.662 121.78 121.751 121.973 121.822C122.166 121.891 122.344 121.946 122.506 121.989L123.392 122.227C123.619 122.287 123.872 122.369 124.151 122.474C124.432 122.58 124.7 122.723 124.956 122.905C125.214 123.084 125.428 123.314 125.595 123.595C125.763 123.876 125.847 124.222 125.847 124.631C125.847 125.102 125.723 125.528 125.476 125.909C125.232 126.29 124.874 126.592 124.402 126.817C123.933 127.041 123.364 127.153 122.693 127.153C122.068 127.153 121.527 127.053 121.07 126.851C120.615 126.649 120.257 126.368 119.996 126.007C119.737 125.646 119.591 125.227 119.557 124.75H120.648C120.676 125.08 120.787 125.352 120.98 125.568C121.176 125.781 121.423 125.94 121.722 126.045C122.023 126.148 122.347 126.199 122.693 126.199C123.097 126.199 123.459 126.134 123.78 126.003C124.101 125.869 124.355 125.685 124.543 125.449C124.73 125.21 124.824 124.932 124.824 124.614C124.824 124.324 124.743 124.088 124.581 123.906C124.419 123.724 124.206 123.577 123.942 123.463C123.678 123.349 123.392 123.25 123.085 123.165L122.011 122.858C121.33 122.662 120.79 122.382 120.392 122.018C119.994 121.655 119.795 121.179 119.795 120.591C119.795 120.102 119.928 119.676 120.192 119.312C120.459 118.946 120.817 118.662 121.266 118.46C121.717 118.256 122.222 118.153 122.778 118.153C123.341 118.153 123.841 118.254 124.278 118.456C124.716 118.655 125.063 118.928 125.318 119.274C125.577 119.621 125.713 120.014 125.727 120.455H124.705ZM130.192 127.136C129.561 127.136 129.017 126.997 128.56 126.719C128.105 126.438 127.755 126.045 127.507 125.543C127.263 125.037 127.141 124.449 127.141 123.778C127.141 123.108 127.263 122.517 127.507 122.006C127.755 121.491 128.098 121.091 128.539 120.804C128.982 120.514 129.499 120.369 130.09 120.369C130.431 120.369 130.767 120.426 131.1 120.54C131.432 120.653 131.735 120.838 132.007 121.094C132.28 121.347 132.498 121.682 132.659 122.099C132.821 122.517 132.902 123.031 132.902 123.642V124.068H127.857V123.199H131.88C131.88 122.83 131.806 122.5 131.658 122.21C131.513 121.92 131.306 121.692 131.036 121.524C130.769 121.357 130.453 121.273 130.09 121.273C129.689 121.273 129.343 121.372 129.05 121.571C128.76 121.767 128.537 122.023 128.381 122.338C128.225 122.653 128.147 122.991 128.147 123.352V123.932C128.147 124.426 128.232 124.845 128.402 125.189C128.576 125.53 128.816 125.79 129.123 125.969C129.429 126.145 129.786 126.233 130.192 126.233C130.456 126.233 130.695 126.196 130.908 126.122C131.124 126.045 131.31 125.932 131.466 125.781C131.623 125.628 131.743 125.437 131.828 125.21L132.8 125.483C132.698 125.812 132.526 126.102 132.284 126.352C132.043 126.599 131.745 126.793 131.39 126.932C131.034 127.068 130.635 127.136 130.192 127.136ZM138.898 129.455V125.994H138.813C138.739 126.114 138.634 126.264 138.498 126.446C138.361 126.625 138.167 126.786 137.914 126.928C137.661 127.067 137.324 127.136 136.904 127.136C136.358 127.136 135.877 126.999 135.459 126.723C135.042 126.445 134.715 126.053 134.479 125.547C134.243 125.038 134.125 124.438 134.125 123.744C134.125 123.057 134.243 122.46 134.479 121.955C134.715 121.449 135.043 121.058 135.463 120.783C135.884 120.507 136.37 120.369 136.921 120.369C137.347 120.369 137.684 120.44 137.931 120.582C138.181 120.722 138.371 120.881 138.502 121.06C138.635 121.236 138.739 121.381 138.813 121.494H138.932V120.455H139.904V129.455H138.898ZM137.04 126.233C137.444 126.233 137.784 126.128 138.063 125.918C138.341 125.705 138.553 125.411 138.698 125.036C138.843 124.658 138.915 124.222 138.915 123.727C138.915 123.239 138.844 122.811 138.702 122.445C138.56 122.075 138.35 121.788 138.071 121.584C137.793 121.376 137.449 121.273 137.04 121.273C136.614 121.273 136.259 121.382 135.975 121.601C135.694 121.817 135.482 122.111 135.34 122.483C135.201 122.852 135.131 123.267 135.131 123.727C135.131 124.193 135.202 124.616 135.344 124.997C135.489 125.375 135.702 125.676 135.983 125.901C136.267 126.122 136.62 126.233 137.04 126.233ZM145.87 124.324V120.455H146.875V127H145.87V125.892H145.801C145.648 126.224 145.409 126.507 145.086 126.74C144.762 126.97 144.353 127.085 143.858 127.085C143.449 127.085 143.086 126.996 142.767 126.817C142.449 126.635 142.199 126.362 142.017 125.999C141.836 125.632 141.745 125.17 141.745 124.614V120.455H142.75V124.545C142.75 125.023 142.884 125.403 143.151 125.688C143.421 125.972 143.765 126.114 144.182 126.114C144.432 126.114 144.686 126.05 144.945 125.922C145.206 125.794 145.425 125.598 145.601 125.334C145.78 125.07 145.87 124.733 145.87 124.324ZM151.462 127.136C150.831 127.136 150.287 126.997 149.83 126.719C149.375 126.438 149.024 126.045 148.777 125.543C148.533 125.037 148.411 124.449 148.411 123.778C148.411 123.108 148.533 122.517 148.777 122.006C149.024 121.491 149.368 121.091 149.808 120.804C150.251 120.514 150.768 120.369 151.359 120.369C151.7 120.369 152.037 120.426 152.369 120.54C152.702 120.653 153.004 120.838 153.277 121.094C153.55 121.347 153.767 121.682 153.929 122.099C154.091 122.517 154.172 123.031 154.172 123.642V124.068H149.126V123.199H153.149C153.149 122.83 153.075 122.5 152.928 122.21C152.783 121.92 152.575 121.692 152.305 121.524C152.038 121.357 151.723 121.273 151.359 121.273C150.959 121.273 150.612 121.372 150.32 121.571C150.03 121.767 149.807 122.023 149.651 122.338C149.494 122.653 149.416 122.991 149.416 123.352V123.932C149.416 124.426 149.501 124.845 149.672 125.189C149.845 125.53 150.085 125.79 150.392 125.969C150.699 126.145 151.055 126.233 151.462 126.233C151.726 126.233 151.964 126.196 152.178 126.122C152.393 126.045 152.58 125.932 152.736 125.781C152.892 125.628 153.013 125.437 153.098 125.21L154.07 125.483C153.967 125.812 153.795 126.102 153.554 126.352C153.313 126.599 153.014 126.793 152.659 126.932C152.304 127.068 151.905 127.136 151.462 127.136ZM156.707 123.062V127H155.702V120.455H156.673V121.477H156.759C156.912 121.145 157.145 120.878 157.457 120.676C157.77 120.472 158.173 120.369 158.668 120.369C159.111 120.369 159.499 120.46 159.831 120.642C160.163 120.821 160.422 121.094 160.607 121.46C160.791 121.824 160.884 122.284 160.884 122.841V127H159.878V122.909C159.878 122.395 159.744 121.994 159.477 121.707C159.21 121.418 158.844 121.273 158.378 121.273C158.057 121.273 157.77 121.342 157.517 121.482C157.267 121.621 157.07 121.824 156.925 122.091C156.78 122.358 156.707 122.682 156.707 123.062ZM165.568 120.455V121.307H162.176V120.455H165.568ZM163.164 118.886H164.17V125.125C164.17 125.409 164.211 125.622 164.294 125.764C164.379 125.903 164.487 125.997 164.618 126.045C164.751 126.091 164.892 126.114 165.039 126.114C165.15 126.114 165.241 126.108 165.312 126.097C165.383 126.082 165.44 126.071 165.483 126.062L165.687 126.966C165.619 126.991 165.524 127.017 165.402 127.043C165.279 127.071 165.125 127.085 164.937 127.085C164.653 127.085 164.375 127.024 164.102 126.902C163.832 126.78 163.608 126.594 163.429 126.344C163.252 126.094 163.164 125.778 163.164 125.398V118.886ZM167.081 127V120.455H168.086V127H167.081ZM167.592 119.364C167.396 119.364 167.227 119.297 167.085 119.163C166.946 119.03 166.876 118.869 166.876 118.682C166.876 118.494 166.946 118.334 167.085 118.2C167.227 118.067 167.396 118 167.592 118C167.788 118 167.956 118.067 168.095 118.2C168.237 118.334 168.308 118.494 168.308 118.682C168.308 118.869 168.237 119.03 168.095 119.163C167.956 119.297 167.788 119.364 167.592 119.364ZM171.854 127.153C171.44 127.153 171.063 127.075 170.725 126.919C170.387 126.76 170.119 126.531 169.92 126.233C169.721 125.932 169.621 125.568 169.621 125.142C169.621 124.767 169.695 124.463 169.843 124.23C169.991 123.994 170.188 123.81 170.435 123.676C170.683 123.543 170.955 123.443 171.254 123.378C171.555 123.31 171.857 123.256 172.161 123.216C172.559 123.165 172.881 123.126 173.129 123.101C173.379 123.072 173.56 123.026 173.674 122.96C173.79 122.895 173.849 122.781 173.849 122.619V122.585C173.849 122.165 173.734 121.838 173.504 121.605C173.276 121.372 172.931 121.256 172.468 121.256C171.988 121.256 171.612 121.361 171.339 121.571C171.066 121.781 170.874 122.006 170.763 122.244L169.809 121.903C169.979 121.506 170.207 121.196 170.491 120.974C170.778 120.75 171.09 120.594 171.428 120.506C171.769 120.415 172.104 120.369 172.434 120.369C172.644 120.369 172.886 120.395 173.158 120.446C173.434 120.494 173.7 120.595 173.955 120.749C174.214 120.902 174.428 121.134 174.599 121.443C174.769 121.753 174.854 122.168 174.854 122.688V127H173.849V126.114H173.798C173.729 126.256 173.616 126.408 173.457 126.57C173.298 126.732 173.086 126.869 172.822 126.983C172.558 127.097 172.235 127.153 171.854 127.153ZM172.008 126.25C172.406 126.25 172.741 126.172 173.013 126.016C173.289 125.859 173.496 125.658 173.636 125.411C173.778 125.163 173.849 124.903 173.849 124.631V123.71C173.806 123.761 173.712 123.808 173.567 123.851C173.425 123.891 173.261 123.926 173.073 123.957C172.888 123.986 172.708 124.011 172.532 124.034C172.359 124.054 172.218 124.071 172.11 124.085C171.849 124.119 171.604 124.175 171.377 124.251C171.153 124.325 170.971 124.437 170.832 124.588C170.695 124.736 170.627 124.937 170.627 125.193C170.627 125.543 170.756 125.807 171.015 125.986C171.276 126.162 171.607 126.25 172.008 126.25ZM177.696 118.273V127H176.69V118.273H177.696ZM185.572 127.136C184.958 127.136 184.43 126.991 183.987 126.702C183.543 126.412 183.202 126.013 182.964 125.504C182.725 124.996 182.606 124.415 182.606 123.761C182.606 123.097 182.728 122.51 182.972 122.001C183.219 121.49 183.563 121.091 184.004 120.804C184.447 120.514 184.964 120.369 185.555 120.369C186.015 120.369 186.43 120.455 186.799 120.625C187.168 120.795 187.471 121.034 187.707 121.341C187.942 121.648 188.089 122.006 188.146 122.415H187.14C187.063 122.116 186.893 121.852 186.629 121.622C186.367 121.389 186.015 121.273 185.572 121.273C185.18 121.273 184.836 121.375 184.54 121.58C184.248 121.781 184.019 122.067 183.854 122.436C183.692 122.803 183.612 123.233 183.612 123.727C183.612 124.233 183.691 124.673 183.85 125.048C184.012 125.423 184.239 125.714 184.532 125.922C184.827 126.129 185.174 126.233 185.572 126.233C185.833 126.233 186.07 126.188 186.283 126.097C186.496 126.006 186.677 125.875 186.825 125.705C186.972 125.534 187.077 125.33 187.14 125.091H188.146C188.089 125.477 187.948 125.825 187.724 126.135C187.502 126.442 187.208 126.686 186.842 126.868C186.478 127.047 186.055 127.136 185.572 127.136ZM192.275 127.136C191.684 127.136 191.165 126.996 190.719 126.714C190.276 126.433 189.93 126.04 189.68 125.534C189.433 125.028 189.309 124.437 189.309 123.761C189.309 123.08 189.433 122.484 189.68 121.976C189.93 121.467 190.276 121.072 190.719 120.791C191.165 120.51 191.684 120.369 192.275 120.369C192.866 120.369 193.383 120.51 193.826 120.791C194.272 121.072 194.619 121.467 194.866 121.976C195.116 122.484 195.241 123.08 195.241 123.761C195.241 124.437 195.116 125.028 194.866 125.534C194.619 126.04 194.272 126.433 193.826 126.714C193.383 126.996 192.866 127.136 192.275 127.136ZM192.275 126.233C192.724 126.233 193.093 126.118 193.383 125.888C193.673 125.658 193.887 125.355 194.026 124.98C194.165 124.605 194.235 124.199 194.235 123.761C194.235 123.324 194.165 122.916 194.026 122.538C193.887 122.161 193.673 121.855 193.383 121.622C193.093 121.389 192.724 121.273 192.275 121.273C191.826 121.273 191.457 121.389 191.167 121.622C190.877 121.855 190.663 122.161 190.523 122.538C190.384 122.916 190.315 123.324 190.315 123.761C190.315 124.199 190.384 124.605 190.523 124.98C190.663 125.355 190.877 125.658 191.167 125.888C191.457 126.118 191.826 126.233 192.275 126.233ZM196.776 127V120.455H197.748V121.477H197.833C197.969 121.128 198.189 120.857 198.493 120.663C198.797 120.467 199.162 120.369 199.588 120.369C200.02 120.369 200.38 120.467 200.667 120.663C200.956 120.857 201.182 121.128 201.344 121.477H201.412C201.58 121.139 201.831 120.871 202.167 120.672C202.502 120.47 202.904 120.369 203.373 120.369C203.958 120.369 204.436 120.553 204.809 120.919C205.181 121.283 205.367 121.849 205.367 122.619V127H204.361V122.619C204.361 122.136 204.229 121.791 203.965 121.584C203.701 121.376 203.39 121.273 203.032 121.273C202.571 121.273 202.215 121.412 201.962 121.69C201.709 121.966 201.583 122.315 201.583 122.739V127H200.56V122.517C200.56 122.145 200.439 121.845 200.198 121.618C199.956 121.388 199.645 121.273 199.265 121.273C199.003 121.273 198.759 121.342 198.532 121.482C198.307 121.621 198.125 121.814 197.986 122.061C197.85 122.305 197.782 122.588 197.782 122.909V127H196.776ZM207.206 129.455V120.455H208.177V121.494H208.297C208.37 121.381 208.473 121.236 208.603 121.06C208.737 120.881 208.927 120.722 209.174 120.582C209.424 120.44 209.762 120.369 210.189 120.369C210.74 120.369 211.225 120.507 211.646 120.783C212.066 121.058 212.395 121.449 212.63 121.955C212.866 122.46 212.984 123.057 212.984 123.744C212.984 124.438 212.866 125.038 212.63 125.547C212.395 126.053 212.068 126.445 211.65 126.723C211.233 126.999 210.751 127.136 210.206 127.136C209.785 127.136 209.449 127.067 209.196 126.928C208.943 126.786 208.748 126.625 208.612 126.446C208.475 126.264 208.37 126.114 208.297 125.994H208.211V129.455H207.206ZM208.194 123.727C208.194 124.222 208.267 124.658 208.412 125.036C208.556 125.411 208.768 125.705 209.047 125.918C209.325 126.128 209.666 126.233 210.069 126.233C210.49 126.233 210.841 126.122 211.122 125.901C211.406 125.676 211.619 125.375 211.761 124.997C211.906 124.616 211.978 124.193 211.978 123.727C211.978 123.267 211.907 122.852 211.765 122.483C211.626 122.111 211.414 121.817 211.13 121.601C210.849 121.382 210.495 121.273 210.069 121.273C209.66 121.273 209.316 121.376 209.038 121.584C208.76 121.788 208.549 122.075 208.407 122.445C208.265 122.811 208.194 123.239 208.194 123.727ZM218.643 124.324V120.455H219.649V127H218.643V125.892H218.575C218.422 126.224 218.183 126.507 217.859 126.74C217.535 126.97 217.126 127.085 216.632 127.085C216.223 127.085 215.859 126.996 215.541 126.817C215.223 126.635 214.973 126.362 214.791 125.999C214.609 125.632 214.518 125.17 214.518 124.614V120.455H215.524V124.545C215.524 125.023 215.657 125.403 215.924 125.688C216.194 125.972 216.538 126.114 216.956 126.114C217.206 126.114 217.46 126.05 217.718 125.922C217.98 125.794 218.199 125.598 218.375 125.334C218.554 125.07 218.643 124.733 218.643 124.324ZM224.337 120.455V121.307H220.945V120.455H224.337ZM221.934 118.886H222.94V125.125C222.94 125.409 222.981 125.622 223.063 125.764C223.148 125.903 223.256 125.997 223.387 126.045C223.521 126.091 223.661 126.114 223.809 126.114C223.92 126.114 224.011 126.108 224.082 126.097C224.153 126.082 224.21 126.071 224.252 126.062L224.457 126.966C224.388 126.991 224.293 127.017 224.171 127.043C224.049 127.071 223.894 127.085 223.707 127.085C223.423 127.085 223.144 127.024 222.871 126.902C222.602 126.78 222.377 126.594 222.198 126.344C222.022 126.094 221.934 125.778 221.934 125.398V118.886ZM227.776 127.153C227.362 127.153 226.985 127.075 226.647 126.919C226.309 126.76 226.04 126.531 225.842 126.233C225.643 125.932 225.543 125.568 225.543 125.142C225.543 124.767 225.617 124.463 225.765 124.23C225.913 123.994 226.11 123.81 226.357 123.676C226.604 123.543 226.877 123.443 227.175 123.378C227.477 123.31 227.779 123.256 228.083 123.216C228.481 123.165 228.803 123.126 229.05 123.101C229.3 123.072 229.482 123.026 229.596 122.96C229.712 122.895 229.771 122.781 229.771 122.619V122.585C229.771 122.165 229.656 121.838 229.425 121.605C229.198 121.372 228.853 121.256 228.39 121.256C227.91 121.256 227.533 121.361 227.261 121.571C226.988 121.781 226.796 122.006 226.685 122.244L225.731 121.903C225.901 121.506 226.129 121.196 226.413 120.974C226.7 120.75 227.012 120.594 227.35 120.506C227.691 120.415 228.026 120.369 228.356 120.369C228.566 120.369 228.808 120.395 229.08 120.446C229.356 120.494 229.621 120.595 229.877 120.749C230.136 120.902 230.35 121.134 230.521 121.443C230.691 121.753 230.776 122.168 230.776 122.688V127H229.771V126.114H229.719C229.651 126.256 229.538 126.408 229.379 126.57C229.219 126.732 229.008 126.869 228.744 126.983C228.479 127.097 228.157 127.153 227.776 127.153ZM227.93 126.25C228.327 126.25 228.663 126.172 228.935 126.016C229.211 125.859 229.418 125.658 229.558 125.411C229.7 125.163 229.771 124.903 229.771 124.631V123.71C229.728 123.761 229.634 123.808 229.489 123.851C229.347 123.891 229.183 123.926 228.995 123.957C228.81 123.986 228.63 124.011 228.454 124.034C228.281 124.054 228.14 124.071 228.032 124.085C227.771 124.119 227.526 124.175 227.299 124.251C227.075 124.325 226.893 124.437 226.754 124.588C226.617 124.736 226.549 124.937 226.549 125.193C226.549 125.543 226.678 125.807 226.937 125.986C227.198 126.162 227.529 126.25 227.93 126.25ZM235.458 120.455V121.307H232.066V120.455H235.458ZM233.055 118.886H234.061V125.125C234.061 125.409 234.102 125.622 234.184 125.764C234.27 125.903 234.377 125.997 234.508 126.045C234.642 126.091 234.782 126.114 234.93 126.114C235.041 126.114 235.132 126.108 235.203 126.097C235.274 126.082 235.331 126.071 235.373 126.062L235.578 126.966C235.51 126.991 235.414 127.017 235.292 127.043C235.17 127.071 235.015 127.085 234.828 127.085C234.544 127.085 234.265 127.024 233.993 126.902C233.723 126.78 233.498 126.594 233.319 126.344C233.143 126.094 233.055 125.778 233.055 125.398V118.886ZM236.971 127V120.455H237.977V127H236.971ZM237.483 119.364C237.287 119.364 237.118 119.297 236.975 119.163C236.836 119.03 236.767 118.869 236.767 118.682C236.767 118.494 236.836 118.334 236.975 118.2C237.118 118.067 237.287 118 237.483 118C237.679 118 237.846 118.067 237.985 118.2C238.127 118.334 238.199 118.494 238.199 118.682C238.199 118.869 238.127 119.03 237.985 119.163C237.846 119.297 237.679 119.364 237.483 119.364ZM242.478 127.136C241.887 127.136 241.369 126.996 240.923 126.714C240.479 126.433 240.133 126.04 239.883 125.534C239.636 125.028 239.512 124.437 239.512 123.761C239.512 123.08 239.636 122.484 239.883 121.976C240.133 121.467 240.479 121.072 240.923 120.791C241.369 120.51 241.887 120.369 242.478 120.369C243.069 120.369 243.586 120.51 244.029 120.791C244.475 121.072 244.822 121.467 245.069 121.976C245.319 122.484 245.444 123.08 245.444 123.761C245.444 124.437 245.319 125.028 245.069 125.534C244.822 126.04 244.475 126.433 244.029 126.714C243.586 126.996 243.069 127.136 242.478 127.136ZM242.478 126.233C242.927 126.233 243.296 126.118 243.586 125.888C243.876 125.658 244.09 125.355 244.229 124.98C244.369 124.605 244.438 124.199 244.438 123.761C244.438 123.324 244.369 122.916 244.229 122.538C244.09 122.161 243.876 121.855 243.586 121.622C243.296 121.389 242.927 121.273 242.478 121.273C242.029 121.273 241.66 121.389 241.37 121.622C241.08 121.855 240.866 122.161 240.727 122.538C240.587 122.916 240.518 123.324 240.518 123.761C240.518 124.199 240.587 124.605 240.727 124.98C240.866 125.355 241.08 125.658 241.37 125.888C241.66 126.118 242.029 126.233 242.478 126.233ZM247.985 123.062V127H246.979V120.455H247.951V121.477H248.036C248.189 121.145 248.422 120.878 248.735 120.676C249.047 120.472 249.451 120.369 249.945 120.369C250.388 120.369 250.776 120.46 251.108 120.642C251.441 120.821 251.699 121.094 251.884 121.46C252.069 121.824 252.161 122.284 252.161 122.841V127H251.155V122.909C251.155 122.395 251.022 121.994 250.755 121.707C250.488 121.418 250.121 121.273 249.655 121.273C249.334 121.273 249.047 121.342 248.794 121.482C248.544 121.621 248.347 121.824 248.202 122.091C248.057 122.358 247.985 122.682 247.985 123.062ZM265.232 122.636C265.232 123.588 265.051 124.398 264.69 125.065C264.332 125.733 263.844 126.243 263.224 126.595C262.608 126.945 261.915 127.119 261.145 127.119C260.369 127.119 259.673 126.943 259.057 126.591C258.44 126.239 257.953 125.729 257.595 125.061C257.237 124.393 257.058 123.585 257.058 122.636C257.058 121.685 257.237 120.875 257.595 120.207C257.953 119.54 258.44 119.031 259.057 118.682C259.673 118.33 260.369 118.153 261.145 118.153C261.915 118.153 262.608 118.33 263.224 118.682C263.844 119.031 264.332 119.54 264.69 120.207C265.051 120.875 265.232 121.685 265.232 122.636ZM263.361 122.636C263.361 122.02 263.268 121.5 263.084 121.077C262.902 120.653 262.645 120.332 262.312 120.114C261.98 119.895 261.591 119.786 261.145 119.786C260.699 119.786 260.31 119.895 259.977 120.114C259.645 120.332 259.386 120.653 259.202 121.077C259.02 121.5 258.929 122.02 258.929 122.636C258.929 123.253 259.02 123.773 259.202 124.196C259.386 124.619 259.645 124.94 259.977 125.159C260.31 125.378 260.699 125.487 261.145 125.487C261.591 125.487 261.98 125.378 262.312 125.159C262.645 124.94 262.902 124.619 263.084 124.196C263.268 123.773 263.361 123.253 263.361 122.636ZM266.965 123.501C266.965 122.445 267.105 121.472 267.387 120.582C267.671 119.693 268.104 118.869 268.686 118.111H270.421C270.199 118.392 269.993 118.736 269.803 119.142C269.613 119.545 269.446 119.989 269.304 120.472C269.162 120.955 269.051 121.455 268.972 121.972C268.892 122.486 268.853 122.996 268.853 123.501C268.853 124.175 268.921 124.855 269.057 125.543C269.196 126.227 269.384 126.864 269.62 127.452C269.858 128.04 270.125 128.521 270.421 128.896H268.686C268.104 128.138 267.671 127.314 267.387 126.425C267.105 125.536 266.965 124.561 266.965 123.501ZM273.29 123.216V127H271.474V120.455H273.205V121.609H273.281C273.426 121.229 273.669 120.928 274.01 120.706C274.351 120.482 274.764 120.369 275.25 120.369C275.705 120.369 276.101 120.469 276.439 120.668C276.777 120.866 277.04 121.151 277.227 121.52C277.415 121.886 277.509 122.324 277.509 122.832V127H275.693V123.156C275.696 122.756 275.594 122.443 275.386 122.219C275.179 121.991 274.893 121.878 274.53 121.878C274.286 121.878 274.07 121.93 273.882 122.036C273.697 122.141 273.553 122.294 273.447 122.496C273.345 122.695 273.293 122.935 273.29 123.216ZM281.999 123.501C281.999 124.561 281.857 125.536 281.573 126.425C281.292 127.314 280.86 128.138 280.277 128.896H278.543C278.765 128.615 278.971 128.271 279.161 127.865C279.351 127.459 279.517 127.016 279.659 126.536C279.801 126.053 279.912 125.553 279.992 125.036C280.071 124.518 280.111 124.007 280.111 123.501C280.111 122.828 280.042 122.149 279.902 121.464C279.766 120.777 279.578 120.141 279.34 119.555C279.104 118.967 278.838 118.486 278.543 118.111H280.277C280.86 118.869 281.292 119.693 281.573 120.582C281.857 121.472 281.999 122.445 281.999 123.501Z" fill="#6C6C6C"/>
<line x1="65" y1="42.5399" x2="71" y2="42.5399" stroke="#828282"/>
<path d="M154.917 53V44.2727H158.258C158.889 44.2727 159.413 44.3722 159.831 44.571C160.251 44.767 160.565 45.0355 160.773 45.3764C160.983 45.7173 161.088 46.1037 161.088 46.5355C161.088 46.8906 161.02 47.1946 160.883 47.4474C160.747 47.6974 160.564 47.9006 160.334 48.0568C160.104 48.2131 159.846 48.3253 159.562 48.3935V48.4787C159.872 48.4957 160.169 48.5909 160.453 48.7642C160.74 48.9347 160.974 49.1761 161.156 49.4886C161.338 49.8011 161.429 50.179 161.429 50.6222C161.429 51.0739 161.319 51.4801 161.101 51.8409C160.882 52.1989 160.552 52.4815 160.112 52.6889C159.672 52.8963 159.118 53 158.45 53H154.917ZM156.498 51.679H158.199C158.773 51.679 159.186 51.5696 159.439 51.3509C159.694 51.1293 159.822 50.8452 159.822 50.4986C159.822 50.2401 159.758 50.0071 159.631 49.7997C159.503 49.5895 159.321 49.4247 159.085 49.3054C158.849 49.1832 158.568 49.1222 158.241 49.1222H156.498V51.679ZM156.498 47.9844H158.062C158.335 47.9844 158.581 47.9347 158.8 47.8352C159.018 47.733 159.19 47.5895 159.315 47.4048C159.443 47.2173 159.507 46.9957 159.507 46.7401C159.507 46.402 159.388 46.1236 159.149 45.9048C158.913 45.6861 158.562 45.5767 158.096 45.5767H156.498V47.9844Z" fill="#828282"/>
<line x1="155" y1="42.5399" x2="161" y2="42.5399" stroke="#828282"/>
<path d="M244.917 53V44.2727H248.258C248.889 44.2727 249.413 44.3722 249.831 44.571C250.251 44.767 250.565 45.0355 250.773 45.3764C250.983 45.7173 251.088 46.1037 251.088 46.5355C251.088 46.8906 251.02 47.1946 250.883 47.4474C250.747 47.6974 250.564 47.9006 250.334 48.0568C250.104 48.2131 249.846 48.3253 249.562 48.3935V48.4787C249.872 48.4957 250.169 48.5909 250.453 48.7642C250.74 48.9347 250.974 49.1761 251.156 49.4886C251.338 49.8011 251.429 50.179 251.429 50.6222C251.429 51.0739 251.319 51.4801 251.101 51.8409C250.882 52.1989 250.552 52.4815 250.112 52.6889C249.672 52.8963 249.118 53 248.45 53H244.917ZM246.498 51.679H248.199C248.773 51.679 249.186 51.5696 249.439 51.3509C249.694 51.1293 249.822 50.8452 249.822 50.4986C249.822 50.2401 249.758 50.0071 249.631 49.7997C249.503 49.5895 249.321 49.4247 249.085 49.3054C248.849 49.1832 248.568 49.1222 248.241 49.1222H246.498V51.679ZM246.498 47.9844H248.062C248.335 47.9844 248.581 47.9347 248.8 47.8352C249.018 47.733 249.19 47.5895 249.315 47.4048C249.443 47.2173 249.507 46.9957 249.507 46.7401C249.507 46.402 249.388 46.1236 249.149 45.9048C248.913 45.6861 248.562 45.5767 248.096 45.5767H246.498V47.9844Z" fill="#828282"/>
<line x1="245" y1="42.5399" x2="251" y2="42.5399" stroke="#828282"/>
<path d="M334.917 53V44.2727H338.258C338.889 44.2727 339.413 44.3722 339.831 44.571C340.251 44.767 340.565 45.0355 340.773 45.3764C340.983 45.7173 341.088 46.1037 341.088 46.5355C341.088 46.8906 341.02 47.1946 340.883 47.4474C340.747 47.6974 340.564 47.9006 340.334 48.0568C340.104 48.2131 339.846 48.3253 339.562 48.3935V48.4787C339.872 48.4957 340.169 48.5909 340.453 48.7642C340.74 48.9347 340.974 49.1761 341.156 49.4886C341.338 49.8011 341.429 50.179 341.429 50.6222C341.429 51.0739 341.319 51.4801 341.101 51.8409C340.882 52.1989 340.552 52.4815 340.112 52.6889C339.672 52.8963 339.118 53 338.45 53H334.917ZM336.498 51.679H338.199C338.773 51.679 339.186 51.5696 339.439 51.3509C339.694 51.1293 339.822 50.8452 339.822 50.4986C339.822 50.2401 339.758 50.0071 339.631 49.7997C339.503 49.5895 339.321 49.4247 339.085 49.3054C338.849 49.1832 338.568 49.1222 338.241 49.1222H336.498V51.679ZM336.498 47.9844H338.062C338.335 47.9844 338.581 47.9347 338.8 47.8352C339.018 47.733 339.19 47.5895 339.315 47.4048C339.443 47.2173 339.507 46.9957 339.507 46.7401C339.507 46.402 339.388 46.1236 339.149 45.9048C338.913 45.6861 338.562 45.5767 338.096 45.5767H336.498V47.9844Z" fill="#828282"/>
<line x1="335" y1="42.5399" x2="341" y2="42.5399" stroke="#828282"/>
<rect x="30" y="70" width="58" height="31" rx="8" fill="#BAFBFF" stroke="#4C7477" stroke-width="2"/>
<path d="M53.396 90V81.2727H54.9769V84.9673H59.021V81.2727H60.6062V90H59.021V86.2926H54.9769V90H53.396Z" fill="#4C7477"/>
<path d="M65 94.0994C64.465 94.0994 64.0092 93.9538 63.6328 93.6626C63.2564 93.3691 62.9688 92.9441 62.7699 92.3878C62.571 91.8291 62.4716 91.1544 62.4716 90.3636C62.4716 89.5777 62.571 88.9065 62.7699 88.3501C62.9711 87.7914 63.2599 87.3653 63.6364 87.0717C64.0152 86.7758 64.4697 86.6278 65 86.6278C65.5303 86.6278 65.9837 86.7758 66.3601 87.0717C66.7389 87.3653 67.0277 87.7914 67.2266 88.3501C67.4278 88.9065 67.5284 89.5777 67.5284 90.3636C67.5284 91.1544 67.429 91.8291 67.2301 92.3878C67.0312 92.9441 66.7436 93.3691 66.3672 93.6626C65.9908 93.9538 65.535 94.0994 65 94.0994ZM65 93.3182C65.5303 93.3182 65.9422 93.0625 66.2358 92.5511C66.5294 92.0398 66.6761 91.3106 66.6761 90.3636C66.6761 89.7339 66.6087 89.1977 66.4737 88.755C66.3411 88.3123 66.1494 87.9749 65.8984 87.7429C65.6499 87.5109 65.3504 87.3949 65 87.3949C64.4744 87.3949 64.0637 87.6541 63.7678 88.1726C63.4718 88.6887 63.3239 89.419 63.3239 90.3636C63.3239 90.9934 63.3902 91.5284 63.5227 91.9688C63.6553 92.4091 63.8459 92.7441 64.0945 92.9737C64.3454 93.2034 64.6473 93.3182 65 93.3182Z" fill="#828282"/>
<rect x="121" y="70" width="58" height="31" rx="8" fill="#BAFBFF" stroke="#4C7477" stroke-width="2"/>
<path d="M144.396 90V81.2727H145.977V84.9673H150.021V81.2727H151.606V90H150.021V86.2926H145.977V90H144.396Z" fill="#4C7477"/>
<path d="M156.985 86.7273V94H156.105V87.6506H156.062L154.287 88.8295V87.9347L156.105 86.7273H156.985Z" fill="#828282"/>
<rect x="212" y="70" width="58" height="31" rx="8" fill="#BAFBFF" stroke="#4C7477" stroke-width="2"/>
<path d="M235.396 90V81.2727H236.977V84.9673H241.021V81.2727H242.606V90H241.021V86.2926H236.977V90H235.396Z" fill="#4C7477"/>
<path d="M244.725 94V93.3608L247.126 90.733C247.408 90.4252 247.64 90.1577 247.822 89.9304C248.004 89.7008 248.139 89.4853 248.227 89.2841C248.317 89.0805 248.362 88.8674 248.362 88.6449C248.362 88.3892 248.3 88.1679 248.177 87.9808C248.056 87.7938 247.891 87.6494 247.68 87.5476C247.469 87.4458 247.233 87.3949 246.97 87.3949C246.69 87.3949 246.447 87.4529 246.238 87.5689C246.032 87.6825 245.873 87.8423 245.759 88.0483C245.648 88.2543 245.592 88.4957 245.592 88.7727H244.754C244.754 88.3466 244.852 87.9725 245.049 87.6506C245.245 87.3286 245.513 87.0777 245.851 86.8977C246.192 86.7178 246.574 86.6278 246.998 86.6278C247.424 86.6278 247.802 86.7178 248.131 86.8977C248.46 87.0777 248.718 87.3203 248.905 87.6257C249.092 87.9311 249.186 88.2708 249.186 88.6449C249.186 88.9124 249.137 89.174 249.04 89.4297C248.945 89.683 248.78 89.9659 248.543 90.2784C248.309 90.5885 247.983 90.9673 247.566 91.4148L245.933 93.1619V93.2188H249.314V94H244.725Z" fill="#828282"/>
<path d="M377.354 113.354C377.549 113.158 377.549 112.842 377.354 112.646L374.172 109.464C373.976 109.269 373.66 109.269 373.464 109.464C373.269 109.66 373.269 109.976 373.464 110.172L376.293 113L373.464 115.828C373.269 116.024 373.269 116.34 373.464 116.536C373.66 116.731 373.976 116.731 374.172 116.536L377.354 113.354ZM17 113.5H377V112.5H17V113.5Z" fill="#6C6C6C"/>
<path d="M117 86L107 80.2265V91.7735L117 86ZM92 87H108V85H92V87Z" fill="#DDDDDD"/>
<path d="M59.5 66.5L65.2735 56.5L53.7265 56.5L59.5 66.5ZM58.5 41.5L58.5 57.5L60.5 57.5L60.5 41.5L58.5 41.5Z" fill="#DDDDDD"/>
<rect x="125.807" y="6" width="48.1185" height="31.2732" rx="15.6366" fill="#F6ECEC" stroke="#BE3B3B" stroke-width="2"/>
<path d="M144.905 17.2727L146.827 20.4688H146.895L148.826 17.2727H150.628L147.939 21.6364L150.671 26H148.838L146.895 22.8253H146.827L144.884 26H143.06L145.817 21.6364L143.094 17.2727H144.905Z" fill="#BE3B3B"/>
<path d="M154.868 23.7671V31.0399H153.988V24.6904H153.945L152.169 25.8694V24.9745L153.988 23.7671H154.868Z" fill="#828282"/>
<path d="M149.5 66.5L155.274 56.5L143.726 56.5L149.5 66.5ZM148.5 41.5L148.5 57.5L150.5 57.5L150.5 41.5L148.5 41.5Z" fill="#DDDDDD"/>
<rect x="215.807" y="6" width="48.1185" height="31.2732" rx="15.6366" fill="#F6ECEC" stroke="#BE3B3B" stroke-width="2"/>
<path d="M234.905 17.2727L236.827 20.4688H236.895L238.826 17.2727H240.628L237.939 21.6364L240.671 26H238.838L236.895 22.8253H236.827L234.884 26H233.06L235.817 21.6364L233.094 17.2727H234.905Z" fill="#BE3B3B"/>
<path d="M241.608 31.0399V30.4007L244.009 27.7728C244.291 27.465 244.523 27.1975 244.705 26.9703C244.887 26.7406 245.022 26.5252 245.11 26.3239C245.2 26.1203 245.245 25.9073 245.245 25.6847C245.245 25.4291 245.183 25.2077 245.06 25.0207C244.939 24.8337 244.774 24.6892 244.563 24.5874C244.352 24.4856 244.115 24.4347 243.853 24.4347C243.573 24.4347 243.329 24.4927 243.121 24.6087C242.915 24.7224 242.755 24.8822 242.642 25.0882C242.53 25.2941 242.475 25.5356 242.475 25.8126H241.637C241.637 25.3864 241.735 25.0124 241.931 24.6904C242.128 24.3685 242.395 24.1175 242.734 23.9376C243.075 23.7577 243.457 23.6677 243.881 23.6677C244.307 23.6677 244.685 23.7577 245.014 23.9376C245.343 24.1175 245.601 24.3602 245.788 24.6656C245.975 24.971 246.069 25.3107 246.069 25.6847C246.069 25.9523 246.02 26.2139 245.923 26.4695C245.828 26.7229 245.663 27.0058 245.426 27.3183C245.191 27.6284 244.866 28.0072 244.449 28.4546L242.816 30.2018V30.2586H246.196V31.0399H241.608Z" fill="#828282"/>
<path d="M239.5 66.5L245.274 56.5L233.726 56.5L239.5 66.5ZM238.5 41.5L238.5 57.5L240.5 57.5L240.5 41.5L238.5 41.5Z" fill="#DDDDDD"/>
<rect x="305.807" y="6" width="48.1185" height="31.2732" rx="15.6366" fill="#F6ECEC" stroke="#BE3B3B" stroke-width="2"/>
<path d="M324.905 17.2727L326.827 20.4688H326.895L328.826 17.2727H330.628L327.939 21.6364L330.671 26H328.838L326.895 22.8253H326.827L324.884 26H323.06L325.817 21.6364L323.094 17.2727H324.905Z" fill="#BE3B3B"/>
<path d="M333.909 31.1393C333.441 31.1393 333.023 31.0588 332.656 30.8978C332.291 30.7368 332.001 30.5131 331.786 30.2266C331.573 29.9378 331.457 29.6028 331.438 29.2217H332.333C332.352 29.456 332.432 29.6585 332.574 29.8289C332.716 29.997 332.902 30.1272 333.132 30.2195C333.361 30.3119 333.616 30.358 333.895 30.358C334.208 30.358 334.485 30.3036 334.726 30.1947C334.968 30.0858 335.157 29.9343 335.294 29.7401C335.432 29.546 335.5 29.3211 335.5 29.0654C335.5 28.7979 335.434 28.5623 335.301 28.3587C335.169 28.1528 334.975 27.9918 334.719 27.8758C334.463 27.7598 334.151 27.7018 333.782 27.7018H333.199V26.9205H333.782C334.07 26.9205 334.324 26.8685 334.542 26.7643C334.762 26.6601 334.933 26.5133 335.056 26.3239C335.182 26.1346 335.245 25.912 335.245 25.6563C335.245 25.4101 335.19 25.1959 335.081 25.0136C334.972 24.8313 334.819 24.6892 334.62 24.5874C334.423 24.4856 334.191 24.4347 333.924 24.4347C333.673 24.4347 333.436 24.4809 333.213 24.5732C332.993 24.6632 332.813 24.7946 332.674 24.9674C332.534 25.1379 332.458 25.3438 332.446 25.5853H331.594C331.608 25.2042 331.723 24.8703 331.939 24.5839C332.154 24.2951 332.436 24.0702 332.784 23.9092C333.134 23.7482 333.519 23.6677 333.938 23.6677C334.388 23.6677 334.774 23.7588 335.096 23.9411C335.417 24.1211 335.665 24.359 335.838 24.6549C336.011 24.9508 336.097 25.2704 336.097 25.6137C336.097 26.0233 335.989 26.3725 335.774 26.6613C335.561 26.9501 335.271 27.1502 334.904 27.2614V27.3183C335.363 27.394 335.722 27.5893 335.98 27.9042C336.238 28.2167 336.367 28.6038 336.367 29.0654C336.367 29.4608 336.259 29.8159 336.044 30.1308C335.831 30.4433 335.539 30.6895 335.17 30.8694C334.801 31.0493 334.381 31.1393 333.909 31.1393Z" fill="#828282"/>
<path d="M329.5 66.5L335.274 56.5L323.726 56.5L329.5 66.5ZM328.5 41.5L328.5 57.5L330.5 57.5L330.5 41.5L328.5 41.5Z" fill="#DDDDDD"/>
<path d="M208 86L198 80.2265V91.7735L208 86ZM183 87H199V85H183V87Z" fill="#DDDDDD"/>
<rect x="303" y="70" width="58" height="31" rx="8" fill="#BAFBFF" stroke="#4C7477" stroke-width="2"/>
<path d="M326.396 90V81.2727H327.977V84.9673H332.021V81.2727H333.606V90H332.021V86.2926H327.977V90H326.396Z" fill="#4C7477"/>
<path d="M338.027 94.0994C337.558 94.0994 337.14 94.0189 336.773 93.858C336.408 93.697 336.118 93.4732 335.903 93.1868C335.69 92.898 335.574 92.563 335.555 92.1818H336.45C336.469 92.4162 336.549 92.6186 336.691 92.7891C336.833 92.9571 337.019 93.0874 337.249 93.1797C337.479 93.272 337.733 93.3182 338.012 93.3182C338.325 93.3182 338.602 93.2637 338.843 93.1548C339.085 93.0459 339.274 92.8944 339.412 92.7003C339.549 92.5062 339.618 92.2812 339.618 92.0256C339.618 91.758 339.551 91.5225 339.419 91.3189C339.286 91.1129 339.092 90.9519 338.836 90.8359C338.581 90.7199 338.268 90.6619 337.899 90.6619H337.316V89.8807H337.899C338.188 89.8807 338.441 89.8286 338.659 89.7244C338.879 89.6203 339.051 89.4735 339.174 89.2841C339.299 89.0947 339.362 88.8722 339.362 88.6165C339.362 88.3703 339.307 88.156 339.199 87.9737C339.09 87.7914 338.936 87.6494 338.737 87.5476C338.54 87.4458 338.308 87.3949 338.041 87.3949C337.79 87.3949 337.553 87.4411 337.331 87.5334C337.11 87.6233 336.931 87.7547 336.791 87.9276C336.651 88.098 336.575 88.304 336.564 88.5455H335.711C335.725 88.1643 335.84 87.8305 336.056 87.544C336.271 87.2552 336.553 87.0303 336.901 86.8693C337.251 86.7083 337.636 86.6278 338.055 86.6278C338.505 86.6278 338.891 86.719 339.213 86.9013C339.535 87.0812 339.782 87.3191 339.955 87.6151C340.128 87.911 340.214 88.2306 340.214 88.5739C340.214 88.9834 340.106 89.3326 339.891 89.6214C339.678 89.9103 339.388 90.1103 339.021 90.2216V90.2784C339.48 90.3542 339.839 90.5495 340.097 90.8643C340.355 91.1768 340.484 91.5639 340.484 92.0256C340.484 92.4209 340.376 92.776 340.161 93.0909C339.948 93.4034 339.657 93.6496 339.287 93.8295C338.918 94.0095 338.498 94.0994 338.027 94.0994Z" fill="#828282"/>
<path d="M299 86L289 80.2265V91.7735L299 86ZM274 87H290V85H274V87Z" fill="#DDDDDD"/>
</svg>
