<svg width="655" height="270" viewBox="0 0 655 270" fill="none" xmlns="http://www.w3.org/2000/svg">
<rect width="655" height="270" fill="white"/>
<path d="M25.7358 35V17.5455H29.4261V25.2415H29.6562L35.9375 17.5455H40.3608L33.8835 25.3608L40.4375 35H36.0227L31.2415 27.8239L29.4261 30.0398V35H25.7358ZM47.2195 35.2557C45.8729 35.2557 44.7138 34.983 43.7422 34.4375C42.7763 33.8864 42.032 33.108 41.5092 32.1023C40.9865 31.0909 40.7251 29.8949 40.7251 28.5142C40.7251 27.1676 40.9865 25.9858 41.5092 24.9688C42.032 23.9517 42.7678 23.1591 43.7166 22.5909C44.6712 22.0227 45.7905 21.7386 47.0746 21.7386C47.9382 21.7386 48.7422 21.8778 49.4865 22.1562C50.2365 22.429 50.8899 22.8409 51.4467 23.392C52.0092 23.9432 52.4467 24.6364 52.7592 25.4716C53.0717 26.3011 53.228 27.2727 53.228 28.3864V29.3835H42.174V27.1335H49.8104C49.8104 26.6108 49.6967 26.1477 49.4695 25.7443C49.2422 25.3409 48.9268 25.0256 48.5234 24.7983C48.1257 24.5653 47.6626 24.4489 47.1342 24.4489C46.5831 24.4489 46.0945 24.5767 45.6683 24.8324C45.2479 25.0824 44.9183 25.4205 44.6797 25.8466C44.4411 26.267 44.3189 26.7358 44.3132 27.2528V29.392C44.3132 30.0398 44.4325 30.5994 44.6712 31.071C44.9155 31.5426 45.2592 31.9062 45.7024 32.1619C46.1456 32.4176 46.6712 32.5455 47.2791 32.5455C47.6825 32.5455 48.0518 32.4886 48.3871 32.375C48.7223 32.2614 49.0092 32.0909 49.2479 31.8636C49.4865 31.6364 49.6683 31.358 49.7933 31.0284L53.1513 31.25C52.9808 32.0568 52.6314 32.7614 52.103 33.3636C51.5803 33.9602 50.9041 34.4261 50.0746 34.7614C49.2507 35.0909 48.299 35.2557 47.2195 35.2557ZM55.5973 35V21.9091H59.1172V24.1932H59.2536C59.4922 23.3807 59.8928 22.767 60.4553 22.3523C61.0178 21.9318 61.6655 21.7216 62.3984 21.7216C62.5803 21.7216 62.7763 21.733 62.9865 21.7557C63.1967 21.7784 63.3814 21.8097 63.5405 21.8494V25.071C63.37 25.0199 63.1342 24.9744 62.8331 24.9347C62.532 24.8949 62.2564 24.875 62.0064 24.875C61.4723 24.875 60.995 24.9915 60.5746 25.2244C60.1598 25.4517 59.8303 25.7699 59.5859 26.179C59.3473 26.5881 59.228 27.0597 59.228 27.5938V35H55.5973ZM69.0483 27.4318V35H65.4176V21.9091H68.8778V24.2188H69.0312C69.321 23.4574 69.8068 22.8551 70.4886 22.4119C71.1705 21.9631 71.9972 21.7386 72.9688 21.7386C73.8778 21.7386 74.6705 21.9375 75.3466 22.3352C76.0227 22.733 76.5483 23.3011 76.9233 24.0398C77.2983 24.7727 77.4858 25.6477 77.4858 26.6648V35H73.8551V27.3125C73.8608 26.5114 73.6563 25.8864 73.2415 25.4375C72.8267 24.983 72.2557 24.7557 71.5284 24.7557C71.0398 24.7557 70.608 24.8608 70.233 25.071C69.8636 25.2812 69.5739 25.5881 69.3636 25.9915C69.1591 26.3892 69.054 26.8693 69.0483 27.4318ZM86.3132 35.2557C84.9666 35.2557 83.8075 34.983 82.8359 34.4375C81.87 33.8864 81.1257 33.108 80.603 32.1023C80.0803 31.0909 79.8189 29.8949 79.8189 28.5142C79.8189 27.1676 80.0803 25.9858 80.603 24.9688C81.1257 23.9517 81.8615 23.1591 82.8104 22.5909C83.7649 22.0227 84.8842 21.7386 86.1683 21.7386C87.032 21.7386 87.8359 21.8778 88.5803 22.1562C89.3303 22.429 89.9837 22.8409 90.5405 23.392C91.103 23.9432 91.5405 24.6364 91.853 25.4716C92.1655 26.3011 92.3217 27.2727 92.3217 28.3864V29.3835H81.2678V27.1335H88.9041C88.9041 26.6108 88.7905 26.1477 88.5632 25.7443C88.3359 25.3409 88.0206 25.0256 87.6172 24.7983C87.2195 24.5653 86.7564 24.4489 86.228 24.4489C85.6768 24.4489 85.1882 24.5767 84.7621 24.8324C84.3416 25.0824 84.0121 25.4205 83.7734 25.8466C83.5348 26.267 83.4126 26.7358 83.407 27.2528V29.392C83.407 30.0398 83.5263 30.5994 83.7649 31.071C84.0092 31.5426 84.353 31.9062 84.7962 32.1619C85.2393 32.4176 85.7649 32.5455 86.3729 32.5455C86.7763 32.5455 87.1456 32.4886 87.4808 32.375C87.8161 32.2614 88.103 32.0909 88.3416 31.8636C88.5803 31.6364 88.7621 31.358 88.8871 31.0284L92.245 31.25C92.0746 32.0568 91.7251 32.7614 91.1967 33.3636C90.674 33.9602 89.9979 34.4261 89.1683 34.7614C88.3445 35.0909 87.3928 35.2557 86.3132 35.2557ZM98.3217 17.5455V35H94.6911V17.5455H98.3217Z" fill="#4C7477"/>
<path d="M36.6566 96.5455V114H32.9663V96.5455H36.6566ZM43.2553 106.432V114H39.6246V100.909H43.0849V103.219H43.2383C43.5281 102.457 44.0138 101.855 44.6957 101.412C45.3775 100.963 46.2042 100.739 47.1758 100.739C48.0849 100.739 48.8775 100.938 49.5536 101.335C50.2298 101.733 50.7553 102.301 51.1303 103.04C51.5053 103.773 51.6928 104.648 51.6928 105.665V114H48.0621V106.312C48.0678 105.511 47.8633 104.886 47.4485 104.438C47.0337 103.983 46.4627 103.756 45.7354 103.756C45.2468 103.756 44.815 103.861 44.44 104.071C44.0707 104.281 43.7809 104.588 43.5707 104.991C43.3661 105.389 43.261 105.869 43.2553 106.432ZM54.5543 118.909V100.909H58.1339V103.108H58.2958C58.4549 102.756 58.685 102.398 58.9862 102.034C59.293 101.665 59.6907 101.358 60.1793 101.114C60.6737 100.864 61.2873 100.739 62.0202 100.739C62.9748 100.739 63.8555 100.989 64.6623 101.489C65.4691 101.983 66.114 102.73 66.5969 103.73C67.0799 104.724 67.3214 105.972 67.3214 107.472C67.3214 108.932 67.0856 110.165 66.614 111.17C66.1481 112.17 65.5117 112.929 64.7049 113.446C63.9038 113.957 63.006 114.213 62.0117 114.213C61.3072 114.213 60.7077 114.097 60.2134 113.864C59.7248 113.631 59.3242 113.338 59.0117 112.986C58.6992 112.628 58.4606 112.267 58.2958 111.903H58.185V118.909H54.5543ZM58.1083 107.455C58.1083 108.233 58.2163 108.912 58.4322 109.491C58.6481 110.071 58.9606 110.523 59.3697 110.847C59.7788 111.165 60.2759 111.324 60.8612 111.324C61.4521 111.324 61.9521 111.162 62.3612 110.838C62.7702 110.509 63.0799 110.054 63.2901 109.474C63.506 108.889 63.614 108.216 63.614 107.455C63.614 106.699 63.5089 106.034 63.2987 105.46C63.0884 104.886 62.7788 104.437 62.3697 104.114C61.9606 103.79 61.4577 103.628 60.8612 103.628C60.2702 103.628 59.7702 103.784 59.3612 104.097C58.9577 104.409 58.6481 104.852 58.4322 105.426C58.2163 106 58.1083 106.676 58.1083 107.455ZM78.1367 108.426V100.909H81.7674V114H78.2816V111.622H78.1452C77.8498 112.389 77.3583 113.006 76.6708 113.472C75.989 113.937 75.1566 114.17 74.1737 114.17C73.2987 114.17 72.5288 113.972 71.864 113.574C71.1992 113.176 70.6793 112.611 70.3043 111.878C69.935 111.145 69.7475 110.267 69.7418 109.244V100.909H73.3725V108.597C73.3782 109.369 73.5856 109.98 73.9947 110.429C74.4038 110.878 74.9521 111.102 75.6396 111.102C76.0771 111.102 76.4862 111.003 76.8668 110.804C77.2475 110.599 77.5543 110.298 77.7873 109.901C78.0259 109.503 78.1424 109.011 78.1367 108.426ZM91.6346 100.909V103.636H83.7511V100.909H91.6346ZM85.5408 97.7727H89.1715V109.977C89.1715 110.312 89.2227 110.574 89.3249 110.761C89.4272 110.943 89.5692 111.071 89.7511 111.145C89.9386 111.219 90.1545 111.256 90.3988 111.256C90.5692 111.256 90.7397 111.241 90.9102 111.213C91.0806 111.179 91.2113 111.153 91.3022 111.136L91.8732 113.838C91.6914 113.895 91.4357 113.96 91.1062 114.034C90.7766 114.114 90.3761 114.162 89.9045 114.179C89.0295 114.213 88.2624 114.097 87.6033 113.83C86.9499 113.562 86.4414 113.148 86.0778 112.585C85.7141 112.023 85.5352 111.312 85.5408 110.455V97.7727Z" fill="#BE3B3B"/>
<path d="M39.3185 204.273C39.3185 206.176 38.9577 207.795 38.2362 209.131C37.5202 210.466 36.543 211.486 35.3043 212.19C34.0714 212.889 32.685 213.239 31.1452 213.239C29.5941 213.239 28.2021 212.886 26.9691 212.182C25.7362 211.477 24.7617 210.457 24.0458 209.122C23.3299 207.787 22.9719 206.17 22.9719 204.273C22.9719 202.369 23.3299 200.75 24.0458 199.415C24.7617 198.08 25.7362 197.062 26.9691 196.364C28.2021 195.659 29.5941 195.307 31.1452 195.307C32.685 195.307 34.0714 195.659 35.3043 196.364C36.543 197.062 37.5202 198.08 38.2362 199.415C38.9577 200.75 39.3185 202.369 39.3185 204.273ZM35.5771 204.273C35.5771 203.04 35.3924 202 35.0231 201.153C34.6594 200.307 34.1452 199.665 33.4805 199.227C32.8157 198.79 32.0373 198.571 31.1452 198.571C30.2532 198.571 29.4748 198.79 28.81 199.227C28.1452 199.665 27.6282 200.307 27.2589 201.153C26.8952 202 26.7134 203.04 26.7134 204.273C26.7134 205.506 26.8952 206.545 27.2589 207.392C27.6282 208.239 28.1452 208.881 28.81 209.318C29.4748 209.756 30.2532 209.974 31.1452 209.974C32.0373 209.974 32.8157 209.756 33.4805 209.318C34.1452 208.881 34.6594 208.239 35.0231 207.392C35.3924 206.545 35.5771 205.506 35.5771 204.273ZM50.3789 207.426V199.909H54.0096V213H50.5238V210.622H50.3874C50.092 211.389 49.6005 212.006 48.913 212.472C48.2312 212.937 47.3988 213.17 46.4158 213.17C45.5408 213.17 44.771 212.972 44.1062 212.574C43.4414 212.176 42.9215 211.611 42.5465 210.878C42.1772 210.145 41.9897 209.267 41.984 208.244V199.909H45.6147V207.597C45.6204 208.369 45.8278 208.98 46.2369 209.429C46.646 209.878 47.1942 210.102 47.8817 210.102C48.3192 210.102 48.7283 210.003 49.109 209.804C49.4897 209.599 49.7965 209.298 50.0295 208.901C50.2681 208.503 50.3846 208.011 50.3789 207.426ZM63.8768 199.909V202.636H55.9933V199.909H63.8768ZM57.783 196.773H61.4137V208.977C61.4137 209.312 61.4648 209.574 61.5671 209.761C61.6694 209.943 61.8114 210.071 61.9933 210.145C62.1808 210.219 62.3967 210.256 62.641 210.256C62.8114 210.256 62.9819 210.241 63.1523 210.213C63.3228 210.179 63.4535 210.153 63.5444 210.136L64.1154 212.838C63.9336 212.895 63.6779 212.96 63.3484 213.034C63.0188 213.114 62.6183 213.162 62.1467 213.179C61.2717 213.213 60.5046 213.097 59.8455 212.83C59.1921 212.562 58.6836 212.148 58.32 211.585C57.9563 211.023 57.7773 210.312 57.783 209.455V196.773ZM66.2418 217.909V199.909H69.8214V202.108H69.9833C70.1424 201.756 70.3725 201.398 70.6737 201.034C70.9805 200.665 71.3782 200.358 71.8668 200.114C72.3612 199.864 72.9748 199.739 73.7077 199.739C74.6623 199.739 75.543 199.989 76.3498 200.489C77.1566 200.983 77.8015 201.73 78.2844 202.73C78.7674 203.724 79.0089 204.972 79.0089 206.472C79.0089 207.932 78.7731 209.165 78.3015 210.17C77.8356 211.17 77.1992 211.929 76.3924 212.446C75.5913 212.957 74.6935 213.213 73.6992 213.213C72.9947 213.213 72.3952 213.097 71.9009 212.864C71.4123 212.631 71.0117 212.338 70.6992 211.986C70.3867 211.628 70.1481 211.267 69.9833 210.903H69.8725V217.909H66.2418ZM69.7958 206.455C69.7958 207.233 69.9038 207.912 70.1197 208.491C70.3356 209.071 70.6481 209.523 71.0572 209.847C71.4663 210.165 71.9634 210.324 72.5487 210.324C73.1396 210.324 73.6396 210.162 74.0487 209.838C74.4577 209.509 74.7674 209.054 74.9776 208.474C75.1935 207.889 75.3015 207.216 75.3015 206.455C75.3015 205.699 75.1964 205.034 74.9862 204.46C74.7759 203.886 74.4663 203.437 74.0572 203.114C73.6481 202.79 73.1452 202.628 72.5487 202.628C71.9577 202.628 71.4577 202.784 71.0487 203.097C70.6452 203.409 70.3356 203.852 70.1197 204.426C69.9038 205 69.7958 205.676 69.7958 206.455ZM89.8242 207.426V199.909H93.4549V213H89.9691V210.622H89.8327C89.5373 211.389 89.0458 212.006 88.3583 212.472C87.6765 212.937 86.8441 213.17 85.8612 213.17C84.9862 213.17 84.2163 212.972 83.5515 212.574C82.8867 212.176 82.3668 211.611 81.9918 210.878C81.6225 210.145 81.435 209.267 81.4293 208.244V199.909H85.06V207.597C85.0657 208.369 85.2731 208.98 85.6822 209.429C86.0913 209.878 86.6396 210.102 87.3271 210.102C87.7646 210.102 88.1737 210.003 88.5543 209.804C88.935 209.599 89.2418 209.298 89.4748 208.901C89.7134 208.503 89.8299 208.011 89.8242 207.426ZM103.322 199.909V202.636H95.4386V199.909H103.322ZM97.2283 196.773H100.859V208.977C100.859 209.312 100.91 209.574 101.012 209.761C101.115 209.943 101.257 210.071 101.439 210.145C101.626 210.219 101.842 210.256 102.086 210.256C102.257 210.256 102.427 210.241 102.598 210.213C102.768 210.179 102.899 210.153 102.99 210.136L103.561 212.838C103.379 212.895 103.123 212.96 102.794 213.034C102.464 213.114 102.064 213.162 101.592 213.179C100.717 213.213 99.9499 213.097 99.2908 212.83C98.6374 212.562 98.1289 212.148 97.7653 211.585C97.4016 211.023 97.2227 210.312 97.2283 209.455V196.773Z" fill="#743BBE"/>
<path d="M191.84 140.455V131.455H192.812V132.494H192.931C193.005 132.381 193.107 132.236 193.238 132.06C193.372 131.881 193.562 131.722 193.809 131.582C194.059 131.44 194.397 131.369 194.823 131.369C195.374 131.369 195.86 131.507 196.281 131.783C196.701 132.058 197.029 132.449 197.265 132.955C197.501 133.46 197.619 134.057 197.619 134.744C197.619 135.438 197.501 136.038 197.265 136.547C197.029 137.053 196.703 137.445 196.285 137.723C195.867 137.999 195.386 138.136 194.84 138.136C194.42 138.136 194.083 138.067 193.83 137.928C193.578 137.786 193.383 137.625 193.247 137.446C193.11 137.264 193.005 137.114 192.931 136.994H192.846V140.455H191.84ZM192.829 134.727C192.829 135.222 192.901 135.658 193.046 136.036C193.191 136.411 193.403 136.705 193.681 136.918C193.96 137.128 194.301 137.233 194.704 137.233C195.124 137.233 195.475 137.122 195.757 136.901C196.041 136.676 196.254 136.375 196.396 135.997C196.541 135.616 196.613 135.193 196.613 134.727C196.613 134.267 196.542 133.852 196.4 133.483C196.261 133.111 196.049 132.817 195.765 132.601C195.484 132.382 195.13 132.273 194.704 132.273C194.295 132.273 193.951 132.376 193.673 132.584C193.394 132.788 193.184 133.075 193.042 133.445C192.9 133.811 192.829 134.239 192.829 134.727ZM201.079 138.153C200.664 138.153 200.288 138.075 199.95 137.919C199.612 137.76 199.343 137.531 199.144 137.233C198.945 136.932 198.846 136.568 198.846 136.142C198.846 135.767 198.92 135.463 199.068 135.23C199.215 134.994 199.413 134.81 199.66 134.676C199.907 134.543 200.18 134.443 200.478 134.378C200.779 134.31 201.082 134.256 201.386 134.216C201.784 134.165 202.106 134.126 202.353 134.101C202.603 134.072 202.785 134.026 202.899 133.96C203.015 133.895 203.073 133.781 203.073 133.619V133.585C203.073 133.165 202.958 132.838 202.728 132.605C202.501 132.372 202.156 132.256 201.693 132.256C201.213 132.256 200.836 132.361 200.563 132.571C200.291 132.781 200.099 133.006 199.988 133.244L199.034 132.903C199.204 132.506 199.431 132.196 199.715 131.974C200.002 131.75 200.315 131.594 200.653 131.506C200.994 131.415 201.329 131.369 201.659 131.369C201.869 131.369 202.11 131.395 202.383 131.446C202.659 131.494 202.924 131.595 203.18 131.749C203.438 131.902 203.653 132.134 203.823 132.443C203.994 132.753 204.079 133.168 204.079 133.688V138H203.073V137.114H203.022C202.954 137.256 202.84 137.408 202.681 137.57C202.522 137.732 202.311 137.869 202.046 137.983C201.782 138.097 201.46 138.153 201.079 138.153ZM201.232 137.25C201.63 137.25 201.965 137.172 202.238 137.016C202.514 136.859 202.721 136.658 202.86 136.411C203.002 136.163 203.073 135.903 203.073 135.631V134.71C203.031 134.761 202.937 134.808 202.792 134.851C202.65 134.891 202.485 134.926 202.298 134.957C202.113 134.986 201.933 135.011 201.757 135.034C201.583 135.054 201.443 135.071 201.335 135.085C201.073 135.119 200.829 135.175 200.602 135.251C200.377 135.325 200.195 135.437 200.056 135.588C199.92 135.736 199.852 135.937 199.852 136.193C199.852 136.543 199.981 136.807 200.24 136.986C200.501 137.162 200.832 137.25 201.232 137.25ZM208.386 138.136C207.841 138.136 207.359 137.999 206.942 137.723C206.524 137.445 206.197 137.053 205.961 136.547C205.726 136.038 205.608 135.438 205.608 134.744C205.608 134.057 205.726 133.46 205.961 132.955C206.197 132.449 206.525 132.058 206.946 131.783C207.366 131.507 207.852 131.369 208.403 131.369C208.829 131.369 209.166 131.44 209.413 131.582C209.663 131.722 209.854 131.881 209.984 132.06C210.118 132.236 210.221 132.381 210.295 132.494H210.381V129.273H211.386V138H210.415V136.994H210.295C210.221 137.114 210.116 137.264 209.98 137.446C209.844 137.625 209.649 137.786 209.396 137.928C209.143 138.067 208.807 138.136 208.386 138.136ZM208.523 137.233C208.926 137.233 209.267 137.128 209.545 136.918C209.824 136.705 210.035 136.411 210.18 136.036C210.325 135.658 210.398 135.222 210.398 134.727C210.398 134.239 210.327 133.811 210.184 133.445C210.042 133.075 209.832 132.788 209.554 132.584C209.275 132.376 208.932 132.273 208.523 132.273C208.096 132.273 207.741 132.382 207.457 132.601C207.176 132.817 206.964 133.111 206.822 133.483C206.683 133.852 206.613 134.267 206.613 134.727C206.613 135.193 206.684 135.616 206.827 135.997C206.971 136.375 207.184 136.676 207.466 136.901C207.75 137.122 208.102 137.233 208.523 137.233ZM215.839 138.136C215.294 138.136 214.812 137.999 214.395 137.723C213.977 137.445 213.65 137.053 213.415 136.547C213.179 136.038 213.061 135.438 213.061 134.744C213.061 134.057 213.179 133.46 213.415 132.955C213.65 132.449 213.979 132.058 214.399 131.783C214.819 131.507 215.305 131.369 215.856 131.369C216.282 131.369 216.619 131.44 216.866 131.582C217.116 131.722 217.307 131.881 217.437 132.06C217.571 132.236 217.675 132.381 217.748 132.494H217.834V129.273H218.839V138H217.868V136.994H217.748C217.675 137.114 217.569 137.264 217.433 137.446C217.297 137.625 217.102 137.786 216.849 137.928C216.596 138.067 216.26 138.136 215.839 138.136ZM215.976 137.233C216.379 137.233 216.72 137.128 216.998 136.918C217.277 136.705 217.488 136.411 217.633 136.036C217.778 135.658 217.851 135.222 217.851 134.727C217.851 134.239 217.78 133.811 217.638 133.445C217.496 133.075 217.285 132.788 217.007 132.584C216.729 132.376 216.385 132.273 215.976 132.273C215.55 132.273 215.194 132.382 214.91 132.601C214.629 132.817 214.417 133.111 214.275 133.483C214.136 133.852 214.067 134.267 214.067 134.727C214.067 135.193 214.138 135.616 214.28 135.997C214.425 136.375 214.638 136.676 214.919 136.901C215.203 137.122 215.555 137.233 215.976 137.233ZM220.821 138V131.455H221.827V138H220.821ZM221.332 130.364C221.136 130.364 220.967 130.297 220.825 130.163C220.686 130.03 220.616 129.869 220.616 129.682C220.616 129.494 220.686 129.334 220.825 129.2C220.967 129.067 221.136 129 221.332 129C221.528 129 221.696 129.067 221.835 129.2C221.977 129.334 222.048 129.494 222.048 129.682C222.048 129.869 221.977 130.03 221.835 130.163C221.696 130.297 221.528 130.364 221.332 130.364ZM224.674 134.062V138H223.669V131.455H224.64V132.477H224.725C224.879 132.145 225.112 131.878 225.424 131.676C225.737 131.472 226.14 131.369 226.634 131.369C227.078 131.369 227.465 131.46 227.798 131.642C228.13 131.821 228.389 132.094 228.573 132.46C228.758 132.824 228.85 133.284 228.85 133.841V138H227.845V133.909C227.845 133.395 227.711 132.994 227.444 132.707C227.177 132.418 226.811 132.273 226.345 132.273C226.024 132.273 225.737 132.342 225.484 132.482C225.234 132.621 225.036 132.824 224.892 133.091C224.747 133.358 224.674 133.682 224.674 134.062ZM233.33 140.591C232.844 140.591 232.427 140.528 232.077 140.403C231.728 140.281 231.437 140.119 231.204 139.918C230.974 139.719 230.79 139.506 230.654 139.278L231.455 138.716C231.546 138.835 231.661 138.972 231.8 139.125C231.939 139.281 232.13 139.416 232.371 139.53C232.616 139.646 232.935 139.705 233.33 139.705C233.858 139.705 234.295 139.577 234.638 139.321C234.982 139.065 235.154 138.665 235.154 138.119V136.79H235.069C234.995 136.909 234.89 137.057 234.753 137.233C234.62 137.406 234.427 137.561 234.174 137.697C233.924 137.831 233.586 137.898 233.16 137.898C232.631 137.898 232.157 137.773 231.736 137.523C231.319 137.273 230.988 136.909 230.743 136.432C230.502 135.955 230.381 135.375 230.381 134.693C230.381 134.023 230.499 133.439 230.735 132.942C230.971 132.442 231.299 132.055 231.719 131.783C232.14 131.507 232.626 131.369 233.177 131.369C233.603 131.369 233.941 131.44 234.191 131.582C234.444 131.722 234.637 131.881 234.77 132.06C234.907 132.236 235.012 132.381 235.086 132.494H235.188V131.455H236.16V138.188C236.16 138.75 236.032 139.207 235.776 139.56C235.523 139.915 235.182 140.175 234.753 140.339C234.327 140.507 233.853 140.591 233.33 140.591ZM233.296 136.994C233.699 136.994 234.04 136.902 234.319 136.717C234.597 136.533 234.809 136.267 234.954 135.92C235.099 135.574 235.171 135.159 235.171 134.676C235.171 134.205 235.1 133.788 234.958 133.428C234.816 133.067 234.606 132.784 234.327 132.58C234.049 132.375 233.705 132.273 233.296 132.273C232.87 132.273 232.515 132.381 232.231 132.597C231.949 132.812 231.738 133.102 231.596 133.466C231.456 133.83 231.387 134.233 231.387 134.676C231.387 135.131 231.458 135.533 231.6 135.882C231.745 136.229 231.958 136.501 232.239 136.7C232.523 136.896 232.876 136.994 233.296 136.994Z" fill="#272727"/>
<path d="M278 87H332V122H278V87Z" fill="#E3E2E2"/>
<rect width="54" height="20" transform="matrix(1 0 0 -1 278 142)" fill="#F6F5F5"/>
<path d="M294.415 99.6364H296.679L300.615 109.247H300.76L304.696 99.6364H306.96V112H305.185V103.053H305.071L301.424 111.982H299.951L296.305 103.047H296.19V112H294.415V99.6364ZM310.668 115.477C310.399 115.477 310.153 115.455 309.932 115.411C309.711 115.371 309.545 115.326 309.437 115.278L309.871 113.799C310.202 113.888 310.495 113.926 310.753 113.914C311.01 113.902 311.238 113.805 311.435 113.624C311.636 113.443 311.813 113.147 311.966 112.737L312.19 112.121L308.797 102.727H310.729L313.077 109.923H313.174L315.522 102.727H317.46L313.639 113.238C313.461 113.721 313.236 114.129 312.962 114.463C312.689 114.801 312.363 115.055 311.984 115.224C311.606 115.393 311.167 115.477 310.668 115.477Z" fill="#272727"/>
<path d="M300.776 125.727L302.998 129.518L305.219 125.727H306.861L303.867 130.364L306.861 135H305.219L302.998 131.402L300.776 135H299.134L302.08 130.364L299.134 125.727H300.776Z" fill="#272727" fill-opacity="0.8"/>
<path d="M310 139.099C309.465 139.099 309.009 138.954 308.633 138.663C308.256 138.369 307.969 137.944 307.77 137.388C307.571 136.829 307.472 136.154 307.472 135.364C307.472 134.578 307.571 133.906 307.77 133.35C307.971 132.791 308.26 132.365 308.636 132.072C309.015 131.776 309.47 131.628 310 131.628C310.53 131.628 310.984 131.776 311.36 132.072C311.739 132.365 312.028 132.791 312.227 133.35C312.428 133.906 312.528 134.578 312.528 135.364C312.528 136.154 312.429 136.829 312.23 137.388C312.031 137.944 311.744 138.369 311.367 138.663C310.991 138.954 310.535 139.099 310 139.099ZM310 138.318C310.53 138.318 310.942 138.062 311.236 137.551C311.529 137.04 311.676 136.311 311.676 135.364C311.676 134.734 311.609 134.198 311.474 133.755C311.341 133.312 311.149 132.975 310.898 132.743C310.65 132.511 310.35 132.395 310 132.395C309.474 132.395 309.064 132.654 308.768 133.173C308.472 133.689 308.324 134.419 308.324 135.364C308.324 135.993 308.39 136.528 308.523 136.969C308.655 137.409 308.846 137.744 309.094 137.974C309.345 138.203 309.647 138.318 310 138.318Z" fill="#272727" fill-opacity="0.8"/>
<path d="M338 87H392V122H338V87Z" fill="#E3E2E2"/>
<rect width="54" height="20" transform="matrix(1 0 0 -1 338 142)" fill="#F6F5F5"/>
<path d="M345.598 106.494V112H343.793V102.727H345.526V104.237H345.64C345.854 103.746 346.188 103.351 346.642 103.053C347.101 102.755 347.679 102.607 348.375 102.607C349.007 102.607 349.56 102.739 350.035 103.005C350.51 103.267 350.878 103.657 351.14 104.176C351.402 104.695 351.532 105.337 351.532 106.102V112H349.727V106.319C349.727 105.647 349.552 105.122 349.202 104.744C348.852 104.361 348.371 104.17 347.759 104.17C347.341 104.17 346.968 104.261 346.642 104.442C346.32 104.623 346.065 104.888 345.876 105.239C345.691 105.585 345.598 106.003 345.598 106.494ZM356.652 112.205C356.064 112.205 355.533 112.097 355.058 111.879C354.583 111.658 354.207 111.338 353.929 110.919C353.655 110.501 353.519 109.988 353.519 109.38C353.519 108.857 353.619 108.426 353.82 108.088C354.022 107.75 354.293 107.482 354.635 107.285C354.977 107.088 355.36 106.939 355.782 106.838C356.205 106.738 356.636 106.661 357.074 106.609C357.63 106.545 358.08 106.492 358.427 106.452C358.773 106.408 359.024 106.337 359.181 106.241C359.338 106.144 359.417 105.987 359.417 105.77V105.728C359.417 105.2 359.268 104.792 358.97 104.502C358.676 104.212 358.237 104.067 357.654 104.067C357.046 104.067 356.567 104.202 356.217 104.472C355.871 104.738 355.631 105.033 355.499 105.359L353.802 104.973C354.003 104.41 354.297 103.955 354.684 103.609C355.074 103.259 355.523 103.005 356.03 102.848C356.537 102.687 357.07 102.607 357.63 102.607C358 102.607 358.392 102.651 358.807 102.739C359.225 102.824 359.616 102.981 359.978 103.21C360.344 103.44 360.644 103.768 360.878 104.194C361.111 104.617 361.228 105.166 361.228 105.842V112H359.465V110.732H359.392C359.276 110.966 359.101 111.195 358.867 111.42C358.634 111.646 358.334 111.833 357.968 111.982C357.601 112.131 357.163 112.205 356.652 112.205ZM357.044 110.756C357.543 110.756 357.97 110.658 358.324 110.461C358.682 110.263 358.954 110.006 359.139 109.688C359.328 109.366 359.423 109.022 359.423 108.656V107.46C359.358 107.525 359.233 107.585 359.048 107.641C358.867 107.694 358.66 107.74 358.427 107.78C358.193 107.816 357.966 107.851 357.744 107.883C357.523 107.911 357.338 107.935 357.189 107.955C356.839 108 356.519 108.074 356.229 108.179C355.943 108.283 355.714 108.434 355.541 108.631C355.372 108.825 355.287 109.082 355.287 109.404C355.287 109.851 355.452 110.189 355.782 110.418C356.112 110.644 356.533 110.756 357.044 110.756ZM363.632 112V102.727H365.364V104.237H365.479C365.672 103.725 365.988 103.327 366.427 103.041C366.866 102.751 367.391 102.607 368.003 102.607C368.622 102.607 369.142 102.751 369.56 103.041C369.983 103.331 370.295 103.729 370.496 104.237H370.592C370.814 103.741 371.166 103.347 371.649 103.053C372.132 102.755 372.707 102.607 373.375 102.607C374.217 102.607 374.903 102.87 375.434 103.397C375.969 103.925 376.237 104.719 376.237 105.782V112H374.432V105.951C374.432 105.323 374.261 104.868 373.919 104.587C373.577 104.305 373.168 104.164 372.693 104.164C372.106 104.164 371.649 104.345 371.323 104.707C370.997 105.066 370.834 105.526 370.834 106.09V112H369.035V105.836C369.035 105.333 368.878 104.929 368.564 104.623C368.25 104.317 367.842 104.164 367.339 104.164C366.996 104.164 366.681 104.255 366.391 104.436C366.105 104.613 365.874 104.86 365.697 105.178C365.523 105.496 365.437 105.864 365.437 106.283V112H363.632ZM382.653 112.187C381.739 112.187 380.952 111.992 380.292 111.602C379.636 111.207 379.129 110.654 378.771 109.941C378.417 109.225 378.24 108.386 378.24 107.424C378.24 106.474 378.417 105.637 378.771 104.913C379.129 104.188 379.628 103.623 380.268 103.216C380.912 102.81 381.665 102.607 382.526 102.607C383.049 102.607 383.556 102.693 384.047 102.866C384.538 103.039 384.979 103.311 385.369 103.681C385.76 104.051 386.068 104.532 386.293 105.124C386.518 105.712 386.631 106.426 386.631 107.267V107.907H379.26V106.555H384.862C384.862 106.08 384.766 105.659 384.572 105.293C384.379 104.923 384.108 104.631 383.758 104.418C383.411 104.204 383.005 104.098 382.538 104.098C382.031 104.098 381.588 104.222 381.21 104.472C380.836 104.717 380.546 105.039 380.341 105.438C380.139 105.832 380.039 106.261 380.039 106.724V107.78C380.039 108.4 380.147 108.927 380.365 109.362C380.586 109.797 380.894 110.129 381.288 110.358C381.683 110.583 382.144 110.696 382.671 110.696C383.013 110.696 383.325 110.648 383.607 110.551C383.888 110.451 384.132 110.302 384.337 110.104C384.542 109.907 384.699 109.664 384.808 109.374L386.516 109.682C386.38 110.185 386.134 110.626 385.78 111.004C385.43 111.378 384.989 111.67 384.458 111.879C383.931 112.085 383.329 112.187 382.653 112.187Z" fill="#272727"/>
<path d="M360.776 125.727L362.998 129.518L365.219 125.727H366.861L363.867 130.364L366.861 135H365.219L362.998 131.402L360.776 135H359.134L362.08 130.364L359.134 125.727H360.776Z" fill="#272727" fill-opacity="0.8"/>
<path d="M370.985 131.727V139H370.105V132.651H370.062L368.287 133.83V132.935L370.105 131.727H370.985Z" fill="#272727" fill-opacity="0.8"/>
<path d="M398 87H452V122H398V87Z" fill="#E3E2E2"/>
<rect width="54" height="20" transform="matrix(1 0 0 -1 398 142)" fill="#F6F5F5"/>
<path d="M419.04 112V102.727H420.845V112H419.04ZM419.951 101.297C419.637 101.297 419.368 101.192 419.142 100.983C418.921 100.769 418.81 100.516 418.81 100.222C418.81 99.9241 418.921 99.6706 419.142 99.4613C419.368 99.248 419.637 99.1413 419.951 99.1413C420.265 99.1413 420.533 99.248 420.754 99.4613C420.979 99.6706 421.092 99.9241 421.092 100.222C421.092 100.516 420.979 100.769 420.754 100.983C420.533 101.192 420.265 101.297 419.951 101.297ZM430.222 104.991L428.585 105.281C428.517 105.072 428.408 104.872 428.259 104.683C428.115 104.494 427.917 104.339 427.668 104.218C427.418 104.098 427.106 104.037 426.732 104.037C426.221 104.037 425.794 104.152 425.452 104.381C425.11 104.607 424.939 104.899 424.939 105.257C424.939 105.567 425.054 105.816 425.283 106.005C425.513 106.194 425.883 106.349 426.394 106.47L427.867 106.808C428.72 107.005 429.356 107.309 429.775 107.72C430.193 108.13 430.403 108.664 430.403 109.32C430.403 109.875 430.242 110.37 429.92 110.805C429.602 111.235 429.157 111.573 428.585 111.819C428.018 112.064 427.36 112.187 426.611 112.187C425.573 112.187 424.726 111.966 424.07 111.523C423.414 111.076 423.011 110.442 422.862 109.621L424.607 109.356C424.716 109.811 424.939 110.155 425.277 110.388C425.615 110.618 426.056 110.732 426.599 110.732C427.191 110.732 427.664 110.609 428.018 110.364C428.372 110.114 428.549 109.811 428.549 109.452C428.549 109.163 428.441 108.919 428.223 108.722C428.01 108.525 427.682 108.376 427.239 108.275L425.67 107.931C424.804 107.734 424.164 107.42 423.75 106.989C423.339 106.559 423.134 106.013 423.134 105.353C423.134 104.806 423.287 104.327 423.593 103.917C423.899 103.506 424.321 103.186 424.861 102.957C425.4 102.723 426.018 102.607 426.714 102.607C427.716 102.607 428.505 102.824 429.081 103.259C429.656 103.689 430.036 104.267 430.222 104.991Z" fill="#272727"/>
<path d="M420.776 125.727L422.998 129.518L425.219 125.727H426.861L423.867 130.364L426.861 135H425.219L422.998 131.402L420.776 135H419.134L422.08 130.364L419.134 125.727H420.776Z" fill="#272727" fill-opacity="0.8"/>
<path d="M427.725 139V138.361L430.126 135.733C430.408 135.425 430.64 135.158 430.822 134.93C431.004 134.701 431.139 134.485 431.227 134.284C431.317 134.08 431.362 133.867 431.362 133.645C431.362 133.389 431.3 133.168 431.177 132.981C431.056 132.794 430.891 132.649 430.68 132.548C430.469 132.446 430.233 132.395 429.97 132.395C429.69 132.395 429.447 132.453 429.238 132.569C429.032 132.683 428.873 132.842 428.759 133.048C428.648 133.254 428.592 133.496 428.592 133.773H427.754C427.754 133.347 427.852 132.973 428.049 132.651C428.245 132.329 428.513 132.078 428.851 131.898C429.192 131.718 429.574 131.628 429.998 131.628C430.424 131.628 430.802 131.718 431.131 131.898C431.46 132.078 431.718 132.32 431.905 132.626C432.092 132.931 432.186 133.271 432.186 133.645C432.186 133.912 432.137 134.174 432.04 134.43C431.945 134.683 431.78 134.966 431.543 135.278C431.309 135.589 430.983 135.967 430.566 136.415L428.933 138.162V138.219H432.314V139H427.725Z" fill="#272727" fill-opacity="0.8"/>
<path d="M218 87H272V122H218V87Z" fill="#E3E2E2"/>
<path d="M243.007 112.205C242.053 112.201 241.238 111.95 240.562 111.451C239.886 110.952 239.369 110.225 239.01 109.271C238.652 108.317 238.473 107.168 238.473 105.824C238.473 104.484 238.652 103.339 239.01 102.389C239.373 101.439 239.892 100.715 240.568 100.216C241.248 99.7169 242.061 99.4673 243.007 99.4673C243.953 99.4673 244.764 99.7189 245.44 100.222C246.116 100.721 246.633 101.445 246.991 102.395C247.353 103.341 247.534 104.484 247.534 105.824C247.534 107.172 247.355 108.324 246.997 109.277C246.639 110.227 246.122 110.954 245.446 111.457C244.77 111.956 243.957 112.205 243.007 112.205ZM243.007 110.593C243.844 110.593 244.498 110.185 244.969 109.368C245.444 108.551 245.681 107.37 245.681 105.824C245.681 104.798 245.572 103.931 245.355 103.222C245.142 102.51 244.834 101.971 244.432 101.604C244.033 101.234 243.558 101.049 243.007 101.049C242.174 101.049 241.52 101.46 241.045 102.281C240.57 103.102 240.33 104.283 240.326 105.824C240.326 106.855 240.433 107.726 240.646 108.438C240.864 109.147 241.172 109.684 241.57 110.05C241.968 110.412 242.447 110.593 243.007 110.593Z" fill="#272727"/>
<path d="M158 87H212V122H158V87Z" fill="#E3E2E2"/>
<path d="M183.007 112.205C182.053 112.201 181.238 111.95 180.562 111.451C179.886 110.952 179.369 110.225 179.01 109.271C178.652 108.317 178.473 107.168 178.473 105.824C178.473 104.484 178.652 103.339 179.01 102.389C179.373 101.439 179.892 100.715 180.568 100.216C181.248 99.7169 182.061 99.4673 183.007 99.4673C183.953 99.4673 184.764 99.7189 185.44 100.222C186.116 100.721 186.633 101.445 186.991 102.395C187.353 103.341 187.534 104.484 187.534 105.824C187.534 107.172 187.355 108.324 186.997 109.277C186.639 110.227 186.122 110.954 185.446 111.457C184.77 111.956 183.957 112.205 183.007 112.205ZM183.007 110.593C183.844 110.593 184.498 110.185 184.969 109.368C185.444 108.551 185.681 107.37 185.681 105.824C185.681 104.798 185.572 103.931 185.355 103.222C185.142 102.51 184.834 101.971 184.432 101.604C184.033 101.234 183.558 101.049 183.007 101.049C182.174 101.049 181.52 101.46 181.045 102.281C180.57 103.102 180.33 104.283 180.326 105.824C180.326 106.855 180.433 107.726 180.646 108.438C180.864 109.147 181.172 109.684 181.57 110.05C181.968 110.412 182.447 110.593 183.007 110.593Z" fill="#272727"/>
<rect x="157.5" y="10.5" width="53" height="34" fill="#BAFBFF" stroke="#205A4F"/>
<path d="M171.406 26.657H169.522C169.45 26.2545 169.315 25.9003 169.118 25.5945C168.921 25.2886 168.679 25.029 168.394 24.8157C168.108 24.6024 167.788 24.4414 167.434 24.3327C167.083 24.2241 166.711 24.1697 166.317 24.1697C165.604 24.1697 164.967 24.3488 164.403 24.707C163.844 25.0652 163.401 25.5904 163.075 26.2827C162.753 26.9749 162.592 27.8201 162.592 28.8182C162.592 29.8243 162.753 30.6735 163.075 31.3658C163.401 32.058 163.846 32.5812 164.409 32.9354C164.973 33.2895 165.606 33.4666 166.311 33.4666C166.701 33.4666 167.071 33.4143 167.422 33.3097C167.776 33.201 168.096 33.042 168.381 32.8327C168.667 32.6235 168.909 32.3679 169.106 32.0661C169.307 31.7602 169.446 31.41 169.522 31.0156L171.406 31.0217C171.305 31.6294 171.11 32.1888 170.82 32.6999C170.535 33.207 170.166 33.6457 169.716 34.016C169.269 34.3822 168.758 34.666 168.182 34.8672C167.607 35.0684 166.979 35.169 166.299 35.169C165.228 35.169 164.274 34.9155 163.437 34.4084C162.6 33.8973 161.94 33.1668 161.457 32.217C160.978 31.2672 160.739 30.1342 160.739 28.8182C160.739 27.4981 160.98 26.3652 161.463 25.4194C161.946 24.4696 162.606 23.7411 163.443 23.234C164.28 22.7229 165.232 22.4673 166.299 22.4673C166.955 22.4673 167.566 22.5619 168.134 22.7511C168.705 22.9362 169.219 23.2099 169.673 23.5721C170.128 23.9303 170.504 24.369 170.802 24.8881C171.1 25.4033 171.301 25.9929 171.406 26.657ZM174.599 35H172.619L177.069 22.6364H179.224L183.673 35H181.693L178.197 24.8821H178.101L174.599 35ZM174.932 30.1584H181.355V31.728H174.932V30.1584ZM194.456 35V22.6364H198.984C199.862 22.6364 200.588 22.7812 201.163 23.071C201.739 23.3568 202.17 23.7451 202.455 24.2362C202.741 24.7231 202.884 25.2725 202.884 25.8842C202.884 26.3994 202.789 26.834 202.6 27.1882C202.411 27.5384 202.158 27.8201 201.84 28.0334C201.526 28.2427 201.18 28.3956 200.801 28.4922V28.6129C201.212 28.633 201.612 28.7659 202.003 29.0114C202.397 29.2528 202.723 29.5969 202.981 30.0437C203.238 30.4904 203.367 31.0337 203.367 31.6737C203.367 32.3055 203.218 32.873 202.92 33.3761C202.626 33.8751 202.172 34.2715 201.556 34.5653C200.94 34.8551 200.153 35 199.195 35H194.456ZM196.322 33.4002H199.014C199.908 33.4002 200.548 33.2272 200.934 32.881C201.32 32.5349 201.514 32.1023 201.514 31.5831C201.514 31.1927 201.415 30.8345 201.218 30.5085C201.021 30.1825 200.739 29.9229 200.373 29.7298C200.01 29.5366 199.58 29.44 199.081 29.44H196.322V33.4002ZM196.322 27.9851H198.821C199.24 27.9851 199.616 27.9046 199.95 27.7436C200.288 27.5826 200.556 27.3572 200.753 27.0675C200.954 26.7737 201.055 26.4276 201.055 26.0291C201.055 25.518 200.876 25.0894 200.518 24.7433C200.159 24.3971 199.61 24.2241 198.869 24.2241H196.322V27.9851Z" fill="#272727"/>
<path d="M183.633 24V23.2045L186.094 20.6548C186.357 20.3778 186.574 20.1352 186.744 19.9268C186.917 19.7161 187.046 19.5161 187.131 19.3267C187.216 19.1373 187.259 18.9361 187.259 18.723C187.259 18.4815 187.202 18.2732 187.088 18.098C186.975 17.9205 186.82 17.7843 186.623 17.6896C186.427 17.5926 186.205 17.544 185.959 17.544C185.699 17.544 185.471 17.5973 185.277 17.7038C185.083 17.8104 184.934 17.9607 184.83 18.1548C184.726 18.349 184.674 18.5762 184.674 18.8366H183.626C183.626 18.3939 183.728 18.0069 183.931 17.6754C184.135 17.344 184.414 17.0871 184.77 16.9048C185.125 16.7202 185.528 16.6278 185.98 16.6278C186.437 16.6278 186.84 16.719 187.188 16.9013C187.538 17.0812 187.812 17.3274 188.008 17.6399C188.205 17.95 188.303 18.3004 188.303 18.6911C188.303 18.9609 188.252 19.2249 188.15 19.483C188.051 19.741 187.877 20.0286 187.628 20.3459C187.38 20.6607 187.034 21.0431 186.591 21.4929L185.146 23.0057V23.0589H188.42V24H183.633Z" fill="#272727"/>
<rect x="217.5" y="10.5" width="53" height="34" fill="#BAFBFF" stroke="#205A4F"/>
<path d="M235.905 26.657H234.021C233.949 26.2545 233.814 25.9003 233.617 25.5945C233.42 25.2886 233.178 25.029 232.893 24.8157C232.607 24.6024 232.287 24.4414 231.933 24.3327C231.583 24.2241 231.21 24.1697 230.816 24.1697C230.103 24.1697 229.466 24.3488 228.902 24.707C228.343 25.0652 227.9 25.5904 227.574 26.2827C227.252 26.9749 227.091 27.8201 227.091 28.8182C227.091 29.8243 227.252 30.6735 227.574 31.3658C227.9 32.058 228.345 32.5812 228.908 32.9354C229.472 33.2895 230.105 33.4666 230.81 33.4666C231.2 33.4666 231.57 33.4143 231.921 33.3097C232.275 33.201 232.595 33.042 232.88 32.8327C233.166 32.6235 233.408 32.3679 233.605 32.0661C233.806 31.7602 233.945 31.41 234.021 31.0156L235.905 31.0217C235.804 31.6294 235.609 32.1888 235.319 32.6999C235.034 33.207 234.665 33.6457 234.215 34.016C233.768 34.3822 233.257 34.666 232.681 34.8672C232.106 35.0684 231.478 35.169 230.798 35.169C229.727 35.169 228.773 34.9155 227.936 34.4084C227.099 33.8973 226.439 33.1668 225.956 32.217C225.477 31.2672 225.238 30.1342 225.238 28.8182C225.238 27.4981 225.479 26.3652 225.962 25.4194C226.445 24.4696 227.105 23.7411 227.942 23.234C228.779 22.7229 229.731 22.4673 230.798 22.4673C231.454 22.4673 232.065 22.5619 232.633 22.7511C233.204 22.9362 233.718 23.2099 234.172 23.5721C234.627 23.9303 235.003 24.369 235.301 24.8881C235.599 25.4033 235.8 25.9929 235.905 26.657ZM239.098 35H237.118L241.568 22.6364H243.723L248.172 35H246.192L242.697 24.8821H242.6L239.098 35ZM239.431 30.1584H245.854V31.728H239.431V30.1584ZM249.957 35V22.6364H254.485C255.362 22.6364 256.089 22.7812 256.664 23.071C257.24 23.3568 257.671 23.7451 257.956 24.2362C258.242 24.7231 258.385 25.2725 258.385 25.8842C258.385 26.3994 258.29 26.834 258.101 27.1882C257.912 27.5384 257.659 27.8201 257.341 28.0334C257.027 28.2427 256.681 28.3956 256.302 28.4922V28.6129C256.713 28.633 257.113 28.7659 257.504 29.0114C257.898 29.2528 258.224 29.5969 258.482 30.0437C258.739 30.4904 258.868 31.0337 258.868 31.6737C258.868 32.3055 258.719 32.873 258.421 33.3761C258.127 33.8751 257.673 34.2715 257.057 34.5653C256.441 34.8551 255.654 35 254.696 35H249.957ZM251.823 33.4002H254.515C255.409 33.4002 256.049 33.2272 256.435 32.881C256.821 32.5349 257.015 32.1023 257.015 31.5831C257.015 31.1927 256.916 30.8345 256.719 30.5085C256.522 30.1825 256.24 29.9229 255.874 29.7298C255.511 29.5366 255.081 29.44 254.582 29.44H251.823V33.4002ZM251.823 27.9851H254.322C254.741 27.9851 255.117 27.9046 255.451 27.7436C255.789 27.5826 256.057 27.3572 256.254 27.0675C256.455 26.7737 256.556 26.4276 256.556 26.0291C256.556 25.518 256.377 25.0894 256.019 24.7433C255.66 24.3971 255.111 24.2241 254.37 24.2241H251.823V27.9851Z" fill="#272727"/>
<line x1="250" y1="17.5" x2="258" y2="17.5" stroke="#272727"/>
<line x1="238" y1="17.5" x2="246" y2="17.5" stroke="#272727"/>
<line x1="194" y1="17.5" x2="202" y2="17.5" stroke="#272727"/>
<line x1="174" y1="17.5" x2="182" y2="17.5" stroke="#272727"/>
<rect x="277.5" y="10.5" width="53" height="34" fill="#BAFBFF" stroke="#205A4F"/>
<path d="M301.815 26.657H299.932C299.859 26.2545 299.724 25.9003 299.527 25.5945C299.33 25.2886 299.088 25.029 298.803 24.8157C298.517 24.6024 298.197 24.4414 297.843 24.3327C297.493 24.2241 297.12 24.1697 296.726 24.1697C296.014 24.1697 295.376 24.3488 294.812 24.707C294.253 25.0652 293.81 25.5904 293.484 26.2827C293.162 26.9749 293.001 27.8201 293.001 28.8182C293.001 29.8243 293.162 30.6735 293.484 31.3658C293.81 32.058 294.255 32.5812 294.818 32.9354C295.382 33.2895 296.016 33.4666 296.72 33.4666C297.11 33.4666 297.481 33.4143 297.831 33.3097C298.185 33.201 298.505 33.042 298.791 32.8327C299.076 32.6235 299.318 32.3679 299.515 32.0661C299.716 31.7602 299.855 31.41 299.932 31.0156L301.815 31.0217C301.715 31.6294 301.519 32.1888 301.23 32.6999C300.944 33.207 300.576 33.6457 300.125 34.016C299.678 34.3822 299.167 34.666 298.591 34.8672C298.016 35.0684 297.388 35.169 296.708 35.169C295.637 35.169 294.683 34.9155 293.846 34.4084C293.009 33.8973 292.349 33.1668 291.866 32.217C291.387 31.2672 291.148 30.1342 291.148 28.8182C291.148 27.4981 291.389 26.3652 291.872 25.4194C292.355 24.4696 293.015 23.7411 293.852 23.234C294.69 22.7229 295.641 22.4673 296.708 22.4673C297.364 22.4673 297.976 22.5619 298.543 22.7511C299.115 22.9362 299.628 23.2099 300.083 23.5721C300.537 23.9303 300.914 24.369 301.211 24.8881C301.509 25.4033 301.71 25.9929 301.815 26.657ZM304.047 35V22.6364H308.575C309.452 22.6364 310.179 22.7812 310.754 23.071C311.33 23.3568 311.76 23.7451 312.046 24.2362C312.332 24.7231 312.475 25.2725 312.475 25.8842C312.475 26.3994 312.38 26.834 312.191 27.1882C312.002 27.5384 311.748 27.8201 311.43 28.0334C311.117 28.2427 310.77 28.3956 310.392 28.4922V28.6129C310.803 28.633 311.203 28.7659 311.593 29.0114C311.988 29.2528 312.314 29.5969 312.571 30.0437C312.829 30.4904 312.958 31.0337 312.958 31.6737C312.958 32.3055 312.809 32.873 312.511 33.3761C312.217 33.8751 311.762 34.2715 311.147 34.5653C310.531 34.8551 309.744 35 308.786 35H304.047ZM305.913 33.4002H308.605C309.499 33.4002 310.139 33.2272 310.525 32.881C310.911 32.5349 311.104 32.1023 311.104 31.5831C311.104 31.1927 311.006 30.8345 310.809 30.5085C310.611 30.1825 310.33 29.9229 309.963 29.7298C309.601 29.5366 309.171 29.44 308.672 29.44H305.913V33.4002ZM305.913 27.9851H308.412C308.831 27.9851 309.207 27.9046 309.541 27.7436C309.879 27.5826 310.147 27.3572 310.344 27.0675C310.545 26.7737 310.646 26.4276 310.646 26.0291C310.646 25.518 310.467 25.0894 310.108 24.7433C309.75 24.3971 309.201 24.2241 308.46 24.2241H305.913V27.9851Z" fill="#272727"/>
<line x1="304" y1="17.5" x2="312" y2="17.5" stroke="#272727"/>
<path d="M338 187H392V222H338V187Z" fill="#E3E2E2"/>
<path d="M278 187H332V222H278V187Z" fill="#E3E2E2"/>
<path d="M218 187H272V222H218V187Z" fill="#743BBE"/>
<path d="M241.54 212.477C241.27 212.477 241.025 212.455 240.803 212.411C240.582 212.371 240.417 212.326 240.308 212.278L240.743 210.799C241.073 210.888 241.367 210.926 241.624 210.914C241.882 210.902 242.109 210.805 242.307 210.624C242.508 210.443 242.685 210.147 242.838 209.737L243.061 209.121L239.669 199.727H241.6L243.949 206.923H244.045L246.394 199.727H248.331L244.51 210.238C244.333 210.721 244.108 211.129 243.834 211.463C243.56 211.801 243.234 212.055 242.856 212.224C242.478 212.393 242.039 212.477 241.54 212.477Z" fill="white"/>
<path d="M249.004 215.121C248.443 215.118 247.964 214.97 247.566 214.677C247.168 214.383 246.864 213.956 246.653 213.395C246.442 212.834 246.337 212.158 246.337 211.367C246.337 210.579 246.442 209.905 246.653 209.347C246.866 208.788 247.172 208.362 247.569 208.068C247.969 207.775 248.448 207.628 249.004 207.628C249.56 207.628 250.037 207.776 250.435 208.072C250.833 208.365 251.137 208.791 251.348 209.35C251.561 209.906 251.667 210.579 251.667 211.367C251.667 212.16 251.562 212.837 251.351 213.398C251.141 213.957 250.836 214.384 250.439 214.68C250.041 214.974 249.563 215.121 249.004 215.121ZM249.004 214.173C249.496 214.173 249.881 213.932 250.158 213.452C250.437 212.971 250.577 212.276 250.577 211.367C250.577 210.763 250.513 210.253 250.385 209.837C250.26 209.418 250.079 209.1 249.842 208.885C249.608 208.667 249.328 208.558 249.004 208.558C248.514 208.558 248.129 208.8 247.85 209.283C247.571 209.766 247.43 210.46 247.427 211.367C247.427 211.973 247.49 212.486 247.616 212.905C247.743 213.321 247.924 213.638 248.159 213.853C248.393 214.066 248.675 214.173 249.004 214.173Z" fill="white"/>
<path d="M51.9411 227.784C51.9411 226.335 52.1242 224.967 52.4905 223.679C52.8567 222.391 53.3819 221.184 54.0661 220.057H55.0441C54.7503 220.532 54.4806 221.069 54.2351 221.669C53.9937 222.268 53.7844 222.908 53.6073 223.588C53.4302 224.269 53.2934 224.965 53.1968 225.677C53.1002 226.386 53.0519 227.088 53.0519 227.784C53.0519 228.714 53.1364 229.652 53.3054 230.597C53.4745 231.543 53.7079 232.441 54.0057 233.29C54.3076 234.139 54.6537 234.879 55.0441 235.511H54.0661C53.3819 234.38 52.8567 233.171 52.4905 231.883C52.1242 230.595 51.9411 229.229 51.9411 227.784ZM58.1365 236.477C57.9232 236.477 57.724 236.457 57.5388 236.417C57.3537 236.377 57.2068 236.332 57.0981 236.284L57.3879 235.336C57.7542 235.449 58.0802 235.489 58.3659 235.457C58.6516 235.429 58.9052 235.3 59.1266 235.071C59.3479 234.845 59.5451 234.499 59.7182 234.032L60.0562 233.091L56.6454 223.727H57.8105L60.5633 231.581H60.6479L63.4007 223.727H64.5658L60.6418 234.467C60.4768 234.914 60.2736 235.286 60.0321 235.584C59.7906 235.886 59.5109 236.109 59.193 236.254C58.879 236.403 58.5269 236.477 58.1365 236.477ZM74.0574 227.784C74.0574 229.233 73.8743 230.601 73.508 231.889C73.1418 233.177 72.6166 234.384 71.9324 235.511H70.9544C71.2482 235.036 71.5158 234.499 71.7573 233.9C72.0028 233.3 72.2141 232.66 72.3912 231.98C72.5683 231.3 72.7051 230.603 72.8017 229.891C72.8983 229.179 72.9466 228.476 72.9466 227.784C72.9466 226.854 72.8621 225.917 72.693 224.971C72.524 224.025 72.2886 223.128 71.9867 222.278C71.6889 221.429 71.3448 220.689 70.9544 220.057H71.9324C72.6166 221.188 73.1418 222.397 73.508 223.685C73.8743 224.973 74.0574 226.339 74.0574 227.784Z" fill="#828282"/>
<path d="M65.7828 236.94L65.7757 236.113H65.9178L68.4746 233.545H69.2736L66.7488 236.074L66.6919 236.085L65.7828 236.94ZM65.2076 239V231.727H65.8397V239H65.2076ZM68.606 239L66.3901 236.198L66.8446 235.761L69.4157 239H68.606Z" fill="#828282"/>
<path d="M50.1071 130.784C50.1071 129.335 50.2902 127.967 50.6565 126.679C51.0227 125.391 51.5479 124.184 52.2321 123.057H53.2101C52.9163 123.532 52.6466 124.069 52.4011 124.669C52.1597 125.268 51.9504 125.908 51.7733 126.588C51.5962 127.269 51.4594 127.965 51.3628 128.677C51.2662 129.386 51.2179 130.088 51.2179 130.784C51.2179 131.714 51.3024 132.652 51.4715 133.597C51.6405 134.543 51.8739 135.441 52.1717 136.29C52.4736 137.139 52.8197 137.879 53.2101 138.511H52.2321C51.5479 137.38 51.0227 136.171 50.6565 134.883C50.2902 133.595 50.1071 132.229 50.1071 130.784ZM56.218 126.727L58.6086 130.681L60.9992 126.727H62.2489L59.2666 131.364L62.2489 136H60.9992L58.6086 132.173L56.218 136H54.9744L57.9204 131.364L54.9744 126.727H56.218ZM71.8914 130.784C71.8914 132.233 71.7083 133.601 71.342 134.889C70.9758 136.177 70.4506 137.384 69.7664 138.511H68.7884C69.0822 138.036 69.3498 137.499 69.5913 136.9C69.8368 136.3 70.0481 135.66 70.2252 134.98C70.4023 134.3 70.5391 133.603 70.6357 132.891C70.7323 132.179 70.7806 131.476 70.7806 130.784C70.7806 129.854 70.6961 128.917 70.527 127.971C70.358 127.025 70.1226 126.128 69.8207 125.278C69.5229 124.429 69.1788 123.689 68.7884 123.057H69.7664C70.4506 124.188 70.9758 125.397 71.342 126.685C71.7083 127.973 71.8914 129.339 71.8914 130.784Z" fill="#828282"/>
<path d="M63.7828 139.94L63.7757 139.113H63.9178L66.4746 136.545H67.2736L64.7488 139.074L64.6919 139.085L63.7828 139.94ZM63.2076 142V134.727H63.8397V142H63.2076ZM66.606 142L64.3901 139.198L64.8446 138.761L67.4157 142H66.606Z" fill="#828282"/>
<path d="M184 78L189.774 68L178.226 68L184 78ZM183 53L183 69L185 69L185 53L183 53Z" fill="#828282"/>
<path d="M237 181L232.819 170.236L225.588 179.239L237 181ZM175.374 132.78L229.357 176.143L230.61 174.584L176.626 131.22L175.374 132.78Z" fill="#828282"/>
<path d="M244 181L249.774 171L238.226 171L244 181ZM243 130L243 172L245 172L245 130L243 130Z" fill="#828282"/>
<path d="M252 181L263.541 180.638L257.457 170.824L252 181ZM301.473 149.15L259.122 175.408L260.176 177.107L302.527 150.85L301.473 149.15Z" fill="#828282"/>
<path d="M243 78L248.774 68L237.226 68L243 78ZM242 53L242 69L244 69L244 53L242 53Z" fill="#828282"/>
<path d="M303 78L308.774 68L297.226 68L303 78ZM302 53L302 69L304 69L304 53L302 53Z" fill="#828282"/>
<path d="M319.946 57.6364H321.733L325.935 67.8991H326.079L330.281 57.6364H332.068V70H330.667V60.6065H330.547L326.683 70H325.331L321.467 60.6065H321.346V70H319.946V57.6364ZM340.72 66.2088V60.7273H342.145V70H340.72V68.4304H340.624C340.407 68.9013 340.068 69.3017 339.61 69.6317C339.151 69.9577 338.571 70.1207 337.871 70.1207C337.292 70.1207 336.776 69.994 336.326 69.7404C335.875 69.4828 335.521 69.0965 335.263 68.5813C335.006 68.0621 334.877 67.4081 334.877 66.6193V60.7273H336.301V66.5227C336.301 67.1989 336.491 67.7382 336.869 68.1406C337.251 68.5431 337.738 68.7443 338.33 68.7443C338.684 68.7443 339.044 68.6538 339.41 68.4727C339.781 68.2915 340.091 68.0138 340.34 67.6396C340.594 67.2653 340.72 66.7884 340.72 66.2088ZM346.179 57.6364V70H344.755V57.6364H346.179ZM352.822 60.7273V61.9347H348.016V60.7273H352.822ZM349.417 58.5057H350.841V67.3438C350.841 67.7462 350.9 68.0481 351.016 68.2493C351.137 68.4465 351.29 68.5793 351.475 68.6477C351.664 68.7121 351.864 68.7443 352.073 68.7443C352.23 68.7443 352.359 68.7363 352.459 68.7202C352.56 68.7 352.64 68.6839 352.701 68.6719L352.991 69.9517C352.894 69.9879 352.759 70.0241 352.586 70.0604C352.413 70.1006 352.194 70.1207 351.928 70.1207C351.526 70.1207 351.131 70.0342 350.745 69.8612C350.362 69.6881 350.045 69.4245 349.791 69.0703C349.541 68.7161 349.417 68.2694 349.417 67.7301V58.5057ZM354.965 70V60.7273H356.389V70H354.965ZM355.689 59.1818C355.411 59.1818 355.172 59.0872 354.971 58.8981C354.773 58.7089 354.675 58.4815 354.675 58.2159C354.675 57.9503 354.773 57.7229 354.971 57.5337C355.172 57.3446 355.411 57.25 355.689 57.25C355.967 57.25 356.204 57.3446 356.401 57.5337C356.603 57.7229 356.703 57.9503 356.703 58.2159C356.703 58.4815 356.603 58.7089 356.401 58.8981C356.204 59.0872 355.967 59.1818 355.689 59.1818ZM358.999 73.4773V60.7273H360.375V62.2003H360.544C360.649 62.0393 360.794 61.834 360.979 61.5845C361.168 61.331 361.438 61.1056 361.788 60.9084C362.142 60.7071 362.621 60.6065 363.225 60.6065C364.005 60.6065 364.694 60.8017 365.289 61.1921C365.885 61.5825 366.35 62.1359 366.684 62.8523C367.018 63.5687 367.185 64.4138 367.185 65.3878C367.185 66.3698 367.018 67.221 366.684 67.9414C366.35 68.6578 365.887 69.2132 365.295 69.6076C364.704 69.998 364.022 70.1932 363.249 70.1932C362.653 70.1932 362.176 70.0946 361.818 69.8974C361.46 69.6961 361.184 69.4687 360.991 69.2152C360.798 68.9576 360.649 68.7443 360.544 68.5753H360.424V73.4773H358.999ZM360.399 65.3636C360.399 66.0639 360.502 66.6817 360.707 67.217C360.913 67.7482 361.212 68.1648 361.607 68.4666C362.001 68.7644 362.484 68.9134 363.056 68.9134C363.651 68.9134 364.148 68.7564 364.547 68.4425C364.949 68.1245 365.251 67.6979 365.452 67.1626C365.658 66.6233 365.76 66.0237 365.76 65.3636C365.76 64.7116 365.66 64.1241 365.458 63.6009C365.261 63.0736 364.961 62.6571 364.559 62.3512C364.16 62.0413 363.659 61.8864 363.056 61.8864C362.476 61.8864 361.989 62.0333 361.595 62.3271C361.2 62.6168 360.902 63.0233 360.701 63.5465C360.5 64.0657 360.399 64.6714 360.399 65.3636ZM370.783 57.6364V70H369.358V57.6364H370.783ZM374.31 73.4773C374.068 73.4773 373.853 73.4571 373.664 73.4169C373.475 73.3807 373.344 73.3445 373.272 73.3082L373.634 72.0526C373.98 72.1411 374.286 72.1733 374.551 72.1491C374.817 72.125 375.053 72.0063 375.258 71.793C375.467 71.5837 375.658 71.2436 375.831 70.7727L376.097 70.0483L372.668 60.7273H374.213L376.773 68.1165H376.87L379.429 60.7273H380.975L377.039 71.3523C376.862 71.8312 376.642 72.2276 376.381 72.5415C376.119 72.8595 375.815 73.0949 375.469 73.2479C375.127 73.4008 374.741 73.4773 374.31 73.4773Z" fill="#5F5F5F"/>
<path d="M300.511 170.727C300.439 170.116 300.145 169.641 299.63 169.303C299.115 168.964 298.483 168.795 297.734 168.795C297.187 168.795 296.708 168.884 296.298 169.061C295.891 169.238 295.573 169.482 295.344 169.792C295.118 170.101 295.006 170.454 295.006 170.848C295.006 171.178 295.084 171.462 295.241 171.699C295.402 171.933 295.607 172.128 295.857 172.285C296.107 172.438 296.368 172.565 296.642 172.665C296.915 172.762 297.167 172.84 297.396 172.901L298.652 173.239C298.974 173.323 299.332 173.44 299.727 173.589C300.125 173.738 300.505 173.941 300.868 174.199C301.234 174.452 301.536 174.778 301.773 175.176C302.011 175.575 302.129 176.064 302.129 176.643C302.129 177.312 301.954 177.915 301.604 178.455C301.258 178.994 300.751 179.422 300.083 179.74C299.419 180.058 298.612 180.217 297.662 180.217C296.777 180.217 296.01 180.074 295.362 179.789C294.718 179.503 294.211 179.105 293.841 178.593C293.474 178.082 293.267 177.489 293.219 176.812H294.764C294.805 177.279 294.961 177.666 295.235 177.972C295.513 178.273 295.863 178.499 296.286 178.648C296.712 178.793 297.171 178.865 297.662 178.865C298.234 178.865 298.747 178.772 299.201 178.587C299.656 178.398 300.016 178.137 300.282 177.803C300.548 177.464 300.68 177.07 300.68 176.619C300.68 176.209 300.566 175.875 300.336 175.617C300.107 175.36 299.805 175.15 299.431 174.989C299.057 174.828 298.652 174.687 298.217 174.567L296.696 174.132C295.73 173.854 294.966 173.458 294.402 172.943C293.839 172.428 293.557 171.754 293.557 170.92C293.557 170.228 293.744 169.625 294.118 169.109C294.497 168.59 295.004 168.188 295.64 167.902C296.28 167.612 296.994 167.467 297.783 167.467C298.58 167.467 299.288 167.61 299.908 167.896C300.528 168.178 301.019 168.564 301.381 169.055C301.747 169.546 301.94 170.103 301.96 170.727H300.511ZM310.241 176.209V170.727H311.666V180H310.241V178.43H310.145C309.928 178.901 309.589 179.302 309.131 179.632C308.672 179.958 308.092 180.121 307.392 180.121C306.812 180.121 306.297 179.994 305.847 179.74C305.396 179.483 305.042 179.096 304.784 178.581C304.527 178.062 304.398 177.408 304.398 176.619V170.727H305.822V176.523C305.822 177.199 306.012 177.738 306.39 178.141C306.772 178.543 307.259 178.744 307.851 178.744C308.205 178.744 308.565 178.654 308.931 178.473C309.302 178.292 309.612 178.014 309.861 177.64C310.115 177.265 310.241 176.788 310.241 176.209ZM314.276 180V170.727H315.652V172.176H315.773C315.966 171.681 316.278 171.297 316.709 171.023C317.139 170.745 317.656 170.607 318.26 170.607C318.872 170.607 319.381 170.745 319.787 171.023C320.198 171.297 320.518 171.681 320.747 172.176H320.844C321.081 171.697 321.437 171.317 321.912 171.035C322.387 170.749 322.957 170.607 323.621 170.607C324.45 170.607 325.128 170.866 325.655 171.385C326.182 171.9 326.446 172.703 326.446 173.794V180H325.021V173.794C325.021 173.11 324.834 172.621 324.46 172.327C324.086 172.033 323.645 171.886 323.138 171.886C322.486 171.886 321.981 172.084 321.623 172.478C321.264 172.868 321.085 173.363 321.085 173.963V180H319.636V173.649C319.636 173.122 319.465 172.697 319.123 172.375C318.781 172.049 318.341 171.886 317.801 171.886C317.431 171.886 317.085 171.985 316.763 172.182C316.445 172.379 316.187 172.653 315.99 173.003C315.797 173.349 315.7 173.75 315.7 174.205V180H314.276Z" fill="#5F5F5F"/>
<path d="M223.737 255.477C223.411 255.477 223.105 255.451 222.819 255.399C222.537 255.35 222.304 255.288 222.119 255.212L222.698 253.292C223 253.384 223.272 253.435 223.513 253.443C223.759 253.451 223.97 253.395 224.147 253.274C224.328 253.153 224.475 252.948 224.588 252.658L224.739 252.266L221.412 242.727H224.117L226.037 249.537H226.133L228.071 242.727H230.794L227.19 253.002C227.017 253.501 226.781 253.936 226.483 254.306C226.19 254.68 225.817 254.968 225.367 255.169C224.916 255.375 224.372 255.477 223.737 255.477ZM240.836 246.036V244.732H248.274V246.036H240.836ZM240.836 249.609V248.305H248.274V249.609H240.836ZM266.077 243.965H263.432C263.384 243.623 263.285 243.319 263.137 243.053C262.988 242.784 262.797 242.554 262.563 242.365C262.33 242.176 262.06 242.031 261.754 241.93C261.452 241.83 261.124 241.779 260.77 241.779C260.13 241.779 259.573 241.938 259.098 242.256C258.623 242.57 258.255 243.029 257.993 243.633C257.732 244.232 257.601 244.961 257.601 245.818C257.601 246.7 257.732 247.44 257.993 248.04C258.259 248.639 258.629 249.092 259.104 249.398C259.579 249.704 260.128 249.857 260.752 249.857C261.102 249.857 261.426 249.811 261.724 249.718C262.026 249.625 262.293 249.491 262.527 249.314C262.76 249.132 262.953 248.913 263.106 248.656C263.263 248.398 263.372 248.104 263.432 247.774L266.077 247.786C266.008 248.354 265.837 248.901 265.563 249.428C265.294 249.951 264.93 250.42 264.471 250.835C264.016 251.245 263.473 251.571 262.841 251.813C262.213 252.05 261.503 252.169 260.71 252.169C259.607 252.169 258.621 251.92 257.752 251.42C256.886 250.921 256.202 250.199 255.699 249.253C255.2 248.307 254.951 247.162 254.951 245.818C254.951 244.47 255.204 243.323 255.711 242.377C256.218 241.431 256.906 240.711 257.776 240.216C258.645 239.717 259.623 239.467 260.71 239.467C261.426 239.467 262.09 239.568 262.702 239.769C263.318 239.97 263.863 240.264 264.338 240.651C264.813 241.033 265.199 241.502 265.497 242.057C265.799 242.613 265.992 243.248 266.077 243.965ZM267.951 252V239.636H272.901C273.811 239.636 274.57 239.771 275.177 240.041C275.785 240.31 276.242 240.685 276.548 241.164C276.854 241.639 277.006 242.186 277.006 242.806C277.006 243.289 276.91 243.713 276.717 244.08C276.523 244.442 276.258 244.74 275.92 244.973C275.586 245.202 275.203 245.365 274.773 245.462V245.583C275.244 245.603 275.684 245.736 276.095 245.981C276.509 246.227 276.845 246.571 277.103 247.013C277.361 247.452 277.489 247.975 277.489 248.583C277.489 249.239 277.326 249.825 277 250.34C276.678 250.851 276.202 251.255 275.57 251.553C274.938 251.851 274.159 252 273.233 252H267.951ZM270.565 249.863H272.696C273.425 249.863 273.956 249.724 274.29 249.446C274.624 249.165 274.791 248.79 274.791 248.324C274.791 247.981 274.708 247.68 274.543 247.418C274.378 247.156 274.143 246.951 273.837 246.802C273.535 246.653 273.175 246.579 272.756 246.579H270.565V249.863ZM270.565 244.81H272.503C272.861 244.81 273.179 244.748 273.457 244.623C273.738 244.494 273.96 244.313 274.121 244.08C274.286 243.846 274.368 243.566 274.368 243.24C274.368 242.794 274.209 242.433 273.891 242.16C273.577 241.886 273.131 241.749 272.551 241.749H270.565V244.81ZM281.291 242.727L282.994 245.969L284.738 242.727H287.376L284.69 247.364L287.449 252H284.823L282.994 248.794L281.195 252H278.538L281.291 247.364L278.635 242.727H281.291Z" fill="#272727"/>
<path d="M233.5 258.099C232.965 258.099 232.509 257.954 232.133 257.663C231.756 257.369 231.469 256.944 231.27 256.388C231.071 255.829 230.972 255.154 230.972 254.364C230.972 253.578 231.071 252.906 231.27 252.35C231.471 251.791 231.76 251.365 232.136 251.072C232.515 250.776 232.97 250.628 233.5 250.628C234.03 250.628 234.484 250.776 234.86 251.072C235.239 251.365 235.528 251.791 235.727 252.35C235.928 252.906 236.028 253.578 236.028 254.364C236.028 255.154 235.929 255.829 235.73 256.388C235.531 256.944 235.244 257.369 234.867 257.663C234.491 257.954 234.035 258.099 233.5 258.099ZM233.5 257.318C234.03 257.318 234.442 257.062 234.736 256.551C235.029 256.04 235.176 255.311 235.176 254.364C235.176 253.734 235.109 253.198 234.974 252.755C234.841 252.312 234.649 251.975 234.398 251.743C234.15 251.511 233.85 251.395 233.5 251.395C232.974 251.395 232.564 251.654 232.268 252.173C231.972 252.689 231.824 253.419 231.824 254.364C231.824 254.993 231.89 255.528 232.023 255.969C232.155 256.409 232.346 256.744 232.594 256.974C232.845 257.203 233.147 257.318 233.5 257.318Z" fill="#272727"/>
<path d="M291.5 258.099C290.965 258.099 290.509 257.954 290.133 257.663C289.756 257.369 289.469 256.944 289.27 256.388C289.071 255.829 288.972 255.154 288.972 254.364C288.972 253.578 289.071 252.906 289.27 252.35C289.471 251.791 289.76 251.365 290.136 251.072C290.515 250.776 290.97 250.628 291.5 250.628C292.03 250.628 292.484 250.776 292.86 251.072C293.239 251.365 293.528 251.791 293.727 252.35C293.928 252.906 294.028 253.578 294.028 254.364C294.028 255.154 293.929 255.829 293.73 256.388C293.531 256.944 293.244 257.369 292.867 257.663C292.491 257.954 292.035 258.099 291.5 258.099ZM291.5 257.318C292.03 257.318 292.442 257.062 292.736 256.551C293.029 256.04 293.176 255.311 293.176 254.364C293.176 253.734 293.109 253.198 292.974 252.755C292.841 252.312 292.649 251.975 292.398 251.743C292.15 251.511 291.85 251.395 291.5 251.395C290.974 251.395 290.564 251.654 290.268 252.173C289.972 252.689 289.824 253.419 289.824 254.364C289.824 254.993 289.89 255.528 290.023 255.969C290.155 256.409 290.346 256.744 290.594 256.974C290.845 257.203 291.147 257.318 291.5 257.318Z" fill="#272727"/>
<line x1="155.5" y1="112" x2="155.5" y2="126" stroke="black" stroke-opacity="0.5" stroke-dasharray="2 2"/>
<line x1="275.5" y1="112" x2="275.5" y2="126" stroke="black" stroke-opacity="0.5" stroke-dasharray="2 2"/>
<line x1="276" y1="126.5" x2="155" y2="126.5" stroke="black" stroke-opacity="0.5" stroke-dasharray="2 2"/>
<line x1="268" y1="236.5" x2="277" y2="236.5" stroke="black"/>
</svg>
