<svg width="432" height="91" viewBox="0 0 432 91" fill="none" xmlns="http://www.w3.org/2000/svg">
<rect width="432" height="91" fill="white"/>
<path d="M140 12L140 44" stroke="#6C6C6C" stroke-width="2"/>
<path d="M300 41L305.774 31L294.226 31L300 41ZM299 13L299 32L301 32L301 13L299 13Z" fill="#6C6C6C"/>
<path d="M140 13L301 13" stroke="#6C6C6C" stroke-width="2"/>
<path d="M187 48L181.226 58L192.774 58L187 48ZM188 76L188 57L186 57L186 76L188 76Z" fill="#6C6C6C"/>
<path d="M187 75L257 75" stroke="#6C6C6C" stroke-width="2.12346"/>
<path d="M257 44L257 76" stroke="#6C6C6C" stroke-width="2.12346"/>
<path d="M320 44L310 38.2265V49.7735L320 44ZM311 43L257 43V45L311 45V43Z" fill="#6C6C6C"/>
<path d="M257 44L115 44" stroke="#6C6C6C" stroke-width="2"/>
<path d="M106.395 39.2727L107.997 42.3239L109.639 39.2727H112.122L109.594 43.6364L112.19 48H109.719L107.997 44.983L106.304 48H103.804L106.395 43.6364L103.895 39.2727H106.395Z" fill="#BE3B3B"/>
<path d="M325.773 51.2727C325.466 51.2727 325.178 51.2481 324.909 51.1989C324.644 51.1534 324.424 51.0947 324.25 51.0227L324.795 49.2159C325.08 49.303 325.335 49.3504 325.562 49.358C325.794 49.3655 325.992 49.3125 326.159 49.1989C326.33 49.0852 326.468 48.892 326.574 48.6193L326.716 48.25L323.585 39.2727H326.131L327.938 45.6818H328.028L329.852 39.2727H332.415L329.023 48.9432C328.86 49.4129 328.638 49.822 328.358 50.1705C328.081 50.5227 327.731 50.7936 327.307 50.983C326.883 51.1761 326.371 51.2727 325.773 51.2727Z" fill="#743BBE"/>
<rect x="149.5" y="33.5" width="19" height="22" fill="white" stroke="#6C6C6C"/>
<path d="M155.49 50V39.0909H159.858C160.66 39.0909 161.33 39.2099 161.866 39.4478C162.402 39.6857 162.805 40.016 163.075 40.4386C163.345 40.8576 163.48 41.3406 163.48 41.8874C163.48 42.3136 163.394 42.6882 163.224 43.0114C163.054 43.331 162.819 43.5937 162.521 43.7997C162.226 44.0021 161.889 44.146 161.509 44.2312V44.3377C161.924 44.3555 162.313 44.4727 162.675 44.6893C163.041 44.9059 163.338 45.2095 163.565 45.6001C163.792 45.9872 163.906 46.4489 163.906 46.9851C163.906 47.5639 163.762 48.0806 163.474 48.5352C163.19 48.9862 162.769 49.343 162.212 49.6058C161.654 49.8686 160.967 50 160.151 50H155.49ZM157.796 48.1143H159.676C160.319 48.1143 160.788 47.9918 161.083 47.7468C161.377 47.4982 161.525 47.168 161.525 46.756C161.525 46.4542 161.452 46.1879 161.306 45.957C161.161 45.7262 160.953 45.5451 160.683 45.4137C160.417 45.2823 160.099 45.2166 159.73 45.2166H157.796V48.1143ZM157.796 43.6559H159.506C159.822 43.6559 160.103 43.6009 160.348 43.4908C160.596 43.3771 160.792 43.2173 160.934 43.0114C161.079 42.8054 161.152 42.5586 161.152 42.271C161.152 41.8768 161.012 41.5589 160.731 41.3175C160.454 41.076 160.06 40.9553 159.549 40.9553H157.796V43.6559Z" fill="#4B9745"/>
<rect x="269.5" y="33.5" width="19" height="22" fill="white" stroke="#6C6C6C"/>
<path d="M284.434 42.9102H282.101C282.058 42.6083 281.971 42.3402 281.84 42.1058C281.708 41.8679 281.54 41.6655 281.334 41.4986C281.128 41.3317 280.89 41.2038 280.62 41.1151C280.354 41.0263 280.064 40.9819 279.752 40.9819C279.187 40.9819 278.695 41.1222 278.276 41.4027C277.857 41.6797 277.532 42.0845 277.301 42.6172C277.071 43.1463 276.955 43.7891 276.955 44.5455C276.955 45.3232 277.071 45.9766 277.301 46.5057C277.536 47.0348 277.862 47.4343 278.282 47.7042C278.701 47.9741 279.185 48.109 279.736 48.109C280.045 48.109 280.331 48.0682 280.593 47.9865C280.86 47.9048 281.096 47.7859 281.302 47.6296C281.508 47.4698 281.678 47.2763 281.813 47.049C281.952 46.8217 282.047 46.5625 282.101 46.2713L284.434 46.282C284.373 46.7827 284.223 47.2656 283.981 47.7308C283.743 48.1925 283.422 48.6062 283.017 48.9719C282.616 49.3342 282.136 49.6218 281.579 49.8349C281.025 50.0444 280.398 50.1491 279.698 50.1491C278.725 50.1491 277.855 49.929 277.088 49.4886C276.325 49.0483 275.721 48.4109 275.277 47.5763C274.837 46.7418 274.617 45.7315 274.617 44.5455C274.617 43.3558 274.84 42.3438 275.288 41.5092C275.735 40.6747 276.343 40.0391 277.11 39.6023C277.877 39.1619 278.74 38.9418 279.698 38.9418C280.331 38.9418 280.916 39.0305 281.456 39.2081C282 39.3857 282.481 39.6449 282.9 39.9858C283.319 40.3232 283.66 40.7369 283.922 41.2269C284.189 41.717 284.359 42.2781 284.434 42.9102Z" fill="#0847A6"/>
<rect x="241.5" y="1.5" width="19" height="22" fill="white" stroke="#6C6C6C"/>
<path d="M250.859 18H246.992V7.09091H250.891C251.988 7.09091 252.933 7.3093 253.725 7.74609C254.516 8.17933 255.125 8.80256 255.552 9.61577C255.981 10.429 256.196 11.402 256.196 12.5348C256.196 13.6712 255.981 14.6477 255.552 15.4645C255.125 16.2812 254.513 16.908 253.714 17.3448C252.918 17.7816 251.967 18 250.859 18ZM249.298 16.0238H250.763C251.445 16.0238 252.018 15.9031 252.483 15.6616C252.952 15.4165 253.304 15.0384 253.538 14.527C253.776 14.0121 253.895 13.348 253.895 12.5348C253.895 11.7287 253.776 11.07 253.538 10.5586C253.304 10.0472 252.954 9.67081 252.489 9.42933C252.024 9.18786 251.45 9.06712 250.768 9.06712H249.298V16.0238Z" fill="#974594"/>
<rect x="212.5" y="64.5" width="19" height="22" fill="white" stroke="#6C6C6C"/>
<path d="M219.718 81H217.247L221.013 70.0909H223.985L227.745 81H225.274L222.541 72.5838H222.456L219.718 81ZM219.564 76.712H225.402V78.5124H219.564V76.712Z" fill="#978545"/>
<rect x="211.5" y="33.5" width="19" height="22" fill="white" stroke="#6C6C6C"/>
<path d="M219.495 45.2699V50H217.225V39.0909H219.431V43.2617H219.527C219.711 42.7788 220.009 42.4006 220.421 42.1271C220.833 41.8501 221.35 41.7116 221.971 41.7116C222.54 41.7116 223.035 41.8359 223.458 42.0845C223.884 42.3295 224.214 42.6829 224.448 43.1445C224.686 43.6026 224.803 44.1513 224.8 44.7905V50H222.531V45.1953C222.534 44.6911 222.406 44.2987 222.147 44.0181C221.892 43.7376 221.533 43.5973 221.071 43.5973C220.762 43.5973 220.489 43.663 220.251 43.7944C220.017 43.9258 219.832 44.1175 219.697 44.3697C219.566 44.6183 219.498 44.9183 219.495 45.2699Z" fill="#4C7477"/>
</svg>
